SplineFontDB: 3.0
FontName: Klaudia-Oblique
FullName: Klaudia Oblique
FamilyName: Klaudia
Weight: Book
Copyright: Copyright (c) 2011, wmk69 (wmk69@o2.pl)\nwith Reserved Font Names 'Klaudia' and 'Klaudia Oblique'.\n\nThis Font Software is licensed under the SIL Open Font License, Version 1.1.\nThis license is available with a FAQ at:\nhttp://scripts.sil.org/OFL
Version: 2.000
ItalicAngle: -13
UnderlinePosition: -81
UnderlineWidth: 122
Ascent: 1638
Descent: 410
LayerCount: 2
Layer: 0 1 "Warstwa t+AUIA-a"  1
Layer: 1 1 "Plan pierwszy"  0
XUID: [1021 783 23647091 10727182]
FSType: 0
OS2Version: 3
OS2_WeightWidthSlopeOnly: 0
OS2_UseTypoMetrics: 1
CreationTime: 1260698820
ModificationTime: 1314631495
PfmFamily: 33
TTFWeight: 400
TTFWidth: 5
LineGap: 0
VLineGap: 0
Panose: 2 13 5 3 2 4 4 13 2 4
OS2TypoAscent: 1991
OS2TypoAOffset: 0
OS2TypoDescent: -471
OS2TypoDOffset: 0
OS2TypoLinegap: 0
OS2WinAscent: 1991
OS2WinAOffset: 0
OS2WinDescent: 471
OS2WinDOffset: 0
HheadAscent: 1991
HheadAOffset: 0
HheadDescent: -471
HheadDOffset: 0
OS2SubXSize: 1434
OS2SubYSize: 1331
OS2SubXOff: 0
OS2SubYOff: 287
OS2SupXSize: 1434
OS2SupYSize: 1331
OS2SupXOff: 0
OS2SupYOff: 977
OS2StrikeYSize: 102
OS2StrikeYPos: 512
OS2Vendor: '    '
OS2CodePages: 20000093.00000000
OS2UnicodeRanges: 8000002f.4000204b.00000000.00000000
Lookup: 258 0 0 "'kern' Kerning poziomy w tablicy 0"  {"Podtablica 'kern' Kerning poziomy w tablicy 0"  } ['kern' ('DFLT' <'dflt' > 'grek' <'dflt' > 'latn' <'dflt' > ) ]
DEI: 91125
KernClass2: 21 16 "Podtablica 'kern' Kerning poziomy w tablicy 0" 
 90 A Agrave Aacute Acircumflex Atilde Adieresis Aring Amacron Abreve Aogonek Aringacute Delta
 9 F uni0191
 43 K R Kcommaaccent Racute Rcommaaccent Rcaron
 40 L Lacute Lcommaaccent Lcaron Ldot Lslash
 42 T Tcommaaccent Tcaron Tbar uni021A uni1E6A
 1 V
 37 Y Yacute Ycircumflex Ydieresis Ygrave
 140 a g h m n q u w y agrave ugrave aogonek hcircumflex ncommaaccent napostrophe eng uogonek wcircumflex uni01E5 uni1E41 wgrave wacute wdieresis

StartChar: .notdef
Encoding: 65536 -1 0
Width: 894
Flags: W
HStem: 0 118<295 653> 1393 118<590 948>
VStem: 150 594<0 594> 499 594<917 1511>
DStem2: 150 0 267.758 0 0.224951 0.97437<147.594 1456.28> 625.758 0 744 0 0.224951 0.97437<121.104 1429.79>
LayerCount: 2
Fore
SplineSet
150 0 m 1,0,-1
 499 1511 l 1,1,-1
 1093 1511 l 1,2,-1
 744 0 l 1,3,-1
 150 0 l 1,0,-1
590 1393 m 1,4,-1
 295 118 l 1,5,-1
 653 118 l 1,6,-1
 948 1393 l 1,7,-1
 590 1393 l 1,4,-1
EndSplineSet
Validated: 1
EndChar

StartChar: exclam
Encoding: 33 33 4
Width: 742
GlyphClass: 2
Flags: W
HStem: -20 255<319.25 473.449> 1491 20G<615.889 820>
VStem: 266 259<31.2026 182.28> 382 140<353 493> 620 200<1311 1511>
LayerCount: 2
Fore
SplineSet
521 102 m 0,0,1
 509 52 509 52 464 16 c 128,-1,2
 419 -20 419 -20 366 -20 c 128,-1,3
 313 -20 313 -20 285 18 c 0,4,5
 266 44 266 44 266 76 c 0,6,7
 266 92 266 92 270 107 c 0,8,9
 285 163 285 163 326 197 c 0,10,11
 372 235 372 235 426 235 c 0,12,13
 481 235 481 235 507 198 c 0,14,15
 525 172 525 172 525 140 c 0,16,17
 525 119 525 119 521 102 c 0,0,1
382 353 m 1,18,-1
 620 1511 l 1,19,-1
 820 1511 l 1,20,-1
 522 353 l 1,21,-1
 382 353 l 1,18,-1
EndSplineSet
Validated: 1
EndChar

StartChar: quotedbl
Encoding: 34 34 5
Width: 816
GlyphClass: 2
Flags: W
HStem: 994 517<549 579 815 845>
VStem: 429 150<994 1144> 549 150<1361 1511> 695 150<994 1144> 815 150<1361 1511>
DStem2: 429 994 579 994 0.224951 0.97437<33.7427 530.743> 695 994 845 994 0.224951 0.97437<33.7427 530.743>
LayerCount: 2
Fore
SplineSet
695 994 m 1,0,-1
 815 1511 l 1,1,-1
 965 1511 l 1,2,-1
 845 994 l 1,3,-1
 695 994 l 1,0,-1
429 994 m 1,4,-1
 549 1511 l 1,5,-1
 699 1511 l 1,6,-1
 579 994 l 1,7,-1
 429 994 l 1,4,-1
EndSplineSet
Validated: 1
EndChar

StartChar: numbersign
Encoding: 35 35 6
Width: 1483
GlyphClass: 2
Flags: W
HStem: 516 150<304 609 794 963 1148 1452> 870 150<385 691 875 1045 1229 1534>
VStem: 531 150<176 326> 804 150<1210 1360> 885 150<176 326> 1158 150<1210 1360>
DStem2: 531 176 681 176 0.224951 0.97437<33.7427 348.832 536.603 712.205 899.752 1215.07> 885 176 1035 176 0.224951 0.97437<33.7427 348.832 536.603 712.205 899.752 1215.07>
LayerCount: 2
Fore
SplineSet
531 176 m 1,0,-1
 609 516 l 1,1,-1
 269 516 l 1,2,-1
 304 666 l 1,3,-1
 644 666 l 1,4,-1
 691 870 l 1,5,-1
 351 870 l 1,6,-1
 385 1020 l 1,7,-1
 725 1020 l 1,8,-1
 804 1360 l 1,9,-1
 954 1360 l 1,10,-1
 875 1020 l 1,11,-1
 1079 1020 l 1,12,-1
 1158 1360 l 1,13,-1
 1308 1360 l 1,14,-1
 1229 1020 l 1,15,-1
 1568 1020 l 1,16,-1
 1534 870 l 1,17,-1
 1195 870 l 1,18,-1
 1148 666 l 1,19,-1
 1487 666 l 1,20,-1
 1452 516 l 1,21,-1
 1113 516 l 1,22,-1
 1035 176 l 1,23,-1
 885 176 l 1,24,-1
 963 516 l 1,25,-1
 759 516 l 1,26,-1
 681 176 l 1,27,-1
 531 176 l 1,0,-1
794 666 m 1,28,-1
 998 666 l 1,29,-1
 1045 870 l 1,30,-1
 841 870 l 1,31,-1
 794 666 l 1,28,-1
EndSplineSet
Validated: 1
EndChar

StartChar: dollar
Encoding: 36 36 7
Width: 1511
GlyphClass: 2
Flags: W
HStem: -20 123<485.408 711> 1406 125<1189 1286.27>
VStem: 541 204<1002.66 1184.61> 672 120<-186 -66> 1106 121<1574 1695> 1347 215<512.967 716.961>
DStem2: 672 -186 792 -186 0.224951 0.97437<26.9941 173.442 359.561 995.528 1198.14 1618.46 1789.29 1930.42> 840 984 766 802 0.991071 -0.133337<-89.9346 82.1673 217.938 530.142>
LayerCount: 2
Fore
SplineSet
141 263 m 1,0,-1
 318 350 l 1,1,2
 413 103 413 103 670 103 c 0,3,4
 705 103 705 103 740 107 c 1,5,-1
 896 784 l 1,6,-1
 766 802 l 1,7,8
 541 836 541 836 541 1008 c 0,9,10
 541 1042 541 1042 550 1083 c 0,11,12
 589 1262 589 1262 767 1388 c 0,13,14
 911 1490 911 1490 1065 1519 c 1,15,-1
 1106 1695 l 1,16,-1
 1227 1695 l 1,17,-1
 1189 1531 l 1,18,19
 1366 1531 1366 1531 1514 1391 c 1,20,-1
 1355 1290 l 1,21,22
 1283 1399 1283 1399 1160 1406 c 1,23,-1
 1056 955 l 1,24,-1
 1338 917 l 1,25,26
 1562 875 1562 875 1562 695 c 0,27,28
 1562 657 1562 657 1552 610 c 1,29,30
 1495 368 1495 368 1190 157 c 0,31,32
 1024 42 1024 42 835 1 c 1,33,-1
 792 -186 l 1,34,-1
 672 -186 l 1,35,-1
 711 -17 l 1,36,37
 670 -20 670 -20 628 -20 c 0,38,39
 289 -20 289 -20 141 263 c 1,0,-1
939 971 m 1,40,-1
 1036 1391 l 1,41,42
 958 1368 958 1368 879 1311 c 0,43,44
 767 1230 767 1230 749 1130 c 0,45,46
 745 1108 745 1108 745 1089 c 0,47,48
 745 998 745 998 840 984 c 1,49,-1
 939 971 l 1,40,-1
1012 767 m 1,50,-1
 867 138 l 1,51,52
 984 180 984 180 1102 270 c 0,53,54
 1306 426 1306 426 1341 584 c 0,55,56
 1347 611 1347 611 1347 632 c 0,57,58
 1347 718 1347 718 1257 732 c 1,59,-1
 1012 767 l 1,50,-1
EndSplineSet
Validated: 1
EndChar

StartChar: percent
Encoding: 37 37 8
Width: 1838
GlyphClass: 2
Flags: W
HStem: 0 118<1205.34 1447.19> 493 123<1323.56 1560.8> 895 118<627.335 869.193> 1388 123<745.555 982.802>
VStem: 410 191<1046.79 1245.31> 988 191<151.786 350.315> 1008 191<1155.77 1353.21> 1586 191<260.768 458.214> 1611 176<1335 1511>
DStem2: 418 0 594 0 0.619678 0.784856<109.063 1925.19>
LayerCount: 2
Fore
SplineSet
933 1511 m 0,0,1
 1066 1511 1066 1511 1151 1428 c 0,2,3
 1199 1381 1199 1381 1199 1308 c 0,4,5
 1199 1278 1199 1278 1191 1245 c 0,6,7
 1160 1116 1160 1116 1022 1014 c 0,8,9
 862 895 862 895 681 895 c 24,10,11
 526 895 526 895 453 980 c 0,12,13
 410 1030 410 1030 410 1096 c 0,14,15
 410 1121 410 1121 416 1148 c 0,16,17
 451 1304 451 1304 624 1413 c 0,18,19
 781 1511 781 1511 933 1511 c 0,0,1
606 1156 m 0,20,21
 601 1135 601 1135 601 1117 c 0,22,23
 601 1071 601 1071 632 1046 c 0,24,25
 672 1013 672 1013 735 1013 c 24,26,27
 835 1013 835 1013 920 1098 c 256,28,29
 985 1163 985 1163 1003 1242 c 0,30,31
 1008 1264 1008 1264 1008 1283 c 0,32,33
 1008 1329 1008 1329 978 1354 c 0,34,35
 937 1388 937 1388 877 1388 c 24,36,37
 794 1388 794 1388 703 1313 c 0,38,39
 629 1252 629 1252 606 1156 c 0,20,21
1511 616 m 0,40,41
 1644 616 1644 616 1729 533 c 0,42,43
 1777 486 1777 486 1777 413 c 0,44,45
 1777 383 1777 383 1769 350 c 0,46,47
 1738 221 1738 221 1600 119 c 0,48,49
 1440 0 1440 0 1259 0 c 24,50,51
 1104 0 1104 0 1031 85 c 0,52,53
 988 135 988 135 988 201 c 0,54,55
 988 226 988 226 994 253 c 0,56,57
 1029 409 1029 409 1202 518 c 0,58,59
 1359 616 1359 616 1511 616 c 0,40,41
1184 261 m 0,60,61
 1179 240 1179 240 1179 222 c 0,62,63
 1179 176 1179 176 1210 151 c 0,64,65
 1250 118 1250 118 1313 118 c 24,66,67
 1413 118 1413 118 1498 203 c 256,68,69
 1563 268 1563 268 1581 347 c 0,70,71
 1586 369 1586 369 1586 388 c 0,72,73
 1586 434 1586 434 1556 459 c 0,74,75
 1515 493 1515 493 1455 493 c 24,76,77
 1372 493 1372 493 1281 418 c 0,78,79
 1207 357 1207 357 1184 261 c 0,60,61
418 0 m 1,80,-1
 1611 1511 l 1,81,-1
 1787 1511 l 1,82,-1
 594 0 l 1,83,-1
 418 0 l 1,80,-1
EndSplineSet
Validated: 1
EndChar

StartChar: ampersand
Encoding: 38 38 9
Width: 1712
GlyphClass: 2
Flags: W
HStem: -20 116<525.508 878.462> 0 21G<1392.51 1612> 897 136<851.172 964> 1100 20G<1434.5 1490.5> 1408 123<961.931 1239.43>
VStem: 238 214<166.097 534.619> 639 193<1057.96 1265.88> 1402 210<0 210> 1529 198<702.833 1024.33>
DStem2: 1088 1033 964 897 0.452386 -0.891822<45.9387 608.213 804.4 804.4>
LayerCount: 2
Fore
SplineSet
1612 0 m 1,0,-1
 1402 0 l 1,1,-1
 1291 234 l 1,2,3
 907 -20 907 -20 642 -20 c 0,4,5
 391 -20 391 -20 297 116 c 0,6,7
 238 201 238 201 238 318 c 0,8,9
 238 377 238 377 253 444 c 0,10,11
 294 626 294 626 467 787 c 0,12,13
 586 898 586 898 724 956 c 1,14,15
 639 1010 639 1010 639 1106 c 0,16,17
 639 1133 639 1133 646 1165 c 0,18,19
 685 1345 685 1345 887 1457 c 0,20,21
 1020 1531 1020 1531 1163 1531 c 0,22,23
 1327 1531 1327 1531 1402 1408 c 1,24,-1
 1237 1324 l 1,25,26
 1215 1408 1215 1408 1107 1408 c 0,27,28
 1010 1408 1010 1408 931 1341 c 0,29,30
 862 1283 862 1283 837 1178 c 0,31,32
 832 1157 832 1157 832 1138 c 0,33,34
 832 1093 832 1093 862 1066 c 0,35,36
 899 1033 899 1033 1088 1033 c 1,37,-1
 1362 490 l 1,38,39
 1479 628 1479 628 1519 802 c 0,40,41
 1529 845 1529 845 1529 884 c 0,42,43
 1529 948 1529 948 1501 1000 c 0,44,45
 1461 1074 1461 1074 1408 1120 c 1,46,47
 1573 1120 1573 1120 1645 1062 c 0,48,49
 1727 996 1727 996 1727 889 c 0,50,51
 1727 851 1727 851 1717 808 c 0,52,53
 1661 567 1661 567 1433 352 c 1,54,-1
 1612 0 l 1,0,-1
964 897 m 1,55,56
 810 897 810 897 675 791 c 0,57,58
 511 663 511 663 472 487 c 0,59,60
 452 398 452 398 452 328 c 0,61,62
 452 257 452 257 473 206 c 0,63,64
 520 96 520 96 684 96 c 0,65,66
 920 96 920 96 1232 356 c 1,67,-1
 964 897 l 1,55,56
EndSplineSet
Validated: 1
EndChar

StartChar: quotesingle
Encoding: 39 39 10
Width: 550
GlyphClass: 2
Flags: W
HStem: 994 517<549 579>
VStem: 429 150<994 1144> 549 150<1361 1511>
DStem2: 429 994 579 994 0.224951 0.97437<33.7427 530.743>
LayerCount: 2
Fore
SplineSet
429 994 m 1,0,-1
 549 1511 l 1,1,-1
 699 1511 l 1,2,-1
 579 994 l 1,3,-1
 429 994 l 1,0,-1
EndSplineSet
Validated: 1
EndChar

StartChar: parenleft
Encoding: 40 40 11
Width: 850
GlyphClass: 2
Flags: W
VStem: 332 189<51.7031 717.455> 482 156<-267 -157.002>
LayerCount: 2
Fore
SplineSet
957 1797 m 1,0,-1
 1111 1797 l 1,1,2
 925 1560 925 1560 802 1350 c 0,3,4
 652 1094 652 1094 581 788 c 0,5,6
 521 531 521 531 521 335 c 0,7,8
 521 268 521 268 528 207 c 0,9,10
 555 -30 555 -30 638 -267 c 1,11,-1
 482 -267 l 1,12,13
 395 -63 395 -63 352 164 c 0,14,15
 332 270 332 270 332 388 c 0,16,17
 332 573 332 573 381 783 c 0,18,19
 447 1064 447 1064 640 1378 c 0,20,21
 778 1602 778 1602 957 1797 c 1,0,-1
EndSplineSet
Validated: 1
EndChar

StartChar: parenright
Encoding: 41 41 12
Width: 850
GlyphClass: 2
Flags: W
VStem: 88 156<-267 -111> 569 154<1685.95 1797> 682 186<808.125 1490.83>
LayerCount: 2
Fore
SplineSet
723 1797 m 1,0,1
 810 1599 810 1599 846 1376 c 0,2,3
 868 1241 868 1241 868 1111 c 0,4,5
 868 945 868 945 831 783 c 0,6,7
 748 430 748 430 574 164 c 0,8,9
 426 -63 426 -63 244 -267 c 1,10,-1
 88 -267 l 1,11,12
 277 -35 277 -35 417 207 c 0,13,14
 554 444 554 444 633 788 c 0,15,16
 682 1001 682 1001 682 1189 c 0,17,18
 682 1274 682 1274 672 1350 c 0,19,20
 648 1556 648 1556 569 1797 c 1,21,-1
 723 1797 l 1,0,1
EndSplineSet
Validated: 1
EndChar

StartChar: asterisk
Encoding: 42 42 13
Width: 1139
GlyphClass: 2
Flags: W
HStem: 1491 20G<839.362 994>
VStem: 652 150<678 828> 844 150<1361 1511>
DStem2: 373 964 418 834 0.902685 0.430301<0 328.03 619.407 943.911> 542 1373 440 1257 0.853534 -0.521038<0 260.418 494.286 494.286> 652 678 802 678 0.224951 0.97437<33.7427 320.2 605.26 854.841>
LayerCount: 2
Fore
SplineSet
844 1511 m 1,0,-1
 994 1511 l 1,1,-1
 930 1235 l 1,2,-1
 1231 1373 l 1,3,-1
 1279 1257 l 1,4,-1
 963 1114 l 1,5,-1
 1212 964 l 1,6,-1
 1107 834 l 1,7,-1
 874 990 l 1,8,-1
 802 678 l 1,9,-1
 652 678 l 1,10,-1
 724 990 l 1,11,-1
 418 834 l 1,12,-1
 373 964 l 1,13,-1
 689 1114 l 1,14,-1
 440 1257 l 1,15,-1
 542 1373 l 1,16,-1
 780 1235 l 1,17,-1
 844 1511 l 1,0,-1
EndSplineSet
Validated: 1
EndChar

StartChar: plus
Encoding: 43 43 14
Width: 1183
GlyphClass: 2
Flags: W
HStem: 693 150<345 676 861 1193>
VStem: 591 150<326 476> 790 150<1035 1185>
DStem2: 591 326 741 326 0.224951 0.97437<33.7427 376.715 564.486 881.749>
LayerCount: 2
Fore
SplineSet
591 326 m 1,0,-1
 676 693 l 1,1,-1
 310 693 l 1,2,-1
 345 843 l 1,3,-1
 711 843 l 1,4,-1
 790 1185 l 1,5,-1
 940 1185 l 1,6,-1
 861 843 l 1,7,-1
 1228 843 l 1,8,-1
 1193 693 l 1,9,-1
 826 693 l 1,10,-1
 741 326 l 1,11,-1
 591 326 l 1,0,-1
EndSplineSet
Validated: 1
EndChar

StartChar: comma
Encoding: 44 44 15
Width: 610
GlyphClass: 2
Flags: W
HStem: -366 656
VStem: 271 192<-129.066 129.25>
LayerCount: 2
Fore
SplineSet
381 290 m 1,0,1
 463 191 463 191 463 64 c 0,2,3
 463 15 463 15 451 -38 c 0,4,5
 404 -246 404 -246 159 -366 c 1,6,-1
 89 -265 l 1,7,8
 231 -194 231 -194 263 -50 c 0,9,10
 271 -14 271 -14 271 16 c 0,11,12
 271 108 271 108 194 156 c 1,13,-1
 381 290 l 1,0,1
EndSplineSet
Validated: 1
EndChar

StartChar: hyphen
Encoding: 45 45 16
Width: 1183
GlyphClass: 2
Flags: W
HStem: 693 150<345 1193>
LayerCount: 2
Fore
SplineSet
1193 693 m 1,0,-1
 310 693 l 1,1,-1
 345 843 l 1,2,-1
 1228 843 l 1,3,-1
 1193 693 l 1,0,-1
EndSplineSet
Validated: 1
EndChar

StartChar: period
Encoding: 46 46 17
Width: 552
GlyphClass: 2
Flags: W
HStem: -20 255<223.25 377.449>
VStem: 170 259<31.2026 182.28>
LayerCount: 2
Fore
SplineSet
425 102 m 0,0,1
 413 52 413 52 368 16 c 128,-1,2
 323 -20 323 -20 270 -20 c 128,-1,3
 217 -20 217 -20 189 18 c 0,4,5
 170 44 170 44 170 76 c 0,6,7
 170 92 170 92 174 107 c 0,8,9
 189 163 189 163 230 197 c 0,10,11
 276 235 276 235 330 235 c 0,12,13
 385 235 385 235 411 198 c 0,14,15
 429 172 429 172 429 140 c 0,16,17
 429 119 429 119 425 102 c 0,0,1
EndSplineSet
Validated: 1
EndChar

StartChar: slash
Encoding: 47 47 18
Width: 1171
GlyphClass: 2
Flags: W
VStem: -32 176<-183 -7> 1374 176<1511 1687>
DStem2: -32 -183 144 -183 0.600957 0.799281<105.768 2339.6>
LayerCount: 2
Fore
SplineSet
1550 1687 m 1,0,-1
 144 -183 l 1,1,-1
 -32 -183 l 1,2,-1
 1374 1687 l 1,3,-1
 1550 1687 l 1,0,-1
EndSplineSet
Validated: 1
EndChar

StartChar: zero
Encoding: 48 48 19
Width: 1759
GlyphClass: 2
Flags: W
HStem: -20 123<615.264 1059.93> 1408 123<1048.28 1491.98>
VStem: 230 214<284.16 739.852> 1664 214<771.148 1224.35>
LayerCount: 2
Fore
SplineSet
783 -20 m 0,0,1
 464 -20 464 -20 314 185 c 0,2,3
 230 300 230 300 230 470 c 0,4,5
 230 560 230 560 254 668 c 0,6,7
 345 1063 345 1063 707 1327 c 0,8,9
 986 1531 986 1531 1324 1531 c 0,10,11
 1644 1531 1644 1531 1794 1326 c 0,12,13
 1878 1211 1878 1211 1878 1041 c 0,14,15
 1878 952 1878 952 1854 843 c 0,16,17
 1763 449 1763 449 1401 184 c 0,18,19
 1122 -20 1122 -20 783 -20 c 0,0,1
812 103 m 0,20,21
 1065 103 1065 103 1304 280 c 0,22,23
 1559 469 1559 469 1643 840 c 0,24,25
 1664 933 1664 933 1664 1015 c 0,26,27
 1664 1141 1664 1141 1612 1241 c 0,28,29
 1523 1408 1523 1408 1296 1408 c 0,30,31
 1044 1408 1044 1408 805 1231 c 0,32,33
 549 1041 549 1041 465 671 c 0,34,35
 444 578 444 578 444 497 c 0,36,37
 444 371 444 371 496 269 c 0,38,39
 583 103 583 103 812 103 c 0,20,21
EndSplineSet
Validated: 1
EndChar

StartChar: one
Encoding: 49 49 20
Width: 705
GlyphClass: 2
Flags: W
HStem: 0 21G<255 459.619> 1361 150<354 569>
VStem: 255 200<0 200>
DStem2: 255 0 455 0 0.224951 0.97437<44.9902 1396.75>
LayerCount: 2
Fore
SplineSet
255 0 m 1,0,-1
 569 1361 l 1,1,-1
 319 1361 l 1,2,-1
 354 1511 l 1,3,-1
 804 1511 l 1,4,-1
 455 0 l 1,5,-1
 255 0 l 1,0,-1
EndSplineSet
Validated: 1
EndChar

StartChar: two
Encoding: 50 50 21
Width: 1363
GlyphClass: 2
Flags: W
HStem: 0 150<329 1212> 1407 124<840.01 1164.3>
VStem: 1263 205<971.353 1304.97>
LayerCount: 2
Fore
SplineSet
161 0 m 1,0,1
 140 30 140 30 140 68 c 24,2,3
 140 185 140 185 257 262 c 0,4,5
 451 389 451 389 1033 776 c 0,6,7
 1215 897 1215 897 1251 1055 c 0,8,9
 1263 1108 1263 1108 1263 1155 c 0,10,11
 1263 1229 1263 1229 1231 1286 c 0,12,13
 1163 1407 1163 1407 1015 1407 c 0,14,15
 883 1407 883 1407 738 1300 c 0,16,17
 635 1224 635 1224 545 1084 c 1,18,-1
 410 1169 l 1,19,20
 530 1316 530 1316 677 1408 c 24,21,22
 874 1531 874 1531 1050 1531 c 0,23,24
 1293 1531 1293 1531 1399 1377 c 16,25,26
 1468 1277 1468 1277 1468 1156 c 0,27,28
 1468 1102 1468 1102 1454 1043 c 0,29,30
 1397 788 1397 788 1154 653 c 24,31,32
 621 358 621 358 329 150 c 1,33,-1
 1247 150 l 1,34,-1
 1212 0 l 1,35,-1
 161 0 l 1,0,1
EndSplineSet
Validated: 1
EndChar

StartChar: three
Encoding: 51 51 22
Width: 1376
GlyphClass: 2
Flags: W
HStem: -20 116<465.456 816.553> 906 128<859 1038.61> 1408 123<904.651 1143.99>
VStem: 169 203<192.596 305.873> 1159 211<471.184 829.833 1190.07 1381.37>
LayerCount: 2
Fore
SplineSet
169 301 m 1,0,1
 372 370 l 1,2,3
 379 96 379 96 614 96 c 0,4,5
 808 96 808 96 966 242 c 0,6,7
 1102 368 1102 368 1142 544 c 0,8,9
 1159 619 1159 619 1159 679 c 0,10,11
 1159 768 1159 768 1119 825 c 0,12,13
 1060 906 1060 906 829 906 c 1,14,-1
 859 1034 l 1,15,16
 993 1034 993 1034 1076 1103 c 0,17,18
 1141 1157 1141 1157 1165 1262 c 0,19,20
 1170 1284 1170 1284 1170 1303 c 0,21,22
 1170 1348 1170 1348 1140 1374 c 0,23,24
 1099 1408 1099 1408 1039 1408 c 0,25,26
 898 1408 898 1408 793 1247 c 1,27,-1
 674 1330 l 1,28,29
 875 1531 875 1531 1095 1531 c 0,30,31
 1235 1531 1235 1531 1312 1449 c 0,32,33
 1362 1396 1362 1396 1362 1325 c 0,34,35
 1362 1298 1362 1298 1355 1270 c 0,36,37
 1309 1087 1309 1087 1122 1004 c 1,38,39
 1266 969 1266 969 1326 858 c 16,40,41
 1370 777 1370 777 1370 680 c 0,42,43
 1370 629 1370 629 1357 568 c 0,44,45
 1301 328 1301 328 1056 148 c 0,46,47
 828 -20 828 -20 588 -20 c 0,48,49
 235 -20 235 -20 169 301 c 1,0,1
EndSplineSet
Validated: 1
EndChar

StartChar: four
Encoding: 52 52 23
Width: 1349
GlyphClass: 2
Flags: W
HStem: 0 21G<899 1103.62> 293 150<422 967> 1491 20G<1090 1448>
VStem: 899 200<0 200>
DStem2: 899 0 1099 0 0.224951 0.97437<44.9902 300.787 454.591 1400.87>
LayerCount: 2
Fore
SplineSet
899 0 m 1,0,-1
 967 293 l 1,1,-1
 148 293 l 1,2,3
 346 722 346 722 659 1052 c 0,4,5
 914 1321 914 1321 1266 1511 c 1,6,-1
 1448 1511 l 1,7,-1
 1099 0 l 1,8,-1
 899 0 l 1,0,-1
1001 443 m 1,9,-1
 1214 1365 l 1,10,11
 898 1156 898 1156 746 960 c 0,12,13
 544 700 544 700 422 443 c 1,14,-1
 1001 443 l 1,9,-1
EndSplineSet
Validated: 1
EndChar

StartChar: five
Encoding: 53 53 24
Width: 1376
GlyphClass: 2
Flags: W
HStem: -20 116<465.456 817.048> 914 117<725.904 1072.45> 1361 150<828 1403>
VStem: 169 203<192.596 305.873> 1159 212<474.255 829.941>
DStem2: 413 787 683 970 0.36406 0.931376<268.738 685.694>
LayerCount: 2
Fore
SplineSet
169 301 m 1,0,-1
 372 370 l 1,1,2
 379 96 379 96 614 96 c 0,3,4
 810 96 810 96 966 242 c 0,5,6
 1104 371 1104 371 1142 544 c 0,7,8
 1159 621 1159 621 1159 681 c 0,9,10
 1159 768 1159 768 1119 825 c 8,11,12
 1053 914 1053 914 920 914 c 0,13,14
 747 914 747 914 602 787 c 1,15,-1
 413 787 l 1,16,-1
 696 1511 l 1,17,-1
 1438 1511 l 1,18,-1
 1403 1361 l 1,19,-1
 828 1361 l 1,20,-1
 683 970 l 1,21,22
 825 1031 825 1031 967 1031 c 0,23,24
 1221 1031 1221 1031 1326 858 c 0,25,26
 1371 784 1371 784 1371 686 c 0,27,28
 1371 632 1371 632 1357 568 c 0,29,30
 1301 328 1301 328 1056 148 c 0,31,32
 828 -20 828 -20 588 -20 c 0,33,34
 235 -20 235 -20 169 301 c 1,0,-1
EndSplineSet
Validated: 1
EndChar

StartChar: six
Encoding: 54 54 25
Width: 1493
GlyphClass: 2
Flags: W
HStem: -20 120<575.158 934.433> 910 121<852.769 1196.88> 1407 124<1099.57 1458.91>
VStem: 267 203<206.363 561.858> 1279 209<476.952 827.844>
LayerCount: 2
Fore
SplineSet
1551 1512 m 1,0,-1
 1433 1398 l 1,1,2
 1382 1407 1382 1407 1335 1407 c 0,3,4
 1205 1407 1205 1407 1081 1355 c 0,5,6
 863 1263 863 1263 717 1096 c 24,7,8
 608 971 608 971 531 776 c 1,9,10
 799 1031 799 1031 1084 1031 c 0,11,12
 1313 1031 1313 1031 1422 892 c 0,13,14
 1488 808 1488 808 1488 687 c 0,15,16
 1488 630 1488 630 1473 564 c 0,17,18
 1433 388 1433 388 1259 218 c 0,19,20
 1015 -20 1015 -20 691 -20 c 0,21,22
 459 -20 459 -20 355 122 c 0,23,24
 267 242 267 242 267 416 c 0,25,26
 267 508 267 508 292 616 c 0,27,28
 371 958 371 958 606 1178 c 0,29,30
 809 1368 809 1368 1018 1458 c 0,31,32
 1188 1531 1188 1531 1377 1531 c 0,33,34
 1447 1531 1447 1531 1551 1512 c 1,0,-1
728 100 m 0,35,36
 939 100 939 100 1096 256 c 0,37,38
 1221 380 1221 380 1262 558 c 0,39,40
 1279 632 1279 632 1279 688 c 0,41,42
 1279 754 1279 754 1256 796 c 0,43,44
 1194 910 1194 910 1040 910 c 0,45,46
 858 910 858 910 689 777 c 0,47,48
 524 647 524 647 483 470 c 0,49,50
 470 414 470 414 470 364 c 0,51,52
 470 273 470 273 516 204 c 256,53,54
 588 100 588 100 728 100 c 0,35,36
EndSplineSet
Validated: 1
EndChar

StartChar: seven
Encoding: 55 55 26
Width: 1163
GlyphClass: 2
Flags: W
HStem: 0 21G<123 486> 1361 150<399 1139>
VStem: 123 201<0 201> 1139 223<1123.71 1361>
LayerCount: 2
Fore
SplineSet
123 0 m 1,0,1
 599 396 599 396 783 601 c 0,2,3
 1066 916 1066 916 1123 1178 c 16,4,5
 1139 1251 1139 1251 1139 1361 c 1,6,-1
 364 1361 l 1,7,-1
 399 1511 l 1,8,-1
 1341 1511 l 1,9,10
 1362 1449 1362 1449 1362 1372 c 0,11,12
 1362 1293 1362 1293 1340 1198 c 0,13,14
 1259 859 1259 859 903 509 c 0,15,16
 648 259 648 259 324 0 c 1,17,-1
 123 0 l 1,0,1
EndSplineSet
Validated: 1
EndChar

StartChar: eight
Encoding: 56 56 27
Width: 1344
GlyphClass: 2
Flags: W
HStem: -20 116<481.262 816.312> 902 131<813.163 1057.99> 1408 123<912.292 1164.55>
VStem: 188 201<184.317 533.83> 589 193<1066.85 1264> 1187 203<470.336 816.829> 1188 189<1163.98 1377.06>
LayerCount: 2
Fore
SplineSet
1113 1531 m 0,0,1
 1241 1531 1241 1531 1316 1455 c 0,2,3
 1377 1393 1377 1393 1377 1315 c 0,4,5
 1377 1290 1377 1290 1371 1263 c 0,6,7
 1333 1093 1333 1093 1154 997 c 1,8,9
 1299 945 1299 945 1360 834 c 0,10,11
 1390 779 1390 779 1390 697 c 0,12,13
 1390 629 1390 629 1370 545 c 0,14,15
 1321 341 1321 341 1124 183 c 0,16,17
 870 -20 870 -20 592 -20 c 0,18,19
 341 -20 341 -20 247 116 c 0,20,21
 188 201 188 201 188 318 c 0,22,23
 188 377 188 377 203 444 c 0,24,25
 244 626 244 626 417 787 c 0,26,27
 536 898 536 898 674 956 c 1,28,29
 589 1010 589 1010 589 1106 c 0,30,31
 589 1133 589 1133 596 1165 c 0,32,33
 635 1343 635 1343 838 1457 c 0,34,35
 969 1531 969 1531 1113 1531 c 0,0,1
1057 1408 m 0,36,37
 962 1408 962 1408 881 1341 c 0,38,39
 812 1284 812 1284 787 1178 c 0,40,41
 782 1157 782 1157 782 1138 c 0,42,43
 782 1093 782 1093 812 1066 c 0,44,45
 849 1033 849 1033 915 1033 c 0,46,47
 1017 1033 1017 1033 1096 1106 c 0,48,49
 1162 1167 1162 1167 1183 1262 c 0,50,51
 1188 1285 1188 1285 1188 1305 c 0,52,53
 1188 1348 1188 1348 1160 1378 c 0,54,55
 1129 1408 1129 1408 1057 1408 c 0,36,37
942 902 m 0,56,57
 776 902 776 902 625 791 c 0,58,59
 453 664 453 664 409 477 c 0,60,61
 389 391 389 391 389 326 c 0,62,63
 389 245 389 245 421 200 c 0,64,65
 495 96 495 96 634 96 c 0,66,67
 802 96 802 96 992 251 c 0,68,69
 1129 363 1129 363 1172 548 c 0,70,71
 1187 613 1187 613 1187 667 c 0,72,73
 1187 754 1187 754 1148 810 c 0,74,75
 1084 902 1084 902 942 902 c 0,56,57
EndSplineSet
Validated: 1
EndChar

StartChar: nine
Encoding: 57 57 28
Width: 1493
GlyphClass: 2
Flags: W
HStem: -20 124<382.091 741.429> 480 121<644.124 988.231> 1411 120<906.567 1265.84>
VStem: 353 209<683.156 1034.05> 1371 203<949.142 1304.64>
LayerCount: 2
Fore
SplineSet
290 -1 m 1,0,-1
 408 113 l 1,1,2
 459 104 459 104 506 104 c 0,3,4
 636 104 636 104 760 156 c 0,5,6
 978 248 978 248 1124 415 c 24,7,8
 1233 540 1233 540 1310 735 c 1,9,10
 1042 480 1042 480 757 480 c 0,11,12
 528 480 528 480 419 619 c 0,13,14
 353 703 353 703 353 824 c 0,15,16
 353 881 353 881 368 947 c 0,17,18
 408 1123 408 1123 582 1293 c 0,19,20
 826 1531 826 1531 1150 1531 c 0,21,22
 1382 1531 1382 1531 1486 1389 c 0,23,24
 1574 1269 1574 1269 1574 1095 c 0,25,26
 1574 1003 1574 1003 1549 895 c 0,27,28
 1470 553 1470 553 1235 333 c 0,29,30
 1032 143 1032 143 823 53 c 0,31,32
 653 -20 653 -20 464 -20 c 0,33,34
 394 -20 394 -20 290 -1 c 1,0,-1
1113 1411 m 0,35,36
 902 1411 902 1411 745 1255 c 0,37,38
 620 1131 620 1131 579 953 c 0,39,40
 562 879 562 879 562 823 c 0,41,42
 562 757 562 757 585 715 c 0,43,44
 647 601 647 601 801 601 c 0,45,46
 983 601 983 601 1152 734 c 0,47,48
 1317 864 1317 864 1358 1041 c 0,49,50
 1371 1097 1371 1097 1371 1147 c 0,51,52
 1371 1238 1371 1238 1325 1307 c 256,53,54
 1253 1411 1253 1411 1113 1411 c 0,35,36
EndSplineSet
Validated: 1
EndChar

StartChar: colon
Encoding: 58 58 29
Width: 552
GlyphClass: 2
Flags: W
HStem: -20 255<223.25 377.449> 636 255<374.25 528.449>
VStem: 170 259<31.2026 182.28> 321 259<687.203 838.28>
LayerCount: 2
Fore
SplineSet
576 758 m 0,0,1
 564 708 564 708 519 672 c 128,-1,2
 474 636 474 636 421 636 c 128,-1,3
 368 636 368 636 340 674 c 0,4,5
 321 700 321 700 321 732 c 0,6,7
 321 748 321 748 325 763 c 0,8,9
 340 819 340 819 381 853 c 0,10,11
 427 891 427 891 481 891 c 0,12,13
 536 891 536 891 562 854 c 0,14,15
 580 828 580 828 580 796 c 0,16,17
 580 775 580 775 576 758 c 0,0,1
425 102 m 0,18,19
 413 52 413 52 368 16 c 128,-1,20
 323 -20 323 -20 270 -20 c 128,-1,21
 217 -20 217 -20 189 18 c 0,22,23
 170 44 170 44 170 76 c 0,24,25
 170 92 170 92 174 107 c 0,26,27
 189 163 189 163 230 197 c 0,28,29
 276 235 276 235 330 235 c 0,30,31
 385 235 385 235 411 198 c 0,32,33
 429 172 429 172 429 140 c 0,34,35
 429 119 429 119 425 102 c 0,18,19
EndSplineSet
Validated: 1
EndChar

StartChar: semicolon
Encoding: 59 59 30
Width: 610
GlyphClass: 2
Flags: W
HStem: 637 255<408.25 562.449>
VStem: 271 192<-129.066 129.25> 355 259<688.203 839.28>
LayerCount: 2
Fore
SplineSet
381 290 m 1,0,1
 463 191 463 191 463 64 c 0,2,3
 463 15 463 15 451 -38 c 0,4,5
 404 -246 404 -246 159 -366 c 1,6,-1
 89 -265 l 1,7,8
 231 -194 231 -194 263 -50 c 0,9,10
 271 -14 271 -14 271 16 c 0,11,12
 271 108 271 108 194 156 c 1,13,-1
 381 290 l 1,0,1
610 759 m 0,14,15
 598 709 598 709 553 673 c 128,-1,16
 508 637 508 637 455 637 c 128,-1,17
 402 637 402 637 374 675 c 0,18,19
 355 701 355 701 355 733 c 0,20,21
 355 749 355 749 359 764 c 0,22,23
 374 820 374 820 415 854 c 0,24,25
 461 892 461 892 515 892 c 0,26,27
 570 892 570 892 596 855 c 0,28,29
 614 829 614 829 614 797 c 0,30,31
 614 776 614 776 610 759 c 0,14,15
EndSplineSet
Validated: 1
EndChar

StartChar: less
Encoding: 60 60 31
Width: 1206
GlyphClass: 2
Flags: W
DStem2: 486 776 306 676 0.81231 -0.583225<0 744.464> 350 865 486 776 0.8805 0.474046<77.5579 991.419>
LayerCount: 2
Fore
SplineSet
306 676 m 1,0,-1
 350 865 l 1,1,-1
 1327 1391 l 1,2,-1
 1287 1216 l 1,3,-1
 486 776 l 1,4,-1
 1088 338 l 1,5,-1
 1040 149 l 1,6,-1
 306 676 l 1,0,-1
EndSplineSet
Validated: 1
EndChar

StartChar: equal
Encoding: 61 61 32
Width: 1183
GlyphClass: 2
Flags: W
HStem: 551 150<312 1160> 839 150<378 1227>
LayerCount: 2
Fore
SplineSet
1227 839 m 1,0,-1
 344 839 l 1,1,-1
 378 989 l 1,2,-1
 1261 989 l 1,3,-1
 1227 839 l 1,0,-1
1160 551 m 1,4,-1
 277 551 l 1,5,-1
 312 701 l 1,6,-1
 1195 701 l 1,7,-1
 1160 551 l 1,4,-1
EndSplineSet
Validated: 1
EndChar

StartChar: greater
Encoding: 62 62 33
Width: 1206
GlyphClass: 2
Flags: W
DStem2: 274 325 234 150 0.8805 0.474046<0 913.861> 521 1392 473 1203 0.81231 -0.583225<71.2387 815.702>
LayerCount: 2
Fore
SplineSet
1255 865 m 1,0,-1
 1211 676 l 1,1,-1
 234 150 l 1,2,-1
 274 325 l 1,3,-1
 1075 765 l 1,4,-1
 473 1203 l 1,5,-1
 521 1392 l 1,6,-1
 1255 865 l 1,0,-1
EndSplineSet
Validated: 1
EndChar

StartChar: question
Encoding: 63 63 34
Width: 1372
GlyphClass: 2
Flags: W
HStem: -20 255<565.25 719.449> 1407 124<841.721 1185.65>
VStem: 512 259<31.2026 182.28> 579 144<289.08 444.804> 1279 200<985.387 1311.73>
LayerCount: 2
Fore
SplineSet
767 102 m 0,0,1
 755 52 755 52 710 16 c 128,-1,2
 665 -20 665 -20 612 -20 c 128,-1,3
 559 -20 559 -20 531 18 c 0,4,5
 512 44 512 44 512 76 c 0,6,7
 512 92 512 92 516 107 c 0,8,9
 531 163 531 163 572 197 c 0,10,11
 618 235 618 235 672 235 c 0,12,13
 727 235 727 235 753 198 c 0,14,15
 771 172 771 172 771 140 c 0,16,17
 771 119 771 119 767 102 c 0,0,1
420 1169 m 1,18,19
 520 1308 520 1308 701 1421 c 0,20,21
 877 1531 877 1531 1074 1531 c 0,22,23
 1302 1531 1302 1531 1412 1376 c 0,24,25
 1479 1282 1479 1282 1479 1165 c 0,26,27
 1479 1113 1479 1113 1466 1056 c 0,28,29
 1412 821 1412 821 1127 652 c 24,30,31
 1105 639 1105 639 778 452 c 0,32,33
 737 428 737 428 726 381 c 0,34,35
 723 368 723 368 723 357 c 0,36,37
 723 318 723 318 756 288 c 1,38,-1
 605 288 l 1,39,40
 579 327 579 327 579 371 c 0,41,42
 579 390 579 390 584 410 c 0,43,44
 601 479 601 479 706 553 c 0,45,46
 718 562 718 562 1061 788 c 0,47,48
 1227 898 1227 898 1269 1084 c 0,49,50
 1279 1128 1279 1128 1279 1168 c 0,51,52
 1279 1235 1279 1235 1249 1291 c 0,53,54
 1185 1407 1185 1407 1026 1407 c 0,55,56
 882 1407 882 1407 749 1303 c 0,57,58
 626 1207 626 1207 555 1084 c 1,59,-1
 420 1169 l 1,18,19
EndSplineSet
Validated: 1
EndChar

StartChar: at
Encoding: 64 64 35
Width: 1717
GlyphClass: 2
Flags: W
HStem: -410 123<568.263 992.816> -20 124<855.151 1149.47> 0 21G<1316 1520.65> 687 47<1256.66 1328.12> 996 124<998.432 1380.51>
VStem: 188 207<-109.516 339.943> 599 201<158.354 440.263> 1475 197<501.864 898.826>
DStem2: 1221.34 -410 1421.34 -410 0.224951 0.97437<465.775 596.175 749.123 1190.91>
LayerCount: 2
Fore
SplineSet
1516 0 m 1,0,-1
 1316 0 l 1,1,-1
 1355 171 l 1,2,3
 1257 72 1257 72 1180 34 c 0,4,5
 1070 -20 1070 -20 955 -20 c 0,6,7
 776 -20 776 -20 674 75 c 16,8,9
 599 145 599 145 599 257 c 0,10,11
 599 301 599 301 611 351 c 0,12,13
 650 527 650 527 845 645 c 24,14,15
 992 734 992 734 1151 734 c 0,16,17
 1337 734 1337 734 1435 687 c 1,18,19
 1335 682 1335 682 1211 654 c 0,20,21
 1052 618 1052 618 941 543 c 24,22,23
 838 474 838 474 809 346 c 0,24,25
 800 307 800 307 800 274 c 0,26,27
 800 201 800 201 844 158 c 0,28,29
 899 104 899 104 1009 104 c 0,30,31
 1120 104 1120 104 1257 228 c 24,32,33
 1400 357 1400 357 1446 556 c 0,34,35
 1475 682 1475 682 1475 756 c 0,36,37
 1475 793 1475 793 1468 817 c 256,38,39
 1416 996 1416 996 1222 996 c 0,40,41
 969 996 969 996 734 798 c 0,42,43
 491 593 491 593 420 294 c 0,44,45
 395 188 395 188 395 98 c 0,46,47
 396 -45 396 -45 458 -144 c 0,48,49
 548 -287 548 -287 777 -287 c 0,50,51
 979 -287 979 -287 1164 -144 c 1,52,-1
 1274 -233 l 1,53,54
 1027 -410 1027 -410 743 -410 c 0,55,56
 423 -410 423 -410 278 -213 c 0,57,58
 188 -91 188 -91 188 79 c 0,59,60
 188 163 188 163 210 260 c 0,61,62
 294 630 294 630 662 900 c 0,63,64
 962 1120 962 1120 1265 1120 c 0,65,66
 1498 1120 1498 1120 1614 964 c 0,67,68
 1672 886 1672 886 1672 756 c 0,69,70
 1672 671 1672 671 1647 564 c 2,71,-1
 1516 0 l 1,0,-1
EndSplineSet
Validated: 1
EndChar

StartChar: A
Encoding: 65 65 36
Width: 1537
GlyphClass: 2
Flags: W
HStem: 0 21G<5 188.075 1327.92 1532> 696 150<728 1159> 1491 20G<1006.57 1219.2>
VStem: 5 170<0 170> 1332 200<0 200>
DStem2: 5 0 175 0 0.557613 0.830101<94.7942 926.258 1105.42 1105.42> 1215 1511 1060 1348 0.205325 -0.978694<127.702 639.333 792.502 1502.83>
LayerCount: 2
Fore
SplineSet
5 0 m 1,0,-1
 1020 1511 l 1,1,-1
 1215 1511 l 1,2,-1
 1532 0 l 1,3,-1
 1332 0 l 1,4,-1
 1190 696 l 1,5,-1
 630 696 l 1,6,-1
 175 0 l 1,7,-1
 5 0 l 1,0,-1
728 846 m 1,8,-1
 1159 846 l 1,9,-1
 1060 1348 l 1,10,-1
 728 846 l 1,8,-1
EndSplineSet
Validated: 1
EndChar

StartChar: B
Encoding: 66 66 37
Width: 1452
GlyphClass: 2
Flags: W
HStem: -20 108<543.784 894.588> 0 21G<200 404.624> 1408 123<875.189 1122.49> 1491 20G<544.381 749>
VStem: 200 200<0 200> 1157 194<1184.91 1376.81> 1299 208<515.716 838.053>
DStem2: 195.383 -20 395.383 -20 0.224951 0.97437<65.5163 1369.25 1487 1571.31>
LayerCount: 2
Fore
SplineSet
200 0 m 1,0,-1
 549 1511 l 1,1,-1
 749 1511 l 1,2,-1
 720 1385 l 1,3,4
 769 1430 769 1430 820 1459 c 0,5,6
 946 1531 946 1531 1083 1531 c 0,7,8
 1211 1531 1211 1531 1282 1471 c 0,9,10
 1351 1413 1351 1413 1351 1330 c 0,11,12
 1351 1305 1351 1305 1345 1278 c 0,13,14
 1316 1149 1316 1149 1176 1046 c 1,15,16
 1366 1046 1366 1046 1453 912 c 0,17,18
 1507 829 1507 829 1507 724 c 0,19,20
 1507 670 1507 670 1493 612 c 0,21,22
 1439 387 1439 387 1248 207 c 0,23,24
 1007 -20 1007 -20 698 -20 c 0,25,26
 517 -20 517 -20 478 130 c 1,27,28
 603 88 603 88 687 88 c 24,29,30
 893 88 893 88 1085 252 c 0,31,32
 1237 382 1237 382 1286 591 c 0,33,34
 1299 646 1299 646 1299 693 c 0,35,36
 1299 778 1299 778 1257 836 c 0,37,38
 1191 927 1191 927 1059 927 c 0,39,40
 883 927 883 927 708 883 c 1,41,42
 879 956 879 956 1008 1050 c 0,43,44
 1127 1137 1127 1137 1153 1254 c 0,45,46
 1157 1272 1157 1272 1157 1289 c 0,47,48
 1157 1340 1157 1340 1117 1378 c 0,49,50
 1085 1408 1085 1408 1001 1408 c 0,51,52
 898 1408 898 1408 793 1317 c 24,53,54
 682 1221 682 1221 652 1090 c 2,55,-1
 400 0 l 1,56,-1
 200 0 l 1,0,-1
EndSplineSet
Validated: 1
EndChar

StartChar: C
Encoding: 67 67 38
Width: 1579
GlyphClass: 2
Flags: W
HStem: -20 123<615.763 1058.97> 1408 123<1048.53 1493.94>
VStem: 230 214<286.649 739.937>
LayerCount: 2
Fore
SplineSet
1566 327 m 1,0,1
 1500 257 1500 257 1400 184 c 0,2,3
 1121 -20 1121 -20 783 -20 c 0,4,5
 464 -20 464 -20 314 185 c 0,6,7
 230 300 230 300 230 470 c 0,8,9
 230 561 230 561 254 668 c 0,10,11
 345 1063 345 1063 707 1327 c 0,12,13
 986 1531 986 1531 1324 1531 c 0,14,15
 1651 1531 1651 1531 1802 1314 c 9,16,-1
 1622 1220 l 17,17,18
 1539 1408 1539 1408 1296 1408 c 0,19,20
 1045 1408 1045 1408 805 1231 c 0,21,22
 549 1042 549 1042 465 671 c 0,23,24
 444 578 444 578 444 496 c 0,25,26
 444 370 444 370 496 270 c 0,27,28
 585 103 585 103 812 103 c 0,29,30
 1063 103 1063 103 1303 280 c 0,31,32
 1387 342 1387 342 1453 425 c 1,33,-1
 1566 327 l 1,0,1
EndSplineSet
Validated: 1
EndChar

StartChar: D
Encoding: 68 68 39
Width: 1642
GlyphClass: 2
Flags: W
HStem: -20 108<543.178 915.021> 0 21G<200 404.621> 1407 124<946.227 1382.94> 1491 20G<544.381 749>
VStem: 200 200<0 200> 1560 201<772.006 1226.46>
DStem2: 195.383 -20 395.383 -20 0.224951 0.97437<65.5163 1309.44 1458.15 1571.31>
LayerCount: 2
Fore
SplineSet
200 0 m 1,0,-1
 549 1511 l 1,1,-1
 749 1511 l 1,2,-1
 713 1357 l 1,3,4
 793 1423 793 1423 865 1455 c 0,5,6
 1036 1531 1036 1531 1227 1531 c 0,7,8
 1537 1531 1537 1531 1678 1324 c 0,9,10
 1761 1202 1761 1202 1761 1035 c 0,11,12
 1761 945 1761 945 1737 843 c 0,13,14
 1656 501 1656 501 1333 239 c 0,15,16
 1012 -20 1012 -20 698 -20 c 0,17,18
 517 -20 517 -20 478 130 c 1,19,20
 600 88 600 88 687 88 c 0,21,22
 941 88 941 88 1186 294 c 0,23,24
 1463 527 1463 527 1537 843 c 0,25,26
 1560 941 1560 941 1560 1025 c 0,27,28
 1560 1149 1560 1149 1510 1238 c 0,29,30
 1417 1407 1417 1407 1180 1407 c 0,31,32
 993 1407 993 1407 865 1326 c 0,33,34
 679 1208 679 1208 638 1030 c 2,35,-1
 400 0 l 1,36,-1
 200 0 l 1,0,-1
EndSplineSet
Validated: 1
EndChar

StartChar: E
Encoding: 69 69 40
Width: 1579
GlyphClass: 2
Flags: W
HStem: -20 123<615.763 1059.71> 696 150<518 1278> 1408 123<1048.03 1493.94>
VStem: 230 216<282.681 692.563>
LayerCount: 2
Fore
SplineSet
1566 327 m 1,0,1
 1498 256 1498 256 1400 184 c 0,2,3
 1123 -20 1123 -20 783 -20 c 0,4,5
 464 -20 464 -20 314 185 c 0,6,7
 230 300 230 300 230 470 c 0,8,9
 230 559 230 559 254 668 c 0,10,11
 345 1063 345 1063 707 1327 c 0,12,13
 986 1531 986 1531 1324 1531 c 0,14,15
 1651 1531 1651 1531 1802 1314 c 1,16,-1
 1622 1220 l 1,17,18
 1539 1408 1539 1408 1296 1408 c 0,19,20
 1043 1408 1043 1408 805 1231 c 0,21,22
 614 1089 614 1089 518 846 c 1,23,-1
 1312 846 l 1,24,-1
 1278 696 l 1,25,-1
 471 696 l 1,26,27
 446 586 446 586 446 494 c 0,28,29
 446 366 446 366 496 270 c 0,30,31
 585 103 585 103 812 103 c 0,32,33
 1064 103 1064 103 1303 280 c 0,34,35
 1388 343 1388 343 1453 425 c 1,36,-1
 1566 327 l 1,0,1
EndSplineSet
Validated: 1
EndChar

StartChar: F
Encoding: 70 70 41
Width: 1333
GlyphClass: 2
Flags: W
HStem: 0 21G<200 404.626> 696 150<595 1131> 1405 126<967.802 1304.34> 1491 20G<544.381 749>
VStem: 200 200<0 200>
DStem2: 200 0 400 0 0.224951 0.97437<44.9902 759.369 913.173 1256.55 1412.14 1550.78>
LayerCount: 2
Fore
SplineSet
200 0 m 1,0,-1
 549 1511 l 1,1,-1
 749 1511 l 1,2,-1
 708 1332 l 1,3,4
 812 1420 812 1420 939 1475 c 0,5,6
 1069 1531 1069 1531 1200 1531 c 0,7,8
 1334 1531 1334 1531 1438 1464 c 0,9,10
 1533 1403 1533 1403 1582 1294 c 1,11,-1
 1397 1197 l 1,12,13
 1383 1289 1383 1289 1324 1344 c 0,14,15
 1259 1405 1259 1405 1145 1405 c 0,16,17
 994 1405 994 1405 850 1305 c 0,18,19
 673 1182 673 1182 619 948 c 2,20,-1
 595 846 l 1,21,-1
 1165 846 l 1,22,-1
 1131 696 l 1,23,-1
 561 696 l 1,24,-1
 400 0 l 1,25,-1
 200 0 l 1,0,-1
EndSplineSet
Validated: 1
EndChar

StartChar: G
Encoding: 71 71 42
Width: 1759
GlyphClass: 2
Flags: W
HStem: -20 123<615.763 1059.71> 696 150<1210 1601> 1408 123<1048.28 1493.69>
VStem: 230 214<286.649 739.852>
LayerCount: 2
Fore
SplineSet
1854 846 m 1,0,1
 1763 450 1763 450 1400 184 c 0,2,3
 1122 -20 1122 -20 783 -20 c 0,4,5
 464 -20 464 -20 314 185 c 0,6,7
 230 300 230 300 230 470 c 0,8,9
 230 561 230 561 254 668 c 0,10,11
 345 1063 345 1063 707 1327 c 0,12,13
 986 1531 986 1531 1324 1531 c 0,14,15
 1651 1531 1651 1531 1802 1314 c 9,16,-1
 1622 1220 l 17,17,18
 1538 1408 1538 1408 1296 1408 c 0,19,20
 1044 1408 1044 1408 805 1231 c 0,21,22
 549 1041 549 1041 465 671 c 0,23,24
 444 578 444 578 444 496 c 0,25,26
 444 370 444 370 496 270 c 0,27,28
 585 103 585 103 812 103 c 0,29,30
 1065 103 1065 103 1303 280 c 0,31,32
 1505 430 1505 430 1601 696 c 1,33,-1
 1176 696 l 1,34,-1
 1210 846 l 1,35,-1
 1854 846 l 1,0,1
EndSplineSet
Validated: 1
EndChar

StartChar: H
Encoding: 72 72 43
Width: 1572
GlyphClass: 2
Flags: W
HStem: 0 21G<200 404.626 1172 1376.62> 696 150<595 1333> 1491 20G<544.381 749 1516.37 1721>
VStem: 200 200<0 200> 549 200<1311 1511> 1172 200<0 200> 1521 200<1311 1511>
DStem2: 200 0 400 0 0.224951 0.97437<44.9902 759.369 913.173 1550.78> 1172 0 1372 0 0.224951 0.97437<44.9902 714.379 868.183 1550.78>
LayerCount: 2
Fore
SplineSet
200 0 m 1,0,-1
 549 1511 l 1,1,-1
 749 1511 l 1,2,-1
 595 846 l 1,3,-1
 1367 846 l 1,4,-1
 1521 1511 l 1,5,-1
 1721 1511 l 1,6,-1
 1372 0 l 1,7,-1
 1172 0 l 1,8,-1
 1333 696 l 1,9,-1
 561 696 l 1,10,-1
 400 0 l 1,11,-1
 200 0 l 1,0,-1
EndSplineSet
Validated: 1
EndChar

StartChar: I
Encoding: 73 73 44
Width: 600
GlyphClass: 2
Flags: W
HStem: 0 21G<200 404.619> 1491 20G<544.381 749>
VStem: 200 200<0 200> 549 200<1311 1511>
DStem2: 200 0 400 0 0.224951 0.97437<44.9902 1550.78>
LayerCount: 2
Fore
SplineSet
200 0 m 1,0,-1
 549 1511 l 1,1,-1
 749 1511 l 1,2,-1
 400 0 l 1,3,-1
 200 0 l 1,0,-1
EndSplineSet
Validated: 1
EndChar

StartChar: J
Encoding: 74 74 45
Width: 1219
GlyphClass: 2
Flags: W
HStem: -20 123<262.365 592.207> 1361 150<728 1132>
DStem2: 814.322 -20 1014.39 -20 0.224951 0.97437<479.882 1417.07>
LayerCount: 2
Fore
SplineSet
47 119 m 1,0,-1
 199 227 l 1,1,2
 253 103 253 103 422 103 c 0,3,4
 566 103 566 103 742 241 c 0,5,6
 904 368 904 368 960 611 c 2,7,-1
 1132 1361 l 1,8,-1
 693 1361 l 1,9,-1
 728 1511 l 1,10,-1
 1367 1511 l 1,11,-1
 1173 667 l 2,12,13
 1105 371 1105 371 829 143 c 0,14,15
 632 -20 632 -20 381 -20 c 0,16,17
 182 -20 182 -20 47 119 c 1,0,-1
EndSplineSet
Validated: 1
EndChar

StartChar: K
Encoding: 75 75 46
Width: 1497
GlyphClass: 2
Flags: W
HStem: 0 21G<200 404.602 1170.18 1492> 1491 20G<544.381 749 1383 1593>
VStem: 200 200<0 200> 549 200<1311 1511> 1194 298<0 298> 1391 206<1147.83 1511>
DStem2: 200 0 400 0 0.224951 0.97437<44.9902 407.647 529.413 1550.78> 934 465 733 387 0.768221 -0.640184<0 497.423>
LayerCount: 2
Fore
SplineSet
200 0 m 1,0,-1
 549 1511 l 1,1,-1
 749 1511 l 1,2,-1
 509 472 l 1,3,4
 651 482 651 482 789 537 c 0,5,6
 1036 635 1036 635 1171 794 c 0,7,8
 1311 958 1311 958 1368 1206 c 16,9,10
 1391 1306 1391 1306 1391 1400 c 0,11,12
 1391 1456 1391 1456 1383 1511 c 1,13,-1
 1589 1511 l 1,14,15
 1597 1469 1597 1469 1597 1421 c 0,16,17
 1597 1324 1597 1324 1569 1208 c 0,18,19
 1507 942 1507 942 1300 720 c 0,20,21
 1158 568 1158 568 934 465 c 1,22,-1
 1492 0 l 1,23,-1
 1194 0 l 1,24,-1
 733 387 l 1,25,26
 624 353 624 353 478 339 c 1,27,-1
 400 0 l 1,28,-1
 200 0 l 1,0,-1
EndSplineSet
Validated: 1
EndChar

StartChar: L
Encoding: 76 76 47
Width: 1048
GlyphClass: 2
Flags: W
HStem: 0 150<435 1028> 1491 20G<544.381 749>
VStem: 549 200<1311 1511>
DStem2: 200 0 400.37 0 0.224951 0.97437<199.019 1550.78>
LayerCount: 2
Fore
SplineSet
200 0 m 1,0,-1
 549 1511 l 1,1,-1
 749 1511 l 1,2,-1
 435 150 l 1,3,-1
 1063 150 l 1,4,-1
 1028 0 l 1,5,-1
 200 0 l 1,0,-1
EndSplineSet
Validated: 1
EndChar

StartChar: M
Encoding: 77 77 48
Width: 2472
GlyphClass: 2
Flags: W
HStem: 0 21G<200 404.619 1136 1340.62 2072 2276.62> 1407 124<990.944 1330.28 1922.5 2263.81> 1491 20G<544.381 749>
VStem: 200 200<0 200> 1136 200<0 200> 2072 200<0 200> 2339 203<982.359 1333.53>
DStem2: 200 0 400 0 0.224951 0.97437<44.9902 1242.09 1413.11 1550.78> 1136 0 1336 0 0.224951 0.97437<44.9902 1228.91> 2072 0 2272 0 0.224951 0.97437<44.9902 1228.91>
LayerCount: 2
Fore
SplineSet
200 0 m 1,0,-1
 549 1511 l 1,1,-1
 749 1511 l 1,2,-1
 708 1333 l 1,3,4
 813 1420 813 1420 958 1475 c 0,5,6
 1104 1531 1104 1531 1241 1531 c 0,7,8
 1443 1531 1443 1531 1547 1408 c 0,9,10
 1586 1362 1586 1362 1599 1299 c 1,11,12
 1737 1406 1737 1406 1894 1475 c 0,13,14
 2022 1531 2022 1531 2177 1531 c 0,15,16
 2381 1531 2381 1531 2483 1408 c 0,17,18
 2542 1338 2542 1338 2542 1226 c 0,19,20
 2542 1170 2542 1170 2527 1104 c 2,21,-1
 2272 0 l 1,22,-1
 2072 0 l 1,23,-1
 2326 1102 l 2,24,25
 2339 1156 2339 1156 2339 1201 c 0,26,27
 2339 1273 2339 1273 2305 1321 c 0,28,29
 2243 1407 2243 1407 2132 1407 c 0,30,31
 1942 1407 1942 1407 1783 1292 c 0,32,33
 1605 1163 1605 1163 1554 944 c 2,34,-1
 1336 0 l 1,35,-1
 1136 0 l 1,36,-1
 1390 1102 l 2,37,38
 1403 1156 1403 1156 1403 1201 c 0,39,40
 1403 1274 1403 1274 1369 1321 c 0,41,42
 1307 1407 1307 1407 1196 1407 c 0,43,44
 1006 1407 1006 1407 847 1292 c 0,45,46
 669 1163 669 1163 618 944 c 2,47,-1
 400 0 l 1,48,-1
 200 0 l 1,0,-1
EndSplineSet
Validated: 1
EndChar

StartChar: N
Encoding: 78 78 49
Width: 1571
GlyphClass: 2
Flags: W
HStem: 0 21G<200 404.619 1171 1375.62> 1407 124<988.447 1355.94> 1491 20G<544.381 749>
VStem: 200 200<0 200> 1171 200<0 200> 1436 203<1044.94 1327.97>
DStem2: 200 0 400 0 0.224951 0.97437<44.9902 1243.06 1413.11 1550.78> 1171 0 1371 0 0.224951 0.97437<44.9902 1218.84>
LayerCount: 2
Fore
SplineSet
200 0 m 1,0,-1
 549 1511 l 1,1,-1
 749 1511 l 1,2,-1
 708 1333 l 1,3,4
 810 1417 810 1417 958 1475 c 0,5,6
 1101 1531 1101 1531 1241 1531 c 0,7,8
 1474 1531 1474 1531 1573 1409 c 16,9,10
 1639 1328 1639 1328 1639 1213 c 0,11,12
 1639 1162 1639 1162 1626 1104 c 2,13,-1
 1371 0 l 1,14,-1
 1171 0 l 1,15,-1
 1425 1102 l 2,16,17
 1436 1150 1436 1150 1436 1191 c 0,18,19
 1436 1266 1436 1266 1398 1320 c 0,20,21
 1335 1407 1335 1407 1196 1407 c 0,22,23
 1008 1407 1008 1407 847 1292 c 0,24,25
 669 1165 669 1165 618 944 c 2,26,-1
 400 0 l 1,27,-1
 200 0 l 1,0,-1
EndSplineSet
Validated: 1
EndChar

StartChar: O
Encoding: 79 79 50
Width: 1759
GlyphClass: 2
Flags: W
HStem: -20 123<615.264 1059.93> 1408 123<1048.28 1491.98>
VStem: 230 214<284.16 739.852> 1664 214<771.148 1224.35>
LayerCount: 2
Fore
SplineSet
783 -20 m 0,0,1
 464 -20 464 -20 314 185 c 0,2,3
 230 300 230 300 230 470 c 0,4,5
 230 560 230 560 254 668 c 0,6,7
 345 1063 345 1063 707 1327 c 0,8,9
 986 1531 986 1531 1324 1531 c 0,10,11
 1644 1531 1644 1531 1794 1326 c 0,12,13
 1878 1211 1878 1211 1878 1041 c 0,14,15
 1878 952 1878 952 1854 843 c 0,16,17
 1763 449 1763 449 1401 184 c 0,18,19
 1122 -20 1122 -20 783 -20 c 0,0,1
812 103 m 0,20,21
 1065 103 1065 103 1304 280 c 0,22,23
 1559 469 1559 469 1643 840 c 0,24,25
 1664 933 1664 933 1664 1015 c 0,26,27
 1664 1141 1664 1141 1612 1241 c 0,28,29
 1523 1408 1523 1408 1296 1408 c 0,30,31
 1044 1408 1044 1408 805 1231 c 0,32,33
 549 1041 549 1041 465 671 c 0,34,35
 444 578 444 578 444 497 c 0,36,37
 444 371 444 371 496 269 c 0,38,39
 583 103 583 103 812 103 c 0,20,21
EndSplineSet
Validated: 1
EndChar

StartChar: P
Encoding: 80 80 51
Width: 1450
GlyphClass: 2
Flags: W
HStem: 0 21G<200 404.619> 349 108<634.677 995.59> 1407 124<972.407 1308.96> 1491 20G<544.381 749>
VStem: 200 200<0 200> 1393 212<939.705 1321.56>
DStem2: 200 0 400 0 0.224951 0.97437<44.9902 1243.31 1412.14 1550.78>
LayerCount: 2
Fore
SplineSet
200 0 m 1,0,-1
 549 1511 l 1,1,-1
 749 1511 l 1,2,-1
 708 1332 l 1,3,4
 814 1423 814 1423 939 1475 c 0,5,6
 1074 1531 1074 1531 1206 1531 c 0,7,8
 1422 1531 1422 1531 1541 1373 c 16,9,10
 1605 1288 1605 1288 1605 1166 c 0,11,12
 1605 1104 1605 1104 1588 1033 c 0,13,14
 1512 698 1512 698 1218 492 c 0,15,16
 1015 349 1015 349 808 349 c 0,17,18
 603 349 603 349 563 499 c 1,19,20
 689 457 689 457 797 457 c 0,21,22
 979 457 979 457 1128 588 c 0,23,24
 1314 752 1314 752 1375 1019 c 0,25,26
 1393 1098 1393 1098 1393 1161 c 0,27,28
 1393 1234 1393 1234 1369 1286 c 256,29,30
 1313 1407 1313 1407 1157 1407 c 0,31,32
 1012 1407 1012 1407 845 1290 c 0,33,34
 669 1167 669 1167 618 944 c 2,35,-1
 400 0 l 1,36,-1
 200 0 l 1,0,-1
EndSplineSet
Validated: 1
EndChar

StartChar: Q
Encoding: 81 81 52
Width: 1766
GlyphClass: 2
Flags: W
HStem: -20 123<615.264 1061.21> 0 21G<1426.91 1738> 1408 123<1048.28 1491.98>
VStem: 230 214<284.16 739.852> 839 288<240 528> 1664 214<768.062 1224.35>
DStem2: 1127 528 839 528 0.756628 -0.653846<0 263.465 448.074 589.621>
LayerCount: 2
Fore
SplineSet
1738 0 m 1,0,-1
 1450 0 l 1,1,-1
 1308 123 l 1,2,3
 1066 -20 1066 -20 783 -20 c 0,4,5
 464 -20 464 -20 314 185 c 0,6,7
 230 300 230 300 230 470 c 0,8,9
 230 560 230 560 254 668 c 0,10,11
 345 1063 345 1063 707 1327 c 0,12,13
 986 1531 986 1531 1324 1531 c 0,14,15
 1644 1531 1644 1531 1794 1326 c 0,16,17
 1878 1211 1878 1211 1878 1041 c 0,18,19
 1878 952 1878 952 1854 843 c 0,20,21
 1772 486 1772 486 1466 235 c 1,22,-1
 1738 0 l 1,0,-1
1361 326 m 1,23,24
 1569 512 1569 512 1643 840 c 0,25,26
 1664 933 1664 933 1664 1015 c 0,27,28
 1664 1141 1664 1141 1612 1241 c 0,29,30
 1523 1408 1523 1408 1296 1408 c 0,31,32
 1044 1408 1044 1408 805 1231 c 0,33,34
 549 1041 549 1041 465 671 c 0,35,36
 444 578 444 578 444 497 c 0,37,38
 444 371 444 371 496 269 c 0,39,40
 583 103 583 103 812 103 c 0,41,42
 1012 103 1012 103 1203 213 c 1,43,-1
 839 528 l 1,44,-1
 1127 528 l 1,45,-1
 1361 326 l 1,23,24
EndSplineSet
Validated: 1
EndChar

StartChar: R
Encoding: 82 82 53
Width: 1525
GlyphClass: 2
Flags: W
HStem: 0 21G<200 404.619 1163.19 1475> 1407 124<972.407 1309.53> 1491 20G<544.381 749>
VStem: 200 200<0 200> 1187 288<0 288> 1393 211<939.474 1321.32>
DStem2: 200 0 400 0 0.224951 0.97437<44.9902 1243.31 1412.14 1550.78> 1013 386 1187 0 0.765679 -0.643222<0 381.512>
LayerCount: 2
Fore
SplineSet
200 0 m 1,0,-1
 549 1511 l 1,1,-1
 749 1511 l 1,2,-1
 708 1332 l 1,3,4
 814 1423 814 1423 939 1475 c 0,5,6
 1074 1531 1074 1531 1206 1531 c 0,7,8
 1425 1531 1425 1531 1541 1373 c 0,9,10
 1604 1287 1604 1287 1604 1165 c 0,11,12
 1604 1104 1604 1104 1588 1033 c 0,13,14
 1512 695 1512 695 1218 492 c 0,15,16
 1121 425 1121 425 1013 386 c 1,17,-1
 1475 0 l 1,18,-1
 1187 0 l 1,19,-1
 593 499 l 1,20,21
 719 457 719 457 797 457 c 0,22,23
 980 457 980 457 1128 588 c 0,24,25
 1314 753 1314 753 1375 1019 c 0,26,27
 1393 1098 1393 1098 1393 1161 c 0,28,29
 1393 1234 1393 1234 1369 1286 c 8,30,31
 1313 1407 1313 1407 1157 1407 c 0,32,33
 1012 1407 1012 1407 845 1290 c 24,34,35
 669 1167 669 1167 618 944 c 2,36,-1
 400 0 l 1,37,-1
 200 0 l 1,0,-1
EndSplineSet
Validated: 1
EndChar

StartChar: S
Encoding: 83 83 54
Width: 1511
GlyphClass: 2
Flags: W
HStem: -20 123<485.408 889.211> 1407 124<966.028 1286.24>
VStem: 541 204<1002.66 1184.34> 1347 215<511.669 717.151>
DStem2: 840 984 766 802 0.991071 -0.133337<-89.9346 530.142>
LayerCount: 2
Fore
SplineSet
141 263 m 1,0,-1
 318 350 l 1,1,2
 413 103 413 103 670 103 c 0,3,4
 884 103 884 103 1102 270 c 24,5,6
 1306 426 1306 426 1341 584 c 0,7,8
 1347 611 1347 611 1347 632 c 0,9,10
 1347 718 1347 718 1257 732 c 0,11,-1
 766 802 l 0,12,13
 541 836 541 836 541 1008 c 0,14,15
 541 1042 541 1042 550 1083 c 0,16,17
 589 1262 589 1262 767 1388 c 0,18,19
 968 1531 968 1531 1190 1531 c 0,20,21
 1366 1531 1366 1531 1514 1391 c 1,22,-1
 1355 1290 l 1,23,24
 1278 1407 1278 1407 1141 1407 c 0,25,26
 1011 1407 1011 1407 879 1311 c 0,27,28
 767 1229 767 1229 749 1130 c 0,29,30
 745 1108 745 1108 745 1089 c 0,31,32
 745 998 745 998 840 984 c 0,33,-1
 1338 917 l 0,34,35
 1562 875 1562 875 1562 695 c 0,36,37
 1562 657 1562 657 1552 610 c 0,38,39
 1495 369 1495 369 1190 157 c 0,40,41
 935 -20 935 -20 628 -20 c 0,42,43
 289 -20 289 -20 141 263 c 1,0,-1
EndSplineSet
Validated: 1
EndChar

StartChar: T
Encoding: 84 84 55
Width: 1160
GlyphClass: 2
Flags: W
HStem: 0 21G<480 684.614> 1361 150<369 794 994 1454>
VStem: 480 200<0 200>
DStem2: 480 0 680 0 0.224951 0.97437<44.9902 1396.75>
LayerCount: 2
Fore
SplineSet
480 0 m 1,0,-1
 794 1361 l 1,1,-1
 334 1361 l 1,2,-1
 369 1511 l 1,3,-1
 1489 1511 l 1,4,-1
 1454 1361 l 1,5,-1
 994 1361 l 1,6,-1
 680 0 l 1,7,-1
 480 0 l 1,0,-1
EndSplineSet
Validated: 1
EndChar

StartChar: U
Encoding: 85 85 56
Width: 1571
GlyphClass: 2
Flags: W
HStem: -20 124<563.394 931.547> 0 21G<1171 1375.62> 1491 20G<544.38 749 1515.38 1720>
VStem: 281 202<185.906 466.056> 549 200<1311 1511> 1520 200<1311 1511>
DStem2: 195.419 -20 394.958 -20 0.224951 0.97437<399.146 1571.3> 1166.38 -20 1366.38 -20 0.224951 0.97437<65.5163 203.187 373.239 1571.31>
LayerCount: 2
Fore
SplineSet
1371 0 m 1,0,-1
 1171 0 l 1,1,-1
 1212 178 l 1,2,3
 1108 93 1108 93 962 36 c 0,4,5
 819 -20 819 -20 678 -20 c 0,6,7
 445 -20 445 -20 347 102 c 16,8,9
 281 184 281 184 281 298 c 0,10,11
 281 349 281 349 294 407 c 2,12,-1
 549 1511 l 1,13,-1
 749 1511 l 1,14,-1
 494 409 l 2,15,16
 483 362 483 362 483 322 c 0,17,18
 483 245 483 245 522 191 c 0,19,20
 584 104 584 104 724 104 c 0,21,22
 912 104 912 104 1073 219 c 0,23,24
 1251 346 1251 346 1302 567 c 2,25,-1
 1520 1511 l 1,26,-1
 1720 1511 l 1,27,-1
 1371 0 l 1,0,-1
EndSplineSet
Validated: 1
EndChar

StartChar: V
Encoding: 86 86 57
Width: 1537
GlyphClass: 2
Flags: W
HStem: 0 21G<666.804 879.435> 1491 20G<354 558.219 1697.6 1881>
VStem: 354 200<1311 1511> 1711 170<1341 1511>
DStem2: 554 1511 354 1511 0.205325 -0.978694<0 1341.9> 831 198 866 0 0.557613 0.830101<0 1580.62>
LayerCount: 2
Fore
SplineSet
671 0 m 1,0,-1
 354 1511 l 1,1,-1
 554 1511 l 1,2,-1
 831 198 l 1,3,-1
 1711 1511 l 1,4,-1
 1881 1511 l 1,5,-1
 866 0 l 1,6,-1
 671 0 l 1,0,-1
EndSplineSet
Validated: 1
EndChar

StartChar: W
Encoding: 87 87 58
Width: 2510
GlyphClass: 2
Flags: W
HStem: -20 124<574.564 902.42 1507.18 1863.96> 1491 20G<544.38 749 1480.39 1685 2149 2475.5>
VStem: 280 203<189.421 528.641> 549 200<1311 1511> 1485 200<1311 1511> 2417 206<752.221 1232.44>
DStem2: 195.419 -20 394.958 -20 0.224951 0.97437<399.146 1571.3> 1131.79 -20 1330.96 -20 0.224951 0.97437<389.187 1571.22>
LayerCount: 2
Fore
SplineSet
549 1511 m 1,0,-1
 749 1511 l 1,1,-1
 494 409 l 2,2,3
 483 362 483 362 483 322 c 0,4,5
 483 247 483 247 521 198 c 0,6,7
 592 104 592 104 736 104 c 0,8,9
 863 104 863 104 1024 211 c 24,10,11
 1214 337 1214 337 1262 544 c 2,12,-1
 1485 1511 l 1,13,-1
 1685 1511 l 1,14,-1
 1430 409 l 2,15,16
 1418 355 1418 355 1418 312 c 0,17,18
 1418 221 1418 221 1472 174 c 0,19,20
 1554 104 1554 104 1672 104 c 0,21,22
 1851 104 1851 104 2037 258 c 0,23,24
 2329 500 2329 500 2399 821 c 0,25,26
 2417 904 2417 904 2417 985 c 0,27,28
 2417 1105 2417 1105 2376 1224 c 8,29,30
 2323 1374 2323 1374 2149 1511 c 1,31,-1
 2421 1511 l 1,32,33
 2530 1410 2530 1410 2578 1275 c 0,34,35
 2623 1149 2623 1149 2623 1017 c 0,36,37
 2623 924 2623 924 2601 827 c 0,38,39
 2510 425 2510 425 2107 147 c 0,40,41
 1865 -20 1865 -20 1618 -20 c 0,42,43
 1458 -20 1458 -20 1366 39 c 24,44,45
 1272 99 1272 99 1229 222 c 1,46,47
 1162 153 1162 153 1026 80 c 0,48,49
 840 -20 840 -20 682 -20 c 0,50,51
 457 -20 457 -20 346 103 c 16,52,53
 280 176 280 176 280 291 c 0,54,55
 280 344 280 344 294 407 c 2,56,-1
 549 1511 l 1,0,-1
EndSplineSet
Validated: 1
EndChar

StartChar: X
Encoding: 88 88 59
Width: 1381
GlyphClass: 2
Flags: W
HStem: 0 21G<5 222.162 1140.5 1376> 1491 20G<356 591.518 1510.77 1725>
VStem: 5 197<0 197> 356 225<1286 1511> 1151 225<0 225> 1531 194<1317 1511>
DStem2: 5 0 202 0 0.710591 0.703606<139.986 1018.93 1268.56 2147.51> 581 1511 356 1511 0.465626 -0.884982<0 698.247 903.482 1602.61>
LayerCount: 2
Fore
SplineSet
5 0 m 1,0,-1
 758 746 l 1,1,-1
 356 1511 l 1,2,-1
 581 1511 l 1,3,-1
 906 893 l 1,4,-1
 1531 1511 l 1,5,-1
 1725 1511 l 1,6,-1
 973 765 l 1,7,-1
 1376 0 l 1,8,-1
 1151 0 l 1,9,-1
 826 619 l 1,10,-1
 202 0 l 1,11,-1
 5 0 l 1,0,-1
EndSplineSet
Validated: 1
EndChar

StartChar: Y
Encoding: 89 89 60
Width: 1372
GlyphClass: 2
Flags: W
HStem: 0 21G<573 777.615> 1491 20G<354 563.714 1529.67 1716>
VStem: 354 204<1307 1511> 573 200<0 200> 1545 171<1340 1511>
DStem2: 558 1511 354 1511 0.276459 -0.961026<0 975.533> 573 0 773 0 0.224951 0.97437<44.9902 426.933> 826 573 869 416 0.611838 0.790983<0 1181.85>
LayerCount: 2
Fore
SplineSet
573 0 m 1,0,-1
 669 416 l 1,1,-1
 354 1511 l 1,2,-1
 558 1511 l 1,3,-1
 826 573 l 1,4,-1
 1545 1511 l 1,5,-1
 1716 1511 l 1,6,-1
 869 416 l 1,7,-1
 773 0 l 1,8,-1
 573 0 l 1,0,-1
EndSplineSet
Validated: 1
EndChar

StartChar: Z
Encoding: 90 90 61
Width: 1390
GlyphClass: 2
Flags: W
HStem: 0 150<105 195.953 390 1230> 1361 150<552 1297.74>
VStem: 1298 208<1079.25 1403>
LayerCount: 2
Fore
SplineSet
70 0 m 1,0,-1
 105 150 l 1,1,2
 847 491 847 491 1129 847 c 0,3,4
 1248 997 1248 997 1282 1155 c 0,5,6
 1298 1229 1298 1229 1298 1298 c 0,7,8
 1298 1328 1298 1328 1295 1361 c 1,9,-1
 517 1361 l 1,10,-1
 552 1511 l 1,11,-1
 1487 1511 l 1,12,13
 1506 1444 1506 1444 1506 1362 c 0,14,15
 1506 1256 1506 1256 1476 1131 c 0,16,17
 1432 940 1432 940 1262 741 c 0,18,19
 1060 505 1060 505 390 150 c 1,20,-1
 1265 150 l 1,21,-1
 1230 0 l 1,22,-1
 70 0 l 1,0,-1
EndSplineSet
Validated: 1
EndChar

StartChar: bracketleft
Encoding: 91 91 62
Width: 853
GlyphClass: 2
Flags: W
HStem: -289 150<368 736> 1668 150<785 1188>
DStem2: 133 -289 333.37 -289 0.224951 0.97437<199.019 2053.51>
LayerCount: 2
Fore
SplineSet
133 -289 m 1,0,-1
 620 1818 l 1,1,-1
 1223 1818 l 1,2,-1
 1188 1668 l 1,3,-1
 785 1668 l 1,4,-1
 368 -139 l 1,5,-1
 771 -139 l 1,6,-1
 736 -289 l 1,7,-1
 133 -289 l 1,0,-1
EndSplineSet
Validated: 1
EndChar

StartChar: backslash
Encoding: 92 92 63
Width: 1171
GlyphClass: 2
Flags: W
VStem: 399 176<1511 1687> 943 176<-183 -7>
DStem2: 575 1687 399 1687 0.27933 -0.960195<0 1898.36>
LayerCount: 2
Fore
SplineSet
399 1687 m 1,0,-1
 575 1687 l 1,1,-1
 1119 -183 l 1,2,-1
 943 -183 l 1,3,-1
 399 1687 l 1,0,-1
EndSplineSet
Validated: 1
EndChar

StartChar: bracketright
Encoding: 93 93 64
Width: 853
GlyphClass: 2
Flags: W
HStem: -289 150<18 421> 1668 150<470 838>
DStem2: 386.37 -289 586 -289 0.224951 0.97437<153.946 2008.44>
LayerCount: 2
Fore
SplineSet
586 -289 m 1,0,-1
 -17 -289 l 1,1,-1
 18 -139 l 1,2,-1
 421 -139 l 1,3,-1
 838 1668 l 1,4,-1
 435 1668 l 1,5,-1
 470 1818 l 1,6,-1
 1073 1818 l 1,7,-1
 586 -289 l 1,0,-1
EndSplineSet
Validated: 1
EndChar

StartChar: asciicircum
Encoding: 94 94 65
Width: 1476
GlyphClass: 2
Flags: W
HStem: 988 523
VStem: 328 205<988 1193> 1345 259<988 1247>
DStem2: 328 988 533 988 0.787381 0.616467<161.413 802.612> 1178 1511 1042 1378 0.631541 -0.775343<17.231 510.971>
LayerCount: 2
Fore
SplineSet
328 988 m 1,0,-1
 996 1511 l 1,1,-1
 1178 1511 l 1,2,-1
 1604 988 l 1,3,-1
 1345 988 l 1,4,-1
 1042 1378 l 1,5,-1
 533 988 l 1,6,-1
 328 988 l 1,0,-1
EndSplineSet
Validated: 1
EndChar

StartChar: underscore
Encoding: 95 95 66
Width: 1183
GlyphClass: 2
Flags: W
HStem: -410 150<90 938>
LayerCount: 2
Fore
SplineSet
938 -410 m 1,0,-1
 55 -410 l 1,1,-1
 90 -260 l 1,2,-1
 973 -260 l 1,3,-1
 938 -410 l 1,0,-1
EndSplineSet
Validated: 1
EndChar

StartChar: grave
Encoding: 96 96 67
Width: 772
GlyphClass: 2
Flags: W
HStem: 1032 479
VStem: 474 411
DStem2: 605 1511 474 1403 0.602407 -0.798189<7.28912 464.802>
LayerCount: 2
Fore
SplineSet
753 1032 m 1,0,-1
 474 1403 l 1,1,-1
 605 1511 l 1,2,-1
 885 1140 l 1,3,-1
 753 1032 l 1,0,-1
EndSplineSet
Validated: 1
EndChar

StartChar: a
Encoding: 97 97 68
Width: 1297
GlyphClass: 2
Flags: W
HStem: -20 123<490.661 751.822> 0 21G<897 1101.61> 996 124<769.555 1062.03>
VStem: 197 205<191.179 569.287> 897 200<0 200> 1091 192<653.289 949.87>
DStem2: 892.383 -20 1092.38 -20 0.224951 0.97437<65.5163 908.213>
LayerCount: 2
Fore
SplineSet
1097 0 m 1,0,-1
 897 0 l 1,1,-1
 1085 815 l 2,2,3
 1091 843 1091 843 1091 867 c 0,4,5
 1091 906 1091 906 1074 935 c 0,6,7
 1036 996 1036 996 960 996 c 0,8,9
 798 996 798 996 657 879 c 0,10,11
 481 733 481 733 423 488 c 0,12,13
 402 399 402 399 402 333 c 0,14,15
 402 264 402 264 425 222 c 0,16,17
 490 103 490 103 640 103 c 0,18,19
 768 103 768 103 905 282 c 1,20,21
 835 -20 835 -20 592 -20 c 0,22,23
 348 -20 348 -20 257 133 c 0,24,25
 197 234 197 234 197 356 c 0,26,27
 197 419 197 419 213 488 c 0,28,29
 274 752 274 752 555 966 c 0,30,31
 757 1120 757 1120 1006 1120 c 0,32,33
 1139 1120 1139 1120 1216 1038 c 0,34,35
 1283 967 1283 967 1283 857 c 0,36,37
 1283 808 1283 808 1270 751 c 2,38,-1
 1097 0 l 1,0,-1
EndSplineSet
Validated: 1
EndChar

StartChar: b
Encoding: 98 98 69
Width: 1297
GlyphClass: 2
Flags: W
HStem: -20 124<489.699 781.445> 997 123<799.178 1060.34> 1491 20G<544.387 749>
VStem: 267 193<149.212 439.016> 549 200<1311 1511> 1149 205<530.713 908.821>
DStem2: 195.81 -20 395.585 -20 0.224951 0.97437<306.678 1571.21>
LayerCount: 2
Fore
SplineSet
549 1511 m 1,0,-1
 749 1511 l 1,1,-1
 466 285 l 2,2,3
 460 257 460 257 460 233 c 0,4,5
 460 196 460 196 477 165 c 0,6,7
 514 104 514 104 591 104 c 0,8,9
 753 104 753 104 894 221 c 0,10,11
 1070 367 1070 367 1128 612 c 0,12,13
 1149 701 1149 701 1149 767 c 0,14,15
 1149 836 1149 836 1126 878 c 0,16,17
 1061 997 1061 997 911 997 c 0,18,19
 783 997 783 997 646 818 c 1,20,21
 716 1120 716 1120 959 1120 c 0,22,23
 1203 1120 1203 1120 1294 967 c 0,24,25
 1354 866 1354 866 1354 744 c 0,26,27
 1354 681 1354 681 1338 612 c 0,28,29
 1277 348 1277 348 996 134 c 0,30,31
 794 -20 794 -20 545 -20 c 0,32,33
 417 -20 417 -20 335 62 c 0,34,35
 267 130 267 130 267 241 c 0,36,37
 267 288 267 288 281 349 c 2,38,-1
 549 1511 l 1,0,-1
EndSplineSet
Validated: 1
EndChar

StartChar: c
Encoding: 99 99 70
Width: 1184
GlyphClass: 2
Flags: W
HStem: -20 124<493.895 826.627> 997 123<770.951 1102.33>
VStem: 196 207<196.816 566.589>
LayerCount: 2
Fore
SplineSet
1153 226 m 17,0,1
 1112 186 1112 186 1043 135 c 0,2,3
 833 -20 833 -20 592 -20 c 0,4,5
 368 -20 368 -20 258 133 c 16,6,7
 196 219 196 219 196 346 c 0,8,9
 196 416 196 416 215 497 c 0,10,11
 276 759 276 759 555 965 c 0,12,13
 765 1120 765 1120 1006 1120 c 0,14,15
 1224 1120 1224 1120 1330 980 c 1,16,-1
 1168 876 l 1,17,18
 1098 997 1098 997 958 997 c 24,19,20
 786 997 786 997 644 866 c 0,21,22
 477 712 477 712 421 479 c 0,23,24
 403 404 403 404 403 345 c 0,25,26
 403 259 403 259 440 206 c 0,27,28
 509 104 509 104 638 104 c 0,29,30
 811 104 811 104 954 234 c 0,31,32
 1008 283 1008 283 1051 341 c 9,33,-1
 1153 226 l 17,0,1
EndSplineSet
Validated: 1
EndChar

StartChar: d
Encoding: 100 100 71
Width: 1297
GlyphClass: 2
Flags: W
HStem: -20 124<478.5 765.593> 0 21G<897 1101.62> 996 124<767.406 1061.67> 1491 20G<1241.39 1446>
VStem: 196 208<178.903 577.179> 1246 200<1311 1511>
DStem2: 892.383 -20 1092.38 -20 0.224951 0.97437<65.5163 182.575 322.538 1571.31>
LayerCount: 2
Fore
SplineSet
1097 0 m 1,0,-1
 897 0 l 1,1,-1
 933 158 l 1,2,3
 878 90 878 90 811 46 c 0,4,5
 710 -20 710 -20 592 -20 c 0,6,7
 364 -20 364 -20 257 133 c 0,8,9
 196 220 196 220 196 345 c 0,10,11
 196 411 196 411 213 488 c 0,12,13
 274 753 274 753 555 966 c 0,14,15
 758 1120 758 1120 946 1120 c 16,16,17
 1078 1120 1078 1120 1078 1016 c 0,18,19
 1078 992 1078 992 1071 964 c 1,20,21
 1018 996 1018 996 950 996 c 0,22,23
 797 996 797 996 657 879 c 24,24,25
 479 730 479 730 423 490 c 0,26,27
 404 409 404 409 404 343 c 0,28,29
 404 272 404 272 425 222 c 0,30,31
 472 104 472 104 623 104 c 0,32,33
 738 104 738 104 849 216 c 0,34,35
 976 344 976 344 1015 509 c 2,36,-1
 1246 1511 l 1,37,-1
 1446 1511 l 1,38,-1
 1097 0 l 1,0,-1
EndSplineSet
Validated: 1
EndChar

StartChar: e
Encoding: 101 101 72
Width: 1184
GlyphClass: 2
Flags: W
HStem: -20 124<493.444 826.383> 487 150<474 974> 997 123<770.707 1102.33>
VStem: 196 208<193.75 485.742>
LayerCount: 2
Fore
SplineSet
1153 226 m 1,0,1
 1112 186 1112 186 1043 135 c 0,2,3
 833 -20 833 -20 592 -20 c 0,4,5
 368 -20 368 -20 258 133 c 0,6,7
 196 219 196 219 196 346 c 0,8,9
 196 416 196 416 215 497 c 0,10,11
 276 759 276 759 555 965 c 0,12,13
 765 1120 765 1120 1006 1120 c 0,14,15
 1224 1120 1224 1120 1330 980 c 1,16,-1
 1168 876 l 1,17,18
 1098 997 1098 997 958 997 c 0,19,20
 785 997 785 997 644 866 c 0,21,22
 535 765 535 765 474 637 c 1,23,-1
 1009 637 l 1,24,-1
 974 487 l 1,25,-1
 422 487 l 1,26,27
 404 409 404 409 404 347 c 0,28,29
 404 259 404 259 440 206 c 0,30,31
 507 104 507 104 638 104 c 0,32,33
 810 104 810 104 954 234 c 0,34,35
 1007 282 1007 282 1051 341 c 1,36,-1
 1153 226 l 1,0,1
EndSplineSet
Validated: 1
EndChar

StartChar: f
Encoding: 102 102 73
Width: 1036
GlyphClass: 2
Flags: W
HStem: 0 21G<200 404.629> 769 144<325 378 611 963> 1408 123<865.672 1161.61>
VStem: 200 200<0 200>
DStem2: 200 0 400 0 0.224951 0.97437<44.9902 791.281 982.055 1238.36>
LayerCount: 2
Fore
SplineSet
200 0 m 1,0,-1
 378 771 l 1,1,-1
 292 771 l 1,2,-1
 325 916 l 1,3,-1
 411 916 l 1,4,-1
 431 1000 l 2,5,6
 476 1196 476 1196 681 1373 c 0,7,8
 864 1531 864 1531 1072 1531 c 0,9,10
 1258 1531 1258 1531 1377 1389 c 1,11,-1
 1217 1290 l 1,12,13
 1161 1408 1161 1408 1034 1408 c 0,14,15
 891 1408 891 1408 788 1303 c 0,16,17
 674 1187 674 1187 633 1008 c 2,18,-1
 611 913 l 1,19,-1
 996 913 l 1,20,-1
 963 769 l 1,21,-1
 578 769 l 1,22,-1
 400 0 l 1,23,-1
 200 0 l 1,0,-1
EndSplineSet
Validated: 1
EndChar

StartChar: g
Encoding: 103 103 74
Width: 1297
GlyphClass: 2
Flags: W
HStem: -410 123<258.651 588.835> -20 123<490.661 751.822> 996 124<769.555 1062.03>
VStem: 197 205<191.179 569.287> 1091 192<648.422 949.87>
DStem2: 802.239 -410 1002.24 -410 0.224951 0.97437<469.094 1308.5>
LayerCount: 2
Fore
SplineSet
34 -271 m 1,0,-1
 186 -163 l 1,1,2
 262 -287 262 -287 401 -287 c 0,3,4
 565 -287 565 -287 711 -160 c 0,5,6
 898 3 898 3 962 282 c 2,7,-1
 1085 815 l 2,8,9
 1091 843 1091 843 1091 867 c 0,10,11
 1091 906 1091 906 1074 935 c 0,12,13
 1036 996 1036 996 960 996 c 0,14,15
 798 996 798 996 657 879 c 0,16,17
 481 733 481 733 423 488 c 0,18,19
 402 399 402 399 402 333 c 0,20,21
 402 264 402 264 425 222 c 0,22,23
 490 103 490 103 640 103 c 0,24,25
 768 103 768 103 905 282 c 1,26,27
 835 -20 835 -20 592 -20 c 0,28,29
 348 -20 348 -20 257 133 c 0,30,31
 197 234 197 234 197 356 c 0,32,33
 197 419 197 419 213 488 c 0,34,35
 274 752 274 752 555 966 c 0,36,37
 757 1120 757 1120 1006 1120 c 0,38,39
 1139 1120 1139 1120 1216 1038 c 0,40,41
 1283 967 1283 967 1283 857 c 0,42,43
 1283 808 1283 808 1270 751 c 2,44,-1
 1162 282 l 2,45,46
 1091 -27 1091 -27 860 -207 c 0,47,48
 600 -410 600 -410 356 -410 c 0,49,50
 166 -410 166 -410 34 -271 c 1,0,-1
EndSplineSet
Validated: 1
EndChar

StartChar: h
Encoding: 104 104 75
Width: 1382
GlyphClass: 2
Flags: W
HStem: 0 21G<200 404.602 982 1186.61> 982 138<851.805 1135.79> 1491 20G<544.381 749>
VStem: 200 200<0 200> 549 200<1311 1511> 982 200<0 200> 1167 201<693.116 929.87>
DStem2: 200 0 400 0 0.224951 0.97437<44.9902 854.004 1011.66 1550.78> 982 0 1182 0 0.224951 0.97437<44.9902 858.896>
LayerCount: 2
Fore
SplineSet
200 0 m 1,0,-1
 549 1511 l 1,1,-1
 749 1511 l 1,2,-1
 617 942 l 1,3,4
 711 1013 711 1013 821 1063 c 0,5,6
 948 1120 948 1120 1091 1120 c 0,7,8
 1214 1120 1214 1120 1297 1037 c 0,9,10
 1368 966 1368 966 1368 854 c 0,11,12
 1368 806 1368 806 1355 751 c 2,13,-1
 1182 0 l 1,14,-1
 982 0 l 1,15,-1
 1155 751 l 2,16,17
 1167 801 1167 801 1167 840 c 0,18,19
 1167 895 1167 895 1141 931 c 0,20,21
 1101 982 1101 982 1026 982 c 0,22,23
 886 982 886 982 745 890 c 0,24,25
 580 780 580 780 536 591 c 2,26,-1
 400 0 l 1,27,-1
 200 0 l 1,0,-1
EndSplineSet
Validated: 1
EndChar

StartChar: i
Encoding: 105 105 76
Width: 600
GlyphClass: 2
Flags: W
HStem: 0 130<453.559 566> 1080 20G<449.385 654> 1276 255<548.25 702.449>
VStem: 245 203<141.909 288.745> 454 200<900 1100> 495 259<1327.2 1478.28>
DStem2: 200.131 0 400.131 0 0.224951 0.97437<246.218 1128.92>
LayerCount: 2
Fore
SplineSet
750 1398 m 0,0,1
 738 1348 738 1348 693 1312 c 128,-1,2
 648 1276 648 1276 595 1276 c 128,-1,3
 542 1276 542 1276 514 1314 c 0,4,5
 495 1340 495 1340 495 1372 c 0,6,7
 495 1388 495 1388 499 1403 c 0,8,9
 514 1459 514 1459 555 1493 c 0,10,11
 601 1531 601 1531 655 1531 c 0,12,13
 710 1531 710 1531 736 1494 c 0,14,15
 754 1468 754 1468 754 1436 c 0,16,17
 754 1415 754 1415 750 1398 c 0,0,1
566 0 m 1,18,19
 365 0 365 0 299 50 c 0,20,21
 245 91 245 91 245 167 c 0,22,23
 245 196 245 196 253 229 c 2,24,-1
 454 1100 l 1,25,-1
 654 1100 l 1,26,-1
 453 229 l 2,27,28
 448 210 448 210 448 195 c 0,29,30
 448 174 448 174 457 163 c 0,31,32
 481 130 481 130 596 130 c 1,33,-1
 566 0 l 1,18,19
EndSplineSet
Validated: 1
EndChar

StartChar: j
Encoding: 106 106 77
Width: 604
GlyphClass: 2
Flags: W
HStem: -410 130<-65 107.34> 1080 20G<449.385 654> 1276 255<548.25 702.449>
VStem: 454 200<900 1100> 495 259<1327.2 1478.28>
DStem2: 105.389 -410 305.509 -410 0.224951 0.97437<181.442 1549.72>
LayerCount: 2
Fore
SplineSet
750 1398 m 0,0,1
 738 1348 738 1348 693 1312 c 128,-1,2
 648 1276 648 1276 595 1276 c 128,-1,3
 542 1276 542 1276 514 1314 c 0,4,5
 495 1340 495 1340 495 1372 c 0,6,7
 495 1388 495 1388 499 1403 c 0,8,9
 514 1459 514 1459 555 1493 c 0,10,11
 601 1531 601 1531 655 1531 c 0,12,13
 710 1531 710 1531 736 1494 c 0,14,15
 754 1468 754 1468 754 1436 c 0,16,17
 754 1415 754 1415 750 1398 c 0,0,1
-95 -410 m 1,18,-1
 -65 -280 l 1,19,20
 75 -280 75 -280 126 -221 c 0,21,22
 158 -184 158 -184 175 -109 c 2,23,-1
 454 1100 l 1,24,-1
 654 1100 l 1,25,-1
 375 -109 l 2,26,27
 346 -233 346 -233 239 -318 c 0,28,29
 122 -410 122 -410 -95 -410 c 1,18,-1
EndSplineSet
Validated: 1
EndChar

StartChar: k
Encoding: 107 107 78
Width: 1351
GlyphClass: 2
Flags: W
HStem: 0 21G<200 404.574 1006.95 1346> 1080 20G<1165 1374.5> 1491 20G<544.381 749>
VStem: 549 200<1311 1511> 1034 312<0 312> 1173 206<809.652 1100>
DStem2: 200 0 400 0 0.224951 0.97437<44.9902 253.853 372.461 1550.78> 902 329 708 241 0.803461 -0.595357<0 301.929>
LayerCount: 2
Fore
SplineSet
200 0 m 1,0,-1
 549 1511 l 1,1,-1
 749 1511 l 1,2,-1
 474 319 l 1,3,4
 770 365 770 365 956 538 c 24,5,6
 1112 683 1112 683 1157 875 c 0,7,8
 1173 943 1173 943 1173 1009 c 0,9,10
 1173 1056 1173 1056 1165 1100 c 1,11,-1
 1370 1100 l 1,12,13
 1379 1065 1379 1065 1379 1024 c 0,14,15
 1379 966 1379 966 1363 902 c 0,16,17
 1321 722 1321 722 1194 578 c 0,18,19
 1063 430 1063 430 902 329 c 1,20,-1
 1346 0 l 1,21,-1
 1034 0 l 1,22,-1
 708 241 l 1,23,24
 606 209 606 209 443 188 c 1,25,-1
 400 0 l 1,26,-1
 200 0 l 1,0,-1
EndSplineSet
Validated: 1
EndChar

StartChar: l
Encoding: 108 108 79
Width: 600
GlyphClass: 2
Flags: W
HStem: 0 130<453.988 566> 1491 20G<544.375 749>
VStem: 245 204<140.758 291.362> 549 200<1311 1511>
DStem2: 199.669 0 399.669 0 0.224951 0.97437<248.496 1550.86>
LayerCount: 2
Fore
SplineSet
566 0 m 1,0,1
 366 0 366 0 299 51 c 0,2,3
 245 92 245 92 245 168 c 0,4,5
 245 198 245 198 253 231 c 2,6,-1
 549 1511 l 1,7,-1
 749 1511 l 1,8,-1
 453 231 l 2,9,10
 449 212 449 212 449 197 c 0,11,12
 449 177 449 177 457 164 c 0,13,14
 478 130 478 130 596 130 c 1,15,-1
 566 0 l 1,0,1
EndSplineSet
Validated: 1
EndChar

StartChar: m
Encoding: 109 109 80
Width: 2164
GlyphClass: 2
Flags: W
HStem: 0 21G<200 404.602 982 1186.6 1764 1968.61> 982 138<851.227 1136.67 1633.08 1918.9> 1080 20G<449.382 654>
VStem: 200 200<0 200> 982 200<0 200> 1764 200<0 200> 1949 201<693.116 929.994>
DStem2: 200 0 400 0 0.224951 0.97437<44.9902 854.483 1011.66 1128.94> 982 0 1182 0 0.224951 0.97437<44.9902 854.004> 1764 0 1964 0 0.224951 0.97437<44.9902 861.788>
LayerCount: 2
Fore
SplineSet
200 0 m 1,0,-1
 454 1100 l 1,1,-1
 654 1100 l 1,2,-1
 617 942 l 1,3,4
 710 1013 710 1013 821 1063 c 0,5,6
 947 1120 947 1120 1091 1120 c 0,7,8
 1214 1120 1214 1120 1297 1037 c 0,9,10
 1346 988 1346 988 1361 920 c 1,11,12
 1478 1007 1478 1007 1602 1063 c 0,13,14
 1729 1120 1729 1120 1873 1120 c 0,15,16
 1996 1120 1996 1120 2079 1037 c 0,17,18
 2150 966 2150 966 2150 854 c 0,19,20
 2150 806 2150 806 2137 751 c 2,21,-1
 1964 0 l 1,22,-1
 1764 0 l 1,23,-1
 1937 751 l 2,24,25
 1949 803 1949 803 1949 843 c 0,26,27
 1949 899 1949 899 1925 931 c 0,28,29
 1887 982 1887 982 1808 982 c 0,30,31
 1667 982 1667 982 1527 890 c 0,32,33
 1362 780 1362 780 1318 591 c 2,34,-1
 1182 0 l 1,35,-1
 982 0 l 1,36,-1
 1155 751 l 2,37,38
 1168 805 1168 805 1168 845 c 0,39,40
 1168 902 1168 902 1143 931 c 0,41,42
 1101 982 1101 982 1026 982 c 0,43,44
 884 982 884 982 745 890 c 0,45,46
 580 781 580 781 536 591 c 2,47,-1
 400 0 l 1,48,-1
 200 0 l 1,0,-1
EndSplineSet
Validated: 1
EndChar

StartChar: n
Encoding: 110 110 81
Width: 1382
GlyphClass: 2
Flags: W
HStem: 0 21G<200 404.602 982 1186.61> 982 138<851.336 1135.79> 1080 20G<449.382 654>
VStem: 200 200<0 200> 982 200<0 200> 1167 201<693.116 929.932>
DStem2: 200 0 400 0 0.224951 0.97437<44.9902 854.483 1011.66 1128.94> 982 0 1182 0 0.224951 0.97437<44.9902 858.896>
LayerCount: 2
Fore
SplineSet
200 0 m 1,0,-1
 454 1100 l 1,1,-1
 654 1100 l 1,2,-1
 617 942 l 1,3,4
 711 1013 711 1013 821 1063 c 0,5,6
 948 1120 948 1120 1091 1120 c 0,7,8
 1214 1120 1214 1120 1297 1037 c 0,9,10
 1368 966 1368 966 1368 854 c 0,11,12
 1368 806 1368 806 1355 751 c 2,13,-1
 1182 0 l 1,14,-1
 982 0 l 1,15,-1
 1155 751 l 2,16,17
 1167 801 1167 801 1167 840 c 0,18,19
 1167 897 1167 897 1141 931 c 0,20,21
 1101 982 1101 982 1026 982 c 0,22,23
 884 982 884 982 745 890 c 0,24,25
 580 781 580 781 536 591 c 2,26,-1
 400 0 l 1,27,-1
 200 0 l 1,0,-1
EndSplineSet
Validated: 1
EndChar

StartChar: o
Encoding: 111 111 82
Width: 1344
GlyphClass: 2
Flags: W
HStem: -20 124<493.218 826.752> 997 123<771.439 1104.89>
VStem: 196 207<194.802 567.046> 1194 208<529.891 906.31>
LayerCount: 2
Fore
SplineSet
592 -20 m 0,0,1
 368 -20 368 -20 258 133 c 16,2,3
 196 219 196 219 196 346 c 0,4,5
 196 416 196 416 215 497 c 0,6,7
 276 759 276 759 555 965 c 0,8,9
 765 1120 765 1120 1006 1120 c 0,10,11
 1230 1120 1230 1120 1340 967 c 16,12,13
 1402 881 1402 881 1402 754 c 0,14,15
 1402 684 1402 684 1383 603 c 0,16,17
 1321 340 1321 340 1044 135 c 0,18,19
 833 -20 833 -20 592 -20 c 0,0,1
638 104 m 0,20,21
 811 104 811 104 954 234 c 0,22,23
 1123 388 1123 388 1177 621 c 0,24,25
 1194 694 1194 694 1194 752 c 0,26,27
 1194 837 1194 837 1158 894 c 0,28,29
 1093 997 1093 997 958 997 c 0,30,31
 788 997 788 997 644 866 c 0,32,33
 478 715 478 715 421 479 c 0,34,35
 403 405 403 405 403 346 c 0,36,37
 403 260 403 260 440 205 c 0,38,39
 506 104 506 104 638 104 c 0,20,21
EndSplineSet
Validated: 1
EndChar

StartChar: p
Encoding: 112 112 83
Width: 1297
GlyphClass: 2
Flags: W
HStem: -410 21G<105 309.615> -20 124<489.333 783.843> 996 124<785.407 1071.87> 1080 20G<449.377 654>
VStem: 105 200<-410 -210> 1147 209<530.323 921.128>
DStem2: 105 -410 305 -410 0.224951 0.97437<44.9902 1292.79 1432.52 1549.81>
LayerCount: 2
Fore
SplineSet
454 1100 m 1,0,-1
 654 1100 l 1,1,-1
 617 942 l 1,2,3
 673 1010 673 1010 740 1054 c 0,4,5
 841 1120 841 1120 959 1120 c 0,6,7
 1185 1120 1185 1120 1294 967 c 0,8,9
 1356 880 1356 880 1356 756 c 0,10,11
 1356 689 1356 689 1338 612 c 0,12,13
 1276 347 1276 347 996 134 c 0,14,15
 794 -20 794 -20 605 -20 c 16,16,17
 473 -20 473 -20 473 84 c 0,18,19
 473 108 473 108 480 136 c 1,20,21
 533 104 533 104 601 104 c 0,22,23
 754 104 754 104 894 221 c 24,24,25
 1072 370 1072 370 1128 610 c 0,26,27
 1147 691 1147 691 1147 757 c 0,28,29
 1147 824 1147 824 1126 878 c 0,30,31
 1078 996 1078 996 928 996 c 0,32,33
 813 996 813 996 702 884 c 0,34,35
 575 756 575 756 536 591 c 2,36,-1
 305 -410 l 1,37,-1
 105 -410 l 1,38,-1
 454 1100 l 1,0,-1
EndSplineSet
Validated: 1
EndChar

StartChar: q
Encoding: 113 113 84
Width: 1302
GlyphClass: 2
Flags: W
HStem: -410 21G<802 1064> -20 123<490.661 751.822> -20 20G<1234.5 1292.37> 996 124<769.555 1062.03>
VStem: 197 205<191.179 569.287> 1091 192<658.906 949.87>
DStem2: 802 -410 1002.06 -410 0.224951 0.97437<44.9902 146.845 195.871 1308.55>
LayerCount: 2
Fore
SplineSet
802 -410 m 1,0,-1
 1085 815 l 2,1,2
 1091 843 1091 843 1091 867 c 0,3,4
 1091 906 1091 906 1074 935 c 0,5,6
 1036 996 1036 996 960 996 c 0,7,8
 798 996 798 996 657 879 c 0,9,10
 481 733 481 733 423 488 c 0,11,12
 402 399 402 399 402 333 c 0,13,14
 402 264 402 264 425 222 c 0,15,16
 490 103 490 103 640 103 c 0,17,18
 768 103 768 103 905 282 c 1,19,20
 835 -20 835 -20 592 -20 c 0,21,22
 348 -20 348 -20 257 133 c 0,23,24
 197 234 197 234 197 356 c 0,25,26
 197 419 197 419 213 488 c 0,27,28
 274 752 274 752 555 966 c 0,29,30
 757 1120 757 1120 1006 1120 c 0,31,32
 1139 1120 1139 1120 1216 1038 c 0,33,34
 1283 967 1283 967 1283 857 c 0,35,36
 1283 808 1283 808 1270 751 c 2,37,-1
 1036 -263 l 1,38,39
 1172 0 1172 0 1297 0 c 1,40,-1
 1247 -216 l 1,41,42
 1126 -216 1126 -216 1002 -410 c 1,43,-1
 802 -410 l 1,0,-1
EndSplineSet
Validated: 1
EndChar

StartChar: r
Encoding: 114 114 85
Width: 1038
GlyphClass: 2
Flags: W
HStem: 0 21G<200 404.602> 982 138<851.336 1200.34> 1080 20G<449.382 654>
VStem: 200 200<0 200>
DStem2: 200 0 400 0 0.224951 0.97437<44.9902 854.483 1011.66 1128.94>
LayerCount: 2
Fore
SplineSet
200 0 m 1,0,-1
 454 1100 l 1,1,-1
 654 1100 l 1,2,-1
 617 942 l 1,3,4
 711 1013 711 1013 821 1063 c 0,5,6
 948 1120 948 1120 1091 1120 c 0,7,8
 1215 1120 1215 1120 1297 1037 c 9,9,-1
 1153 935 l 17,10,11
 1109 982 1109 982 1026 982 c 0,12,13
 884 982 884 982 745 890 c 0,14,15
 580 781 580 781 536 591 c 2,16,-1
 400 0 l 1,17,-1
 200 0 l 1,0,-1
EndSplineSet
Validated: 1
EndChar

StartChar: s
Encoding: 115 115 86
Width: 1171
GlyphClass: 2
Flags: W
HStem: -20 123<436.413 760.781> 996 124<706.316 975.125>
VStem: 397 197<722 868.857> 973 204<319.997 560.807>
DStem2: 974 672 542 572 0.979617 -0.200876<-396.283 43.0954>
LayerCount: 2
Fore
SplineSet
140 262 m 1,0,1
 332 356 l 1,2,3
 373 103 373 103 577 103 c 0,4,5
 723 103 723 103 849 203 c 24,6,7
 936 272 936 272 968 388 c 0,8,9
 973 406 973 406 973 421 c 0,10,11
 973 482 973 482 898 499 c 0,12,-1
 542 572 l 0,13,14
 397 602 397 602 397 722 c 0,15,16
 397 748 397 748 404 778 c 0,17,18
 436 916 436 916 592 1020 c 24,19,20
 742 1120 742 1120 905 1120 c 0,21,22
 1079 1120 1079 1120 1185 976 c 1,23,-1
 1025 875 l 1,24,25
 982 996 982 996 847 996 c 0,26,27
 766 996 766 996 683 936 c 0,28,29
 613 885 613 885 597 817 c 0,30,31
 594 804 594 804 594 793 c 0,32,33
 594 750 594 750 634 742 c 0,34,-1
 974 672 l 0,35,36
 1177 633 1177 633 1177 486 c 0,37,38
 1177 459 1177 459 1170 428 c 0,39,40
 1127 236 1127 236 942 111 c 0,41,42
 749 -20 749 -20 529 -20 c 0,43,44
 253 -20 253 -20 140 262 c 1,0,1
EndSplineSet
Validated: 1
EndChar

StartChar: t
Encoding: 116 116 87
Width: 745
GlyphClass: 2
Flags: W
HStem: 0 130<490.988 603> 950 150<354 456 691 944> 1491 20G<581.377 786>
VStem: 281 204<141.223 286.228> 586 200<1311 1511>
DStem2: 236.593 0 436.593 0 0.224951 0.97437<249.201 975.007 1174.03 1550.87>
LayerCount: 2
Fore
SplineSet
603 0 m 1,0,1
 403 0 403 0 336 50 c 0,2,3
 281 91 281 91 281 166 c 0,4,5
 281 192 281 192 289 227 c 2,6,-1
 456 950 l 1,7,-1
 319 950 l 1,8,-1
 354 1100 l 1,9,-1
 491 1100 l 1,10,-1
 586 1511 l 1,11,-1
 786 1511 l 1,12,-1
 691 1100 l 1,13,-1
 979 1100 l 1,14,-1
 944 950 l 1,15,-1
 656 950 l 1,16,-1
 489 227 l 2,17,18
 485 211 485 211 485 198 c 0,19,20
 485 176 485 176 494 163 c 0,21,22
 514 130 514 130 633 130 c 1,23,-1
 603 0 l 1,0,1
EndSplineSet
Validated: 1
EndChar

StartChar: u
Encoding: 117 117 88
Width: 1382
GlyphClass: 2
Flags: W
HStem: -20 138<500.209 783.891> 0 21G<982 1186.62> 1080 20G<449.393 654 1231.4 1436>
VStem: 268 201<170.007 406.884> 454 200<900 1100> 1236 200<900 1100>
DStem2: 195.81 -20 395.81 -20 0.224951 0.97437<335.469 1149.37> 977.383 -20 1177.38 -20 0.224951 0.97437<65.5163 182.575 339.907 1149.47>
LayerCount: 2
Fore
SplineSet
1182 0 m 1,0,-1
 982 0 l 1,1,-1
 1018 158 l 1,2,3
 924 86 924 86 815 37 c 0,4,5
 687 -20 687 -20 545 -20 c 0,6,7
 422 -20 422 -20 339 63 c 0,8,9
 268 134 268 134 268 246 c 0,10,11
 268 294 268 294 281 349 c 2,12,-1
 454 1100 l 1,13,-1
 654 1100 l 1,14,-1
 481 349 l 2,15,16
 469 299 469 299 469 260 c 0,17,18
 469 201 469 201 495 169 c 0,19,20
 535 118 535 118 610 118 c 0,21,22
 750 118 750 118 890 210 c 0,23,24
 1056 319 1056 319 1100 509 c 2,25,-1
 1236 1100 l 1,26,-1
 1436 1100 l 1,27,-1
 1182 0 l 1,0,-1
EndSplineSet
Validated: 1
EndChar

StartChar: v
Encoding: 118 118 89
Width: 1239
GlyphClass: 2
Flags: W
HStem: 0 21G<518.2 731.018> 1080 20G<259 459.913 1303.17 1488>
VStem: 259 196<904 1100> 1317 171<929 1100>
DStem2: 455 1100 259 1100 0.233373 -0.972387<0 947.339> 681 180 717 0 0.573962 0.818882<0 1118.41>
LayerCount: 2
Fore
SplineSet
523 0 m 1,0,-1
 259 1100 l 1,1,-1
 455 1100 l 1,2,-1
 681 180 l 1,3,-1
 1317 1100 l 1,4,-1
 1488 1100 l 1,5,-1
 717 0 l 1,6,-1
 523 0 l 1,0,-1
EndSplineSet
Validated: 1
EndChar

StartChar: w
Encoding: 119 119 90
Width: 2129
GlyphClass: 2
Flags: W
HStem: -20 138<500.268 784.562 1282.79 1609.42> 1080 20G<449.393 654 1231.4 1436 1766 2088>
VStem: 268 201<160.007 478.078> 454 200<900 1100> 1236 200<900 1100> 1991 200<541.616 913.391>
DStem2: 195.81 -20 395.81 -20 0.224951 0.97437<333.551 1149.37> 977.871 -20 1177.81 -20 0.224951 0.97437<340.276 1149.36>
LayerCount: 2
Fore
SplineSet
454 1100 m 1,0,-1
 654 1100 l 1,1,-1
 481 349 l 2,2,3
 469 298 469 298 469 258 c 0,4,5
 469 201 469 201 495 169 c 0,6,7
 536 118 536 118 610 118 c 0,8,9
 751 118 751 118 890 210 c 0,10,11
 1056 320 1056 320 1100 509 c 2,12,-1
 1236 1100 l 1,13,-1
 1436 1100 l 1,14,-1
 1263 349 l 2,15,16
 1251 299 1251 299 1251 260 c 0,17,18
 1251 202 1251 202 1277 169 c 0,19,20
 1319 114 1319 114 1393 114 c 0,21,22
 1614 114 1614 114 1771 264 c 0,23,24
 1926 412 1926 412 1979 643 c 0,25,26
 1991 695 1991 695 1991 744 c 0,27,28
 1991 820 1991 820 1960 889 c 0,29,30
 1908 1000 1908 1000 1766 1100 c 1,31,-1
 2046 1100 l 1,32,33
 2130 1025 2130 1025 2164 926 c 0,34,35
 2191 847 2191 847 2191 764 c 0,36,37
 2191 706 2191 706 2177 643 c 0,38,39
 2117 371 2117 371 1890 183 c 0,40,41
 1645 -20 1645 -20 1327 -20 c 0,42,43
 1207 -20 1207 -20 1121 63 c 0,44,45
 1070 112 1070 112 1055 185 c 1,46,47
 940 95 940 95 815 37 c 0,48,49
 691 -20 691 -20 545 -20 c 0,50,51
 422 -20 422 -20 339 63 c 0,52,53
 268 134 268 134 268 246 c 0,54,55
 268 294 268 294 281 349 c 2,56,-1
 454 1100 l 1,0,-1
EndSplineSet
Validated: 1
EndChar

StartChar: x
Encoding: 120 120 91
Width: 1248
GlyphClass: 2
Flags: W
HStem: 0 21G<80 297.808 938.836 1166> 1080 20G<336 563.164 1204.19 1421>
VStem: 80 197<0 197> 336 216<884 1100> 950 216<0 216> 1225 196<904 1100>
DStem2: 80 0 277 0 0.721136 0.692794<142.064 749.587 980.25 1587.77> 552 1100 336 1100 0.487394 -0.873182<0 482.147 672.336 1154.48>
LayerCount: 2
Fore
SplineSet
80 0 m 1,0,-1
 646 544 l 1,1,-1
 336 1100 l 1,2,-1
 552 1100 l 1,3,-1
 787 679 l 1,4,-1
 1225 1100 l 1,5,-1
 1421 1100 l 1,6,-1
 855 556 l 1,7,-1
 1166 0 l 1,8,-1
 950 0 l 1,9,-1
 715 421 l 1,10,-1
 277 0 l 1,11,-1
 80 0 l 1,0,-1
EndSplineSet
Validated: 1
EndChar

StartChar: y
Encoding: 121 121 92
Width: 1382
GlyphClass: 2
Flags: W
HStem: -410 123<343.651 671.681> -20 138<500.268 780.828> 1080 20G<449.393 654 1231.4 1436>
VStem: 268 201<160.008 478.078> 454 200<900 1100> 1236 200<900 1100>
DStem2: 105.771 -410 305.771 -410 0.224951 0.97437<734.753 1549.63> 887.832 -410 1087.24 -410 0.224951 0.97437<745.173 1549.62>
LayerCount: 2
Fore
SplineSet
454 1100 m 1,0,-1
 654 1100 l 1,1,-1
 481 349 l 2,2,3
 469 298 469 298 469 259 c 0,4,5
 469 201 469 201 495 169 c 0,6,7
 536 118 536 118 610 118 c 0,8,9
 750 118 750 118 890 210 c 0,10,11
 1056 319 1056 319 1100 509 c 2,12,-1
 1236 1100 l 1,13,-1
 1436 1100 l 1,14,-1
 1247 282 l 2,15,16
 1176 -27 1176 -27 945 -207 c 0,17,18
 685 -410 685 -410 441 -410 c 0,19,20
 251 -410 251 -410 119 -271 c 1,21,-1
 271 -163 l 1,22,23
 347 -287 347 -287 486 -287 c 0,24,25
 651 -287 651 -287 796 -160 c 0,26,27
 952 -23 952 -23 1013 160 c 1,28,29
 929 85 929 85 815 37 c 0,30,31
 679 -20 679 -20 545 -20 c 0,32,33
 422 -20 422 -20 339 63 c 0,34,35
 268 134 268 134 268 246 c 0,36,37
 268 294 268 294 281 349 c 2,38,-1
 454 1100 l 1,0,-1
EndSplineSet
Validated: 1
EndChar

StartChar: z
Encoding: 122 122 93
Width: 1171
GlyphClass: 2
Flags: W
HStem: 0 150<103 279.88 522 1011> 950 150<432 1013>
VStem: 1013 205<741.982 950>
LayerCount: 2
Fore
SplineSet
70 0 m 1,0,-1
 103 145 l 1,1,2
 526 240 526 240 778 456 c 0,3,4
 952 605 952 605 993 797 c 0,5,6
 1013 891 1013 891 1013 950 c 1,7,-1
 397 950 l 1,8,-1
 432 1100 l 1,9,-1
 1203 1100 l 1,10,11
 1218 1040 1218 1040 1218 975 c 0,12,13
 1218 899 1218 899 1199 820 c 0,14,15
 1141 568 1141 568 859 346 c 0,16,17
 724 240 724 240 522 150 c 1,18,-1
 1046 150 l 1,19,-1
 1011 0 l 1,20,-1
 70 0 l 1,0,-1
EndSplineSet
Validated: 1
EndChar

StartChar: braceleft
Encoding: 123 123 94
Width: 918
GlyphClass: 2
Flags: W
HStem: -287 150<568.71 802> 683 150<242 444> 1668 150<964.054 1253>
VStem: 303 198<-76.7655 255.156>
DStem2: 219.958 -287 414.497 -287 0.224951 0.97437<392.712 995.538 1149.34 1948.55>
LayerCount: 2
Fore
SplineSet
1288 1818 m 1,0,1
 1253 1668 l 1,2,3
 1019 1668 1019 1668 939 1611 c 0,4,5
 836 1538 836 1538 804 1400 c 2,6,-1
 511 131 l 2,7,8
 501 87 501 87 501 50 c 4,9,10
 501 -30 501 -30 549 -80 c 0,11,12
 604 -137 604 -137 836 -137 c 1,13,-1
 802 -287 l 1,14,15
 481 -287 481 -287 371 -174 c 0,16,17
 303 -104 303 -104 303 15 c 0,18,19
 303 73 303 73 319 142 c 2,20,-1
 444 683 l 1,21,-1
 208 683 l 1,22,-1
 242 833 l 1,23,-1
 478 833 l 1,24,-1
 607 1389 l 2,25,26
 656 1599 656 1599 807 1705 c 0,27,28
 968 1818 968 1818 1288 1818 c 1,0,1
EndSplineSet
Validated: 1
EndChar

StartChar: bar
Encoding: 124 124 95
Width: 653
GlyphClass: 2
Flags: W
VStem: 207 152<-186 -34> 641 153<1542 1695>
DStem2: 207 -186 359 -186 0.224951 0.97437<34.1926 1930.42>
LayerCount: 2
Fore
SplineSet
207 -186 m 1,0,-1
 641 1695 l 1,1,-1
 794 1695 l 1,2,-1
 359 -186 l 1,3,-1
 207 -186 l 1,0,-1
EndSplineSet
Validated: 1
EndChar

StartChar: braceright
Encoding: 125 125 96
Width: 918
GlyphClass: 2
Flags: W
HStem: -287 150<18 309.616> 683 150<824 1026> 1668 150<470 704.266>
VStem: 770 199<1274.2 1607.38>
DStem2: 370.497 -287 565.958 -287 0.224951 0.97437<255.034 1039.51 1193.31 1811.43>
LayerCount: 2
Fore
SplineSet
470 1818 m 1,0,1
 793 1818 793 1818 901 1705 c 0,2,3
 969 1634 969 1634 969 1515 c 0,4,5
 969 1458 969 1458 953 1389 c 2,6,-1
 824 833 l 1,7,-1
 1060 833 l 1,8,-1
 1026 683 l 1,9,-1
 790 683 l 1,10,-1
 665 142 l 2,11,12
 616 -70 616 -70 467 -174 c 0,13,14
 306 -287 306 -287 -16 -287 c 1,15,-1
 18 -137 l 1,16,17
 253 -137 253 -137 333 -80 c 0,18,19
 435 -7 435 -7 467 131 c 2,20,-1
 760 1400 l 2,21,22
 770 1444 770 1444 770 1481 c 0,23,24
 770 1562 770 1562 723 1611 c 0,25,26
 668 1668 668 1668 435 1668 c 1,27,-1
 470 1818 l 1,0,1
EndSplineSet
Validated: 1
EndChar

StartChar: asciitilde
Encoding: 126 126 97
Width: 1338
GlyphClass: 2
Flags: W
HStem: 574 160<1000.8 1181.48> 820 160<515.113 702.63>
VStem: 306 105<660.756 688.948>
DStem2: 1021 760 676 800 0.753773 -0.657135<-351.231 68.1515>
LayerCount: 2
Fore
SplineSet
306 674 m 1,0,1
 423 980 423 980 690 980 c 0,2,3
 769 980 769 980 865 896 c 0,4,5
 1021 760 l 0,6,7
 1050 734 1050 734 1090 734 c 0,8,9
 1210 734 1210 734 1286 977 c 1,10,-1
 1391 880 l 1,11,12
 1274 574 1274 574 1007 574 c 0,13,14
 934 574 934 574 832 664 c 0,15,16
 682 795 682 795 676 800 c 0,17,18
 649 820 649 820 606 820 c 0,19,20
 486 820 486 820 411 577 c 1,21,-1
 306 674 l 1,0,1
EndSplineSet
Validated: 1
EndChar

StartChar: exclamdown
Encoding: 161 161 99
Width: 742
GlyphClass: 2
Flags: W
HStem: 0 21G<272 476.111> 1276 255<618.551 772.75>
VStem: 272 200<0 200> 567 259<1328.72 1479.8> 570 140<1018 1158>
LayerCount: 2
Fore
SplineSet
571 1409 m 0,0,1
 583 1459 583 1459 628 1495 c 128,-1,2
 673 1531 673 1531 726 1531 c 128,-1,3
 779 1531 779 1531 807 1493 c 0,4,5
 826 1467 826 1467 826 1435 c 0,6,7
 826 1419 826 1419 822 1404 c 0,8,9
 807 1348 807 1348 766 1314 c 0,10,11
 720 1276 720 1276 666 1276 c 0,12,13
 611 1276 611 1276 585 1313 c 0,14,15
 567 1339 567 1339 567 1371 c 0,16,17
 567 1392 567 1392 571 1409 c 0,0,1
272 0 m 1,18,-1
 570 1158 l 1,19,-1
 710 1158 l 1,20,-1
 472 0 l 1,21,-1
 272 0 l 1,18,-1
EndSplineSet
Validated: 1
EndChar

StartChar: cent
Encoding: 162 162 100
Width: 1184
GlyphClass: 2
Flags: W
HStem: -20 124<489.938 597> 997 123<981 1096.02>
VStem: 196 208<191.08 569.382> 559 120<-186 -66> 898 120<1162 1282>
DStem2: 559 -186 679 -186 0.224951 0.97437<26.9941 170.294 338.949 1193.7 1367.46 1506.63>
LayerCount: 2
Fore
SplineSet
1153 226 m 1,0,1
 1111 185 1111 185 1043 135 c 0,2,3
 889 22 889 22 720 -9 c 1,4,-1
 679 -186 l 1,5,-1
 559 -186 l 1,6,-1
 597 -20 l 1,7,8
 368 -20 368 -20 258 133 c 0,9,10
 196 219 196 219 196 346 c 0,11,12
 196 416 196 416 215 497 c 0,13,14
 276 758 276 758 555 965 c 0,15,16
 698 1071 698 1071 857 1105 c 1,17,-1
 898 1282 l 1,18,-1
 1018 1282 l 1,19,-1
 981 1120 l 1,20,21
 994 1120 994 1120 1006 1120 c 0,22,23
 1224 1120 1224 1120 1330 980 c 1,24,-1
 1168 876 l 1,25,26
 1098 997 1098 997 952 997 c 1,27,-1
 749 118 l 1,28,29
 858 147 858 147 954 234 c 0,30,31
 1007 282 1007 282 1051 341 c 1,32,-1
 1153 226 l 1,0,1
626 104 m 1,33,-1
 828 977 l 1,34,35
 730 945 730 945 644 866 c 0,36,37
 473 709 473 709 421 479 c 0,38,39
 404 404 404 404 404 344 c 0,40,41
 404 263 404 263 438 206 c 0,42,43
 496 109 496 109 626 104 c 1,33,-1
EndSplineSet
Validated: 1
EndChar

StartChar: sterling
Encoding: 163 163 101
Width: 1186
GlyphClass: 2
Flags: W
HStem: 0 150<141 235 435 1106> 664 144<301 354 587 938> 1408 123<870.565 1161.61>
DStem2: 200.37 0 400.37 0 0.224951 0.97437<198.936 683.49 874.264 1242.32>
LayerCount: 2
Fore
SplineSet
106 0 m 1,0,-1
 141 150 l 1,1,-1
 235 150 l 1,2,-1
 354 666 l 1,3,-1
 268 666 l 1,4,-1
 301 811 l 1,5,-1
 387 811 l 1,6,-1
 431 1000 l 2,7,8
 476 1196 476 1196 681 1373 c 0,9,10
 864 1531 864 1531 1072 1531 c 0,11,12
 1258 1531 1258 1531 1377 1389 c 1,13,-1
 1217 1290 l 1,14,15
 1161 1408 1161 1408 1034 1408 c 0,16,17
 899 1408 899 1408 788 1303 c 128,-1,18
 677 1198 677 1198 633 1008 c 2,19,-1
 587 808 l 1,20,-1
 972 808 l 1,21,-1
 938 664 l 1,22,-1
 553 664 l 1,23,-1
 435 150 l 1,24,-1
 1141 150 l 1,25,-1
 1106 0 l 1,26,-1
 106 0 l 1,0,-1
EndSplineSet
Validated: 1
EndChar

StartChar: currency
Encoding: 164 164 102
Width: 1673
GlyphClass: 2
Flags: W
HStem: 221 116<702.545 1041.52> 1182 115<973.055 1313.68>
VStem: 411 210<421.186 797.375> 1402 208<717.152 1092.39>
DStem2: 129 126 211 19 0.776481 0.630141<0 431.981 1733.12 2162.43> 552 1492 420 1384 0.60943 -0.79284<5.18189 401.006 1320.88 1722.92>
LayerCount: 2
Fore
SplineSet
1368 1077 m 0,0,1
 1307 1182 1307 1182 1169 1182 c 0,2,3
 995 1182 995 1182 853 1056 c 0,4,5
 681 903 681 903 638 718 c 0,6,7
 621 645 621 645 621 584 c 0,8,9
 621 500 621 500 654 440 c 0,10,11
 710 337 710 337 854 337 c 0,12,13
 1026 337 1026 337 1189 480 c 0,14,15
 1340 612 1340 612 1384 796 c 0,16,17
 1402 871 1402 871 1402 932 c 0,18,19
 1402 1017 1402 1017 1368 1077 c 0,0,1
552 1492 m 1,20,-1
 797 1174 l 1,21,22
 1006 1297 1006 1297 1210 1297 c 0,23,24
 1379 1297 1379 1297 1476 1221 c 1,25,-1
 1808 1492 l 1,26,-1
 1893 1384 l 1,27,-1
 1570 1122 l 1,28,29
 1610 1036 1610 1036 1610 936 c 0,30,31
 1610 872 1610 872 1594 804 c 8,32,33
 1545 598 1545 598 1358 443 c 1,34,-1
 1602 126 l 1,35,-1
 1469 19 l 1,36,-1
 1222 341 l 1,37,38
 1019 221 1019 221 812 221 c 0,39,40
 665 221 665 221 551 294 c 1,41,-1
 211 19 l 1,42,-1
 129 126 l 1,43,-1
 456 392 l 1,44,45
 411 474 411 474 411 576 c 0,46,47
 411 634 411 634 426 700 c 0,48,49
 479 933 479 933 661 1070 c 1,50,-1
 420 1384 l 1,51,-1
 552 1492 l 1,20,-1
EndSplineSet
Validated: 1
EndChar

StartChar: yen
Encoding: 165 165 103
Width: 1462
GlyphClass: 2
Flags: W
HStem: 0 21G<617 821.615> 507 150<355 644 1099 1362> 795 150<421 561 807 1040 1322 1428> 1491 20G<398 607.724 1573.66 1760>
VStem: 398 204<1307 1511> 617 200<0 200> 1589 171<1340 1511>
DStem2: 602 1511 398 1511 0.276459 -0.961026<0 532.606 744.768 832.327> 617 0 817 0 0.224951 0.97437<44.9902 426.933> 1040 795 1099 657 0.611838 0.790983<-73.0572 0 291.186 902.243>
LayerCount: 2
Fore
SplineSet
617 0 m 1,0,-1
 713 416 l 1,1,-1
 687 507 l 1,2,-1
 320 507 l 1,3,-1
 355 657 l 1,4,-1
 644 657 l 1,5,-1
 604 795 l 1,6,-1
 386 795 l 1,7,-1
 421 945 l 1,8,-1
 561 945 l 1,9,-1
 398 1511 l 1,10,-1
 602 1511 l 1,11,-1
 764 945 l 1,12,-1
 1155 945 l 1,13,-1
 1589 1511 l 1,14,-1
 1760 1511 l 1,15,-1
 1322 945 l 1,16,-1
 1463 945 l 1,17,-1
 1428 795 l 1,18,-1
 1206 795 l 1,19,-1
 1099 657 l 1,20,-1
 1397 657 l 1,21,-1
 1362 507 l 1,22,-1
 983 507 l 1,23,-1
 913 416 l 1,24,-1
 817 0 l 1,25,-1
 617 0 l 1,0,-1
934 657 m 1,26,-1
 1040 795 l 1,27,-1
 807 795 l 1,28,-1
 846 657 l 1,29,-1
 934 657 l 1,26,-1
EndSplineSet
Validated: 1
EndChar

StartChar: brokenbar
Encoding: 166 166 104
Width: 652
GlyphClass: 2
Flags: W
VStem: 207 152<-186 -34> 405 152<520 672> 443 152<837 989> 641 152<1543 1695>
DStem2: 207 -186 359 -186 0.224951 0.97437<34.1926 880.55 1084.06 1930.42>
LayerCount: 2
Fore
SplineSet
207 -186 m 1,0,-1
 405 672 l 1,1,-1
 557 672 l 1,2,-1
 359 -186 l 1,3,-1
 207 -186 l 1,0,-1
443 837 m 1,4,-1
 641 1695 l 1,5,-1
 793 1695 l 1,6,-1
 595 837 l 1,7,-1
 443 837 l 1,4,-1
EndSplineSet
Validated: 1
EndChar

StartChar: section
Encoding: 167 167 105
Width: 1220
GlyphClass: 2
Flags: W
HStem: -20 124<498.875 767.684> 1407 124<797.961 1067.12>
VStem: 297 204<611.386 778.44> 489 197<1073 1280.15> 880 197<230.849 438> 1065 204<732.108 899.614>
DStem2: 932 528 500 428 0.979617 -0.200876<-446.202 -6.82415> 1066 1083 634 983 0.979617 -0.200876<-396.283 43.0954>
LayerCount: 2
Fore
SplineSet
289 124 m 1,0,-1
 449 225 l 1,1,2
 492 104 492 104 627 104 c 0,3,4
 708 104 708 104 791 164 c 0,5,6
 861 215 861 215 877 283 c 0,7,8
 880 296 880 296 880 307 c 0,9,10
 880 350 880 350 840 358 c 0,11,-1
 500 428 l 0,12,13
 297 467 297 467 297 614 c 0,14,15
 297 641 297 641 304 672 c 0,16,17
 338 823 338 823 459 932 c 9,18,-1
 606 881 l 17,19,20
 534 815 534 815 506 712 c 0,21,22
 501 694 501 694 501 679 c 0,23,24
 501 618 501 618 576 601 c 0,25,-1
 932 528 l 0,26,27
 1077 498 1077 498 1077 378 c 0,28,29
 1077 352 1077 352 1070 322 c 0,30,31
 1038 184 1038 184 882 80 c 24,32,33
 732 -20 732 -20 569 -20 c 0,34,35
 395 -20 395 -20 289 124 c 1,0,-1
1277 1387 m 1,36,-1
 1117 1286 l 1,37,38
 1074 1407 1074 1407 939 1407 c 0,39,40
 857 1407 857 1407 775 1347 c 0,41,42
 705 1296 705 1296 689 1228 c 0,43,44
 686 1215 686 1215 686 1204 c 0,45,46
 686 1161 686 1161 726 1153 c 0,47,-1
 1066 1083 l 0,48,49
 1269 1044 1269 1044 1269 897 c 0,50,51
 1269 870 1269 870 1262 839 c 0,52,53
 1228 688 1228 688 1107 579 c 9,54,-1
 960 630 l 17,55,56
 1031 695 1031 695 1060 799 c 0,57,58
 1065 817 1065 817 1065 832 c 0,59,60
 1065 893 1065 893 990 910 c 0,61,-1
 634 983 l 0,62,63
 489 1013 489 1013 489 1133 c 0,64,65
 489 1160 489 1160 496 1189 c 0,66,67
 529 1327 529 1327 684 1431 c 24,68,69
 833 1531 833 1531 997 1531 c 0,70,71
 1171 1531 1171 1531 1277 1387 c 1,36,-1
EndSplineSet
Validated: 1
EndChar

StartChar: dieresis
Encoding: 168 168 106
Width: 925
GlyphClass: 2
Flags: W
HStem: 1256 255<516.25 670.449 892.25 1046.45>
VStem: 463 259<1307.2 1458.28> 839 259<1307.2 1458.28>
LayerCount: 2
Fore
SplineSet
1094 1378 m 0,0,1
 1082 1328 1082 1328 1037 1292 c 128,-1,2
 992 1256 992 1256 939 1256 c 128,-1,3
 886 1256 886 1256 858 1294 c 0,4,5
 839 1320 839 1320 839 1352 c 0,6,7
 839 1368 839 1368 843 1383 c 0,8,9
 858 1439 858 1439 899 1473 c 0,10,11
 945 1511 945 1511 999 1511 c 0,12,13
 1054 1511 1054 1511 1080 1474 c 0,14,15
 1098 1448 1098 1448 1098 1416 c 0,16,17
 1098 1395 1098 1395 1094 1378 c 0,0,1
718 1378 m 0,18,19
 706 1328 706 1328 661 1292 c 128,-1,20
 616 1256 616 1256 563 1256 c 128,-1,21
 510 1256 510 1256 482 1294 c 0,22,23
 463 1320 463 1320 463 1352 c 0,24,25
 463 1368 463 1368 467 1383 c 0,26,27
 482 1439 482 1439 523 1473 c 0,28,29
 569 1511 569 1511 623 1511 c 0,30,31
 678 1511 678 1511 704 1474 c 0,32,33
 722 1448 722 1448 722 1416 c 0,34,35
 722 1395 722 1395 718 1378 c 0,18,19
EndSplineSet
Validated: 1
EndChar

StartChar: copyright
Encoding: 169 169 107
Width: 1451
GlyphClass: 2
Flags: W
HStem: 164 119<608.345 997.752> 374 116<720.902 952.998> 1002 117<854.46 1108.89> 1226 130<811.275 1187.95>
VStem: 306 129<462.732 841.071> 533 150<560.786 810.013> 1364 132<670.4 1048.08>
LayerCount: 2
Fore
SplineSet
1265 999 m 1,0,-1
 1134 910 l 1,1,2
 1104 1002 1104 1002 1005 1002 c 0,3,4
 902 1002 902 1002 825 935 c 0,5,6
 724 847 724 847 695 722 c 0,7,8
 683 670 683 670 683 631 c 0,9,10
 683 585 683 585 700 560 c 0,11,12
 748 490 748 490 820 490 c 0,13,14
 899 490 899 490 979 552 c 0,15,16
 1047 605 1047 605 1076 648 c 1,17,-1
 1165 569 l 1,18,19
 1108 503 1108 503 1019 446 c 0,20,21
 907 374 907 374 789 374 c 0,22,23
 633 374 633 374 576 474 c 0,24,25
 533 549 533 549 533 631 c 0,26,27
 533 669 533 669 542 709 c 0,28,29
 584 898 584 898 758 1020 c 0,30,31
 898 1119 898 1119 1037 1119 c 0,32,33
 1181 1119 1181 1119 1265 999 c 1,0,-1
789 283 m 0,34,35
 988 283 988 283 1140 423 c 0,36,37
 1308 578 1308 578 1350 760 c 0,38,39
 1364 821 1364 821 1364 875 c 0,40,41
 1364 1000 1364 1000 1290 1093 c 0,42,43
 1184 1226 1184 1226 1009 1226 c 256,44,45
 832 1226 832 1226 661 1090 c 0,46,47
 495 958 495 958 449 756 c 0,48,49
 435 694 435 694 435 639 c 0,50,51
 435 507 435 507 519 403 c 0,52,53
 616 283 616 283 789 283 c 0,34,35
764 164 m 0,54,55
 520 164 520 164 395 333 c 0,56,57
 306 453 306 453 306 608 c 0,58,59
 306 678 306 678 324 754 c 0,60,61
 377 991 377 991 590 1178 c 0,62,63
 793 1356 793 1356 1039 1356 c 0,64,65
 1284 1356 1284 1356 1416 1179 c 0,66,67
 1496 1072 1496 1072 1496 920 c 0,68,69
 1496 842 1496 842 1475 754 c 0,70,71
 1418 503 1418 503 1212 333 c 0,72,73
 1007 164 1007 164 764 164 c 0,54,55
EndSplineSet
Validated: 1
EndChar

StartChar: ordfeminine
Encoding: 170 170 108
Width: 1183
GlyphClass: 2
Flags: W
HStem: 693 150<345 1193> 896 127<746.833 922.125> 1398 133<850.318 1007.81>
VStem: 566 167<1072.75 1264.86>
DStem2: 861.825 693 1026.83 693 0.224951 0.97437<353.462 702.894>
LayerCount: 2
Fore
SplineSet
1193 693 m 1,0,-1
 310 693 l 1,1,-1
 345 843 l 1,2,-1
 1228 843 l 1,3,-1
 1193 693 l 1,0,-1
1012 1341 m 2,4,5
 1017 1365 1017 1365 1004 1382 c 0,6,7
 992 1398 992 1398 961 1398 c 0,8,9
 879 1398 879 1398 801 1304 c 0,10,11
 752 1245 752 1245 739 1180 c 0,12,13
 733 1151 733 1151 733 1127 c 0,14,15
 733 1096 733 1096 744 1072 c 0,16,17
 768 1023 768 1023 834 1023 c 0,18,19
 886 1023 886 1023 956 1100 c 1,20,-1
 1012 1341 l 2,4,5
1076 906 m 1,21,-1
 911 906 l 1,22,-1
 918 937 l 1,23,24
 858 896 858 896 789 896 c 0,25,26
 662 896 662 896 602 986 c 0,27,28
 566 1040 566 1040 566 1106 c 0,29,30
 566 1136 566 1136 573 1168 c 0,31,32
 610 1322 610 1322 756 1437 c 24,33,34
 875 1531 875 1531 1004 1531 c 0,35,36
 1086 1531 1086 1531 1140 1474 c 256,37,38
 1176 1436 1176 1436 1176 1372 c 0,39,40
 1176 1342 1176 1342 1168 1306 c 2,41,-1
 1076 906 l 1,21,-1
EndSplineSet
Validated: 1
EndChar

StartChar: guillemotleft
Encoding: 171 171 109
Width: 1409
GlyphClass: 2
Flags: W
DStem2: 460 780 307 678 0.586409 -0.810015<0 507.08> 348 859 460 780 0.764545 0.64457<34.708 682.108> 994 773 841 671 0.58738 -0.809312<0 507.079> 883 852 994 773 0.764056 0.64515<33.8433 681.248>
LayerCount: 2
Fore
SplineSet
1532 1400 m 1,0,-1
 1485 1195 l 1,1,-1
 994 773 l 1,2,-1
 1291 362 l 1,3,-1
 1238 124 l 1,4,-1
 841 671 l 1,5,-1
 883 852 l 1,6,-1
 1532 1400 l 1,0,-1
998 1407 m 1,7,-1
 951 1202 l 1,8,-1
 460 780 l 1,9,-1
 757 369 l 1,10,-1
 703 131 l 1,11,-1
 307 678 l 1,12,-1
 348 859 l 1,13,-1
 998 1407 l 1,7,-1
EndSplineSet
Validated: 1
EndChar

StartChar: logicalnot
Encoding: 172 172 110
Width: 1183
GlyphClass: 2
Flags: W
HStem: 693 150<345 1043>
VStem: 984 150<436 586>
DStem2: 984 436 1134 436 0.224951 0.97437<33.7427 263.685>
LayerCount: 2
Fore
SplineSet
310 693 m 1,0,-1
 345 843 l 1,1,-1
 1228 843 l 1,2,-1
 1134 436 l 1,3,-1
 984 436 l 1,4,-1
 1043 693 l 1,5,-1
 310 693 l 1,0,-1
EndSplineSet
Validated: 1
EndChar

StartChar: uni00AD
Encoding: 173 173 111
Width: 1183
GlyphClass: 2
Flags: W
HStem: 693 150<345 1193>
LayerCount: 2
Fore
SplineSet
310 693 m 1,0,-1
 345 843 l 1,1,-1
 1228 843 l 1,2,-1
 1193 693 l 1,3,-1
 310 693 l 1,0,-1
EndSplineSet
Validated: 1
EndChar

StartChar: registered
Encoding: 174 174 112
Width: 1451
GlyphClass: 2
Flags: W
HStem: 164 120<610.566 997.758> 1020 110<871.162 1048.99> 1226 130<810.541 1188.61>
VStem: 306 129<465.06 841.413> 535 151<396 547> 1059 153<790.25 971.435> 1364 131<671.906 1047.68>
DStem2: 481.439 164 632.439 164 0.224951 0.97437<272.07 475.343 577.906 873.799 953.694 982.013>
LayerCount: 2
Fore
SplineSet
706 1120 m 1,0,-1
 854 1124 l 1,1,-1
 840 1060 l 1,2,3
 858 1080 858 1080 896 1100 c 0,4,5
 953 1130 953 1130 1018 1130 c 0,6,7
 1118 1130 1118 1130 1180 1054 c 0,8,9
 1212 1015 1212 1015 1212 956 c 0,10,11
 1212 930 1212 930 1205 896 c 0,12,13
 1183 805 1183 805 1143 748 c 0,14,15
 1067 639 1067 639 950 598 c 1,16,-1
 1146 429 l 1,17,18
 1309 582 1309 582 1350 760 c 0,19,20
 1364 821 1364 821 1364 875 c 0,21,22
 1364 1000 1364 1000 1290 1093 c 0,23,24
 1184 1226 1184 1226 1009 1226 c 0,25,26
 832 1226 832 1226 661 1090 c 0,27,28
 497 960 497 960 449 756 c 0,29,30
 435 697 435 697 435 642 c 0,31,32
 435 506 435 506 521 404 c 0,33,34
 621 284 621 284 792 284 c 0,35,36
 969 284 969 284 1107 396 c 1,37,-1
 967 396 l 1,38,-1
 732 594 l 1,39,-1
 686 396 l 1,40,-1
 535 396 l 1,41,-1
 706 1120 l 1,0,-1
758 708 m 1,42,43
 782 678 782 678 850 678 c 0,44,45
 912 678 912 678 973 731 c 0,46,47
 1032 782 1032 782 1051 866 c 0,48,49
 1059 901 1059 901 1059 927.5 c 128,-1,50
 1059 954 1059 954 1051 972 c 0,51,52
 1030 1020 1030 1020 979 1020 c 128,-1,53
 928 1020 928 1020 874 980 c 0,54,55
 810 933 810 933 790 844 c 2,56,-1
 758 708 l 1,42,43
1039 1356 m 128,-1,58
 1287 1356 1287 1356 1416 1179 c 16,59,60
 1495 1071 1495 1071 1495 919 c 0,61,62
 1495 842 1495 842 1475 754 c 0,63,64
 1419 507 1419 507 1210 333 c 0,65,66
 1007 164 1007 164 766 164 c 0,67,68
 520 164 520 164 395 333 c 0,69,70
 306 453 306 453 306 608 c 0,71,72
 306 679 306 679 324 754 c 0,73,74
 377 991 377 991 588 1178 c 0,75,57
 791 1356 791 1356 1039 1356 c 128,-1,58
EndSplineSet
Validated: 1
EndChar

StartChar: macron
Encoding: 175 175 113
Width: 1183
GlyphClass: 2
Flags: W
HStem: 1361 150<499 1347>
LayerCount: 2
Fore
SplineSet
464 1361 m 1,0,-1
 499 1511 l 1,1,-1
 1382 1511 l 1,2,-1
 1347 1361 l 1,3,-1
 464 1361 l 1,0,-1
EndSplineSet
Validated: 1
EndChar

StartChar: degree
Encoding: 176 176 114
Width: 1055
GlyphClass: 2
Flags: W
HStem: 895 118<627.335 869.193> 1388 123<745.555 982.802>
VStem: 410 191<1046.79 1245.31> 1008 191<1155.77 1353.21>
LayerCount: 2
Fore
SplineSet
933 1511 m 0,0,1
 1066 1511 1066 1511 1151 1428 c 0,2,3
 1199 1381 1199 1381 1199 1308 c 0,4,5
 1199 1278 1199 1278 1191 1245 c 0,6,7
 1160 1116 1160 1116 1022 1014 c 0,8,9
 862 895 862 895 681 895 c 24,10,11
 526 895 526 895 453 980 c 0,12,13
 410 1030 410 1030 410 1096 c 0,14,15
 410 1121 410 1121 416 1148 c 0,16,17
 451 1304 451 1304 624 1413 c 0,18,19
 781 1511 781 1511 933 1511 c 0,0,1
606 1156 m 0,20,21
 601 1135 601 1135 601 1117 c 0,22,23
 601 1071 601 1071 632 1046 c 0,24,25
 672 1013 672 1013 735 1013 c 24,26,27
 835 1013 835 1013 920 1098 c 256,28,29
 985 1163 985 1163 1003 1242 c 0,30,31
 1008 1264 1008 1264 1008 1283 c 0,32,33
 1008 1329 1008 1329 978 1354 c 0,34,35
 937 1388 937 1388 877 1388 c 24,36,37
 794 1388 794 1388 703 1313 c 0,38,39
 629 1252 629 1252 606 1156 c 0,20,21
EndSplineSet
Validated: 1
EndChar

StartChar: plusminus
Encoding: 177 177 115
Width: 1183
GlyphClass: 2
Flags: W
HStem: 215 150<234 1083> 782 150<365 697 881 1214>
VStem: 612 150<415 565> 816 150<1148 1298>
DStem2: 565.826 215 715.826 215 0.224951 0.97437<239.003 581.975 769.522 1111.52>
LayerCount: 2
Fore
SplineSet
200 215 m 1,0,-1
 234 365 l 1,1,-1
 1117 365 l 1,2,-1
 1083 215 l 1,3,-1
 200 215 l 1,0,-1
612 415 m 1,4,-1
 697 782 l 1,5,-1
 331 782 l 1,6,-1
 365 932 l 1,7,-1
 731 932 l 1,8,-1
 816 1298 l 1,9,-1
 966 1298 l 1,10,-1
 881 932 l 1,11,-1
 1248 932 l 1,12,-1
 1214 782 l 1,13,-1
 847 782 l 1,14,-1
 762 415 l 1,15,-1
 612 415 l 1,4,-1
EndSplineSet
Validated: 1
EndChar

StartChar: uni00B2
Encoding: 178 178 116
Width: 927
GlyphClass: 2
Flags: W
HStem: 715 150<569 941> 1393 138<677.773 883.076>
VStem: 897 180<1190.84 1359.28>
DStem2: 458 934 569 865 0.862737 0.505653<60.8738 514.002>
LayerCount: 2
Fore
SplineSet
359 715 m 1,0,1
 343 752 343 752 343 793 c 0,2,3
 343 868 343 868 458 934 c 0,4,5
 470 940 470 940 818 1162 c 0,6,7
 878 1201 878 1201 893 1270 c 0,8,9
 897 1289 897 1289 897 1305 c 0,10,11
 898 1337 898 1337 880 1360 c 0,12,13
 854 1393 854 1393 796 1393 c 0,14,15
 740 1393 740 1393 676 1347 c 0,16,17
 616 1304 616 1304 579 1216 c 1,18,-1
 450 1299 l 1,19,20
 522 1402 522 1402 645 1475 c 0,21,22
 739 1531 739 1531 841 1531 c 0,23,24
 951 1531 951 1531 1016 1466 c 0,25,26
 1077 1404 1077 1404 1077 1326 c 0,27,28
 1077 1301 1077 1301 1071 1274 c 0,29,30
 1043 1146 1043 1146 900 1059 c 24,31,32
 831 1017 831 1017 569 865 c 1,33,-1
 976 865 l 1,34,-1
 941 715 l 1,35,-1
 359 715 l 1,0,1
EndSplineSet
Validated: 1
EndChar

StartChar: uni00B3
Encoding: 179 179 117
Width: 941
GlyphClass: 2
Flags: W
HStem: 704 134<547.212 759.211> 1160 121<709 816.62> 1394 137<743.506 909>
VStem: 861 179<949.295 1144.5 1311.8 1393.99>
LayerCount: 2
Fore
SplineSet
587 1383 m 1,0,1
 717 1531 717 1531 865 1531 c 0,2,3
 953 1531 953 1531 989 1495 c 0,4,5
 1030 1454 1030 1454 1030 1409 c 4,6,7
 1030 1396 1030 1396 1027 1384 c 0,8,9
 1009 1311 1009 1311 949 1257 c 1,10,11
 1040 1206 1040 1206 1040 1106 c 0,12,13
 1040 1076 1040 1076 1032 1042 c 0,14,15
 1000 907 1000 907 862 805 c 0,16,17
 725 704 725 704 586 704 c 0,18,19
 402 704 402 704 365 930 c 1,20,-1
 538 988 l 1,21,22
 534 964 534 964 534 943 c 0,23,24
 534 838 534 838 634 838 c 0,25,26
 714 838 714 838 775 896 c 0,27,28
 838 956 838 956 855 1031 c 0,29,30
 861 1058 861 1058 861 1078 c 0,31,32
 861 1107 861 1107 849 1124 c 0,33,34
 821 1160 821 1160 681 1160 c 1,35,-1
 709 1281 l 1,36,37
 774 1281 774 1281 818 1302 c 0,38,39
 842 1314 842 1314 851 1349 c 0,40,41
 862 1394 862 1394 818 1394 c 0,42,43
 759 1394 759 1394 711 1298 c 1,44,-1
 587 1383 l 1,0,1
EndSplineSet
Validated: 1
EndChar

StartChar: acute
Encoding: 180 180 118
Width: 772
GlyphClass: 2
Flags: W
HStem: 1021 490
VStem: 413 541
DStem2: 413 1140 502 1021 0.772966 0.634448<0 578.055>
LayerCount: 2
Fore
SplineSet
502 1021 m 1,0,-1
 413 1140 l 1,1,-1
 864 1511 l 1,2,-1
 954 1392 l 1,3,-1
 502 1021 l 1,0,-1
EndSplineSet
Validated: 1
EndChar

StartChar: uni00B5
Encoding: 181 181 119
Width: 1382
GlyphClass: 2
Flags: W
HStem: -410 21G<105 309.623> -20 138<500.839 784.109> 0 21G<982 1186.62> 1080 20G<449.377 654 1231.4 1436>
VStem: 105 200<-410 -210> 454 200<900 1100> 1236 200<900 1100>
DStem2: 105 -410 305 -410 0.224951 0.97437<44.9902 480.168 734.927 1549.81> 887.344 -410 1087.34 -410 0.224951 0.97437<465.775 582.833 740.165 1549.73>
LayerCount: 2
Fore
SplineSet
1182 0 m 1,0,-1
 982 0 l 1,1,-1
 1018 158 l 1,2,3
 926 87 926 87 815 37 c 0,4,5
 689 -20 689 -20 545 -20 c 0,6,7
 465 -20 465 -20 403 14 c 1,8,-1
 305 -410 l 1,9,-1
 105 -410 l 1,10,-1
 454 1100 l 1,11,-1
 654 1100 l 1,12,-1
 481 349 l 2,13,14
 469 298 469 298 469 259 c 0,15,16
 469 201 469 201 495 169 c 0,17,18
 536 118 536 118 610 118 c 0,19,20
 750 118 750 118 890 210 c 0,21,22
 1056 319 1056 319 1100 509 c 2,23,-1
 1236 1100 l 1,24,-1
 1436 1100 l 1,25,-1
 1182 0 l 1,0,-1
EndSplineSet
Validated: 1
EndChar

StartChar: paragraph
Encoding: 182 182 120
Width: 1115
GlyphClass: 2
Flags: W
HStem: 0 21G<715 788.619 842 919.619> 1442 69<1117 1175>
VStem: 715 69<0 69> 842 73<0 73>
DStem2: 715 0 784 0 0.224951 0.97437<15.5216 810.693> 842 0 915 0 0.224951 0.97437<16.4214 1479.95>
LayerCount: 2
Fore
SplineSet
915 0 m 1,0,-1
 842 0 l 1,1,-1
 1175 1442 l 1,2,-1
 1117 1442 l 1,3,-1
 784 0 l 1,4,-1
 715 0 l 1,5,-1
 897 790 l 1,6,7
 769 704 769 704 636 704 c 0,8,9
 479 704 479 704 413 815 c 0,10,11
 378 874 378 874 378 948 c 0,12,13
 378 990 378 990 389 1035 c 0,14,15
 440 1245 440 1245 615 1381 c 0,16,17
 782 1511 782 1511 932 1511 c 0,18,19
 1002 1511 1002 1511 1057 1481 c 1,20,-1
 1064 1511 l 1,21,-1
 1264 1511 l 1,22,-1
 915 0 l 1,0,-1
EndSplineSet
Validated: 1
EndChar

StartChar: periodcentered
Encoding: 183 183 121
Width: 552
GlyphClass: 2
Flags: W
HStem: 638 255<375.25 529.449>
VStem: 322 259<689.203 840.28>
LayerCount: 2
Fore
SplineSet
577 760 m 0,0,1
 565 710 565 710 520 674 c 128,-1,2
 475 638 475 638 422 638 c 128,-1,3
 369 638 369 638 341 676 c 0,4,5
 322 702 322 702 322 734 c 0,6,7
 322 750 322 750 326 765 c 0,8,9
 341 821 341 821 382 855 c 0,10,11
 428 893 428 893 482 893 c 0,12,13
 537 893 537 893 563 856 c 0,14,15
 581 830 581 830 581 798 c 0,16,17
 581 777 581 777 577 760 c 0,0,1
EndSplineSet
Validated: 1
EndChar

StartChar: cedilla
Encoding: 184 184 122
Width: 610
GlyphClass: 2
Flags: W
HStem: -410 656
VStem: 267 184<-157.689 111.145>
LayerCount: 2
Fore
SplineSet
300 246 m 1,0,1
 451 150 451 150 451 -1 c 0,2,3
 451 -40 451 -40 441 -82 c 0,4,5
 395 -274 395 -274 219 -410 c 1,6,-1
 94 -276 l 1,7,8
 224 -215 224 -215 259 -70 c 0,9,10
 267 -37 267 -37 267 -7 c 0,11,12
 267 91 267 91 183 145 c 1,13,-1
 300 246 l 1,0,1
EndSplineSet
Validated: 1
EndChar

StartChar: uni00B9
Encoding: 185 185 123
Width: 700
GlyphClass: 2
Flags: W
HStem: 1371 150<501 592>
VStem: 440 175<715 890>
DStem2: 440 715 615 715 0.224951 0.97437<39.3664 673.379>
LayerCount: 2
Fore
SplineSet
440 715 m 1,0,-1
 592 1371 l 1,1,-1
 467 1371 l 1,2,-1
 501 1521 l 1,3,-1
 801 1521 l 1,4,-1
 615 715 l 1,5,-1
 440 715 l 1,0,-1
EndSplineSet
Validated: 1
EndChar

StartChar: ordmasculine
Encoding: 186 186 124
Width: 1183
GlyphClass: 2
Flags: W
HStem: 693 150<345 1193> 894 127<739.296 931.292> 1404 127<838.851 1034.44>
VStem: 557 166<1082.88 1283.11> 1051 170<1157.73 1391.26>
LayerCount: 2
Fore
SplineSet
1193 693 m 1,0,-1
 310 693 l 1,1,-1
 345 843 l 1,2,-1
 1228 843 l 1,3,-1
 1193 693 l 1,0,-1
1089 1041 m 0,4,5
 937 894 937 894 777 894 c 0,6,7
 652 894 652 894 594 978 c 0,8,9
 557 1032 557 1032 557 1108 c 0,10,11
 557 1150 557 1150 568 1198 c 0,12,13
 589 1291 589 1291 671 1375 c 0,14,15
 823 1531 823 1531 995 1531 c 0,16,17
 1122 1531 1122 1531 1184 1441 c 0,18,19
 1221 1387 1221 1387 1221 1320 c 0,20,21
 1221 1289 1221 1289 1213 1256 c 0,22,23
 1183 1131 1183 1131 1089 1041 c 0,4,5
960 1087 m 0,24,25
 1021 1141 1021 1141 1044 1234 c 0,26,27
 1051 1262 1051 1262 1051 1288 c 128,-1,28
 1051 1314 1051 1314 1042 1344 c 0,29,30
 1023 1404 1023 1404 960 1404 c 0,31,32
 862 1404 862 1404 783 1304 c 0,33,34
 743 1254 743 1254 729 1190 c 0,35,36
 723 1163 723 1163 723 1139 c 0,37,38
 723 1110 723 1110 732 1082 c 0,39,40
 754 1021 754 1021 818 1021 c 0,41,42
 886 1021 886 1021 960 1087 c 0,24,25
EndSplineSet
Validated: 1
EndChar

StartChar: guillemotright
Encoding: 187 187 125
Width: 1409
GlyphClass: 2
Flags: W
DStem2: 276 330 229 125 0.764056 0.64515<0 647.405> 523 1401 470 1163 0.58738 -0.809312<161.485 668.564> 811 323 763 118 0.764545 0.64457<0 646.636> 1058 1394 1004 1156 0.58738 -0.809312<160.898 667.976>
LayerCount: 2
Fore
SplineSet
229 125 m 1,0,-1
 276 330 l 1,1,-1
 767 752 l 1,2,-1
 470 1163 l 1,3,-1
 523 1401 l 1,4,-1
 920 854 l 1,5,-1
 878 673 l 1,6,-1
 229 125 l 1,0,-1
763 118 m 1,7,-1
 811 323 l 1,8,-1
 1301 745 l 1,9,-1
 1004 1156 l 1,10,-1
 1058 1394 l 1,11,-1
 1455 847 l 1,12,-1
 1413 666 l 1,13,-1
 763 118 l 1,7,-1
EndSplineSet
Validated: 1
EndChar

StartChar: onequarter
Encoding: 188 188 126
Width: 1559
GlyphClass: 2
Flags: W
HStem: 0 21G<207 398.791 1134 1313.62> 159 125<979 1171> 1371 150<501 592>
VStem: 207 176<0 176> 440 175<715 890> 1400 176<1335 1511>
DStem2: 207 0 383 0 0.619678 0.784856<109.063 1925.19> 274.929 0 449.929 0 0.224951 0.97437<773.174 1407.19> 1134 0 1309 0 0.224951 0.97437<39.3664 163.248 291.568 638.451>
LayerCount: 2
Fore
SplineSet
207 0 m 1,0,-1
 1400 1511 l 1,1,-1
 1576 1511 l 1,2,-1
 383 0 l 1,3,-1
 207 0 l 1,0,-1
440 715 m 1,4,-1
 592 1371 l 1,5,-1
 467 1371 l 1,6,-1
 501 1521 l 1,7,-1
 801 1521 l 1,8,-1
 615 715 l 1,9,-1
 440 715 l 1,4,-1
1309 0 m 1,10,-1
 1134 0 l 1,11,-1
 1171 159 l 1,12,-1
 757 159 l 1,13,14
 878 389 878 389 1023 535 c 0,15,16
 1204 718 1204 718 1355 806 c 1,17,-1
 1495 806 l 1,18,-1
 1309 0 l 1,10,-1
979 284 m 1,19,-1
 1200 284 l 1,20,-1
 1278 622 l 1,21,22
 1208 573 1208 573 1120 478 c 128,-1,23
 1032 383 1032 383 979 284 c 1,19,-1
EndSplineSet
Validated: 1
EndChar

StartChar: onehalf
Encoding: 189 189 127
Width: 1689
GlyphClass: 2
Flags: W
HStem: 0 150<1110 1482> 678 138<1218.77 1424.08> 1371 150<501 592>
VStem: 207 176<0 176> 440 175<715 890> 1400 176<1335 1511> 1438 180<475.845 644.279>
DStem2: 207 0 383 0 0.619678 0.784856<109.063 1925.19> 274.929 0 449.929 0 0.224951 0.97437<773.174 1407.19> 999 219 1110 150 0.862737 0.505653<60.8738 514.002>
LayerCount: 2
Fore
SplineSet
900 0 m 1,0,1
 884 37 884 37 884 78 c 0,2,3
 884 153 884 153 999 219 c 0,4,5
 1011 225 1011 225 1359 447 c 0,6,7
 1419 486 1419 486 1434 555 c 0,8,9
 1438 574 1438 574 1438 590 c 0,10,11
 1439 622 1439 622 1421 645 c 0,12,13
 1395 678 1395 678 1337 678 c 0,14,15
 1281 678 1281 678 1217 632 c 0,16,17
 1157 589 1157 589 1120 501 c 1,18,-1
 991 584 l 1,19,20
 1063 687 1063 687 1186 760 c 0,21,22
 1280 816 1280 816 1382 816 c 0,23,24
 1492 816 1492 816 1557 751 c 0,25,26
 1618 689 1618 689 1618 611 c 0,27,28
 1618 586 1618 586 1612 559 c 0,29,30
 1584 431 1584 431 1441 344 c 24,31,32
 1372 302 1372 302 1110 150 c 1,33,-1
 1517 150 l 1,34,-1
 1482 0 l 1,35,-1
 900 0 l 1,0,1
440 715 m 1,36,-1
 592 1371 l 1,37,-1
 467 1371 l 1,38,-1
 501 1521 l 1,39,-1
 801 1521 l 1,40,-1
 615 715 l 1,41,-1
 440 715 l 1,36,-1
207 0 m 1,42,-1
 1400 1511 l 1,43,-1
 1576 1511 l 1,44,-1
 383 0 l 1,45,-1
 207 0 l 1,42,-1
EndSplineSet
Validated: 1
EndChar

StartChar: threequarters
Encoding: 190 190 128
Width: 1785
GlyphClass: 2
Flags: W
HStem: 0 21G<433 624.791 1360 1539.62> 159 125<1205 1397> 704 134<547.212 759.211> 1160 121<709 816.62> 1394 137<743.506 909> 1491 20G<1610.21 1802>
VStem: 433 176<0 176> 861 179<949.295 1144.5 1311.8 1393.99> 1626 176<1335 1511>
DStem2: 433 0 609 0 0.619678 0.784856<109.063 1925.19> 1360 0 1535 0 0.224951 0.97437<39.3664 163.248 291.568 638.451>
LayerCount: 2
Fore
SplineSet
1535 0 m 1,0,-1
 1360 0 l 1,1,-1
 1397 159 l 1,2,-1
 983 159 l 1,3,4
 1104 389 1104 389 1249 535 c 0,5,6
 1430 718 1430 718 1581 806 c 1,7,-1
 1721 806 l 1,8,-1
 1535 0 l 1,0,-1
1205 284 m 1,9,-1
 1426 284 l 1,10,-1
 1504 622 l 1,11,12
 1434 573 1434 573 1346 478 c 128,-1,13
 1258 383 1258 383 1205 284 c 1,9,-1
587 1383 m 1,14,15
 717 1531 717 1531 865 1531 c 0,16,17
 953 1531 953 1531 989 1495 c 0,18,19
 1030 1454 1030 1454 1030 1409 c 0,20,21
 1030 1396 1030 1396 1027 1384 c 0,22,23
 1009 1311 1009 1311 949 1257 c 1,24,25
 1040 1206 1040 1206 1040 1106 c 0,26,27
 1040 1076 1040 1076 1032 1042 c 0,28,29
 1000 907 1000 907 862 805 c 0,30,31
 725 704 725 704 586 704 c 0,32,33
 402 704 402 704 365 930 c 1,34,-1
 538 988 l 1,35,36
 534 964 534 964 534 943 c 0,37,38
 534 838 534 838 634 838 c 0,39,40
 714 838 714 838 775 896 c 0,41,42
 838 956 838 956 855 1031 c 0,43,44
 861 1058 861 1058 861 1078 c 0,45,46
 861 1107 861 1107 849 1124 c 0,47,48
 821 1160 821 1160 681 1160 c 1,49,-1
 709 1281 l 1,50,51
 774 1281 774 1281 818 1302 c 0,52,53
 842 1314 842 1314 851 1349 c 0,54,55
 862 1394 862 1394 818 1394 c 0,56,57
 759 1394 759 1394 711 1298 c 1,58,-1
 587 1383 l 1,14,15
433 0 m 1,59,-1
 1626 1511 l 1,60,-1
 1802 1511 l 1,61,-1
 609 0 l 1,62,-1
 433 0 l 1,59,-1
EndSplineSet
Validated: 1
EndChar

StartChar: questiondown
Encoding: 191 191 129
Width: 1372
GlyphClass: 2
Flags: W
HStem: -20 124<535.348 879.279> 1276 255<1001.55 1155.75>
VStem: 242 200<199.27 525.613> 950 259<1328.72 1479.8> 998 144<1066.2 1221.92>
LayerCount: 2
Fore
SplineSet
954 1409 m 0,0,1
 966 1459 966 1459 1011 1495 c 128,-1,2
 1056 1531 1056 1531 1109 1531 c 128,-1,3
 1162 1531 1162 1531 1190 1493 c 0,4,5
 1209 1467 1209 1467 1209 1435 c 0,6,7
 1209 1419 1209 1419 1205 1404 c 0,8,9
 1190 1348 1190 1348 1149 1314 c 0,10,11
 1103 1276 1103 1276 1049 1276 c 0,12,13
 994 1276 994 1276 968 1313 c 0,14,15
 950 1339 950 1339 950 1371 c 0,16,17
 950 1392 950 1392 954 1409 c 0,0,1
1301 342 m 1,18,19
 1201 203 1201 203 1020 90 c 0,20,21
 844 -20 844 -20 647 -20 c 0,22,23
 419 -20 419 -20 309 135 c 0,24,25
 242 229 242 229 242 346 c 0,26,27
 242 398 242 398 255 455 c 0,28,29
 309 690 309 690 594 859 c 24,30,31
 616 872 616 872 943 1059 c 0,32,33
 984 1083 984 1083 995 1130 c 0,34,35
 998 1143 998 1143 998 1154 c 0,36,37
 998 1193 998 1193 965 1223 c 1,38,-1
 1116 1223 l 1,39,40
 1142 1184 1142 1184 1142 1140 c 0,41,42
 1142 1121 1142 1121 1137 1101 c 0,43,44
 1120 1032 1120 1032 1015 958 c 0,45,46
 1003 949 1003 949 660 723 c 0,47,48
 494 613 494 613 452 427 c 0,49,50
 442 383 442 383 442 343 c 0,51,52
 442 276 442 276 472 220 c 0,53,54
 536 104 536 104 695 104 c 0,55,56
 839 104 839 104 972 208 c 0,57,58
 1095 304 1095 304 1166 427 c 1,59,-1
 1301 342 l 1,18,19
EndSplineSet
Validated: 1
EndChar

StartChar: Agrave
Encoding: 192 192 130
Width: 1537
GlyphClass: 2
Flags: W
HStem: 0 21G<5 188.075 1327.92 1532> 696 150<728 1159> 1491 20G<1006.57 1219.2>
VStem: 5 170<0 170> 1332 200<0 200>
DStem2: 5 0 175 0 0.557613 0.830101<94.7942 926.258 1105.42 1105.42> 1215 1511 1060 1348 0.205325 -0.978694<127.702 639.333 792.502 1502.83>
LayerCount: 2
Fore
SplineSet
5 0 m 1,0,-1
 1020 1511 l 1,1,-1
 1215 1511 l 1,2,-1
 1532 0 l 1,3,-1
 1332 0 l 1,4,-1
 1190 696 l 1,5,-1
 630 696 l 1,6,-1
 175 0 l 1,7,-1
 5 0 l 1,0,-1
728 846 m 1,8,-1
 1159 846 l 1,9,-1
 1060 1348 l 1,10,-1
 728 846 l 1,8,-1
1132 1592 m 1,11,-1
 903 1858 l 1,12,-1
 1035 1966 l 1,13,-1
 1233 1675 l 1,14,-1
 1132 1592 l 1,11,-1
EndSplineSet
Validated: 1
EndChar

StartChar: Aacute
Encoding: 193 193 131
Width: 1537
GlyphClass: 2
Flags: W
HStem: 0 21G<5 188.075 1327.92 1532> 696 150<728 1159> 1491 20G<1006.57 1219.2>
VStem: 5 170<0 170> 1332 200<0 200>
DStem2: 5 0 175 0 0.557613 0.830101<94.7942 926.258 1105.42 1105.42> 1215 1511 1060 1348 0.205325 -0.978694<127.702 639.333 792.502 1502.83>
LayerCount: 2
Fore
SplineSet
5 0 m 1,0,-1
 1020 1511 l 1,1,-1
 1215 1511 l 1,2,-1
 1532 0 l 1,3,-1
 1332 0 l 1,4,-1
 1190 696 l 1,5,-1
 630 696 l 1,6,-1
 175 0 l 1,7,-1
 5 0 l 1,0,-1
728 846 m 1,8,-1
 1159 846 l 1,9,-1
 1060 1348 l 1,10,-1
 728 846 l 1,8,-1
1138 1592 m 1,11,-1
 1075 1675 l 1,12,-1
 1407 1966 l 1,13,-1
 1489 1858 l 1,14,-1
 1138 1592 l 1,11,-1
EndSplineSet
Validated: 1
EndChar

StartChar: Acircumflex
Encoding: 194 194 132
Width: 1537
GlyphClass: 2
Flags: W
HStem: 0 21G<5 188.075 1327.92 1532> 696 150<728 1159> 1491 20G<1006.57 1219.2>
VStem: 5 170<0 170> 1332 200<0 200>
DStem2: 5 0 175 0 0.557613 0.830101<94.7942 926.258 1105.42 1105.42> 1215 1511 1060 1348 0.205325 -0.978694<127.702 639.333 792.502 1502.83>
LayerCount: 2
Fore
SplineSet
5 0 m 1,0,-1
 1020 1511 l 1,1,-1
 1215 1511 l 1,2,-1
 1532 0 l 1,3,-1
 1332 0 l 1,4,-1
 1190 696 l 1,5,-1
 630 696 l 1,6,-1
 175 0 l 1,7,-1
 5 0 l 1,0,-1
728 846 m 1,8,-1
 1159 846 l 1,9,-1
 1060 1348 l 1,10,-1
 728 846 l 1,8,-1
952 1592 m 1,11,-1
 889 1675 l 1,12,-1
 1221 1966 l 1,13,-1
 1419 1675 l 1,14,-1
 1318 1592 l 1,15,-1
 1173 1761 l 1,16,-1
 952 1592 l 1,11,-1
EndSplineSet
Validated: 1
EndChar

StartChar: Atilde
Encoding: 195 195 133
Width: 1537
GlyphClass: 2
Flags: W
HStem: 0 21G<5 188.075 1327.92 1532> 696 150<728 1159> 1491 20G<1006.57 1219.2> 1640 138<1209.84 1386.91> 1752 138<959.286 1144.94>
VStem: 5 170<0 170> 1332 200<0 200>
DStem2: 5 0 175 0 0.557613 0.830101<94.7942 926.258 1105.42 1105.42> 1215 1511 1060 1348 0.205325 -0.978694<127.702 639.333 792.502 1502.83>
LayerCount: 2
Fore
SplineSet
5 0 m 1,0,-1
 1020 1511 l 1,1,-1
 1215 1511 l 1,2,-1
 1532 0 l 1,3,-1
 1332 0 l 1,4,-1
 1190 696 l 1,5,-1
 630 696 l 1,6,-1
 175 0 l 1,7,-1
 5 0 l 1,0,-1
728 846 m 1,8,-1
 1159 846 l 1,9,-1
 1060 1348 l 1,10,-1
 728 846 l 1,8,-1
924 1809 m 1,11,12
 991 1890 991 1890 1062 1890 c 0,13,14
 1124 1890 1124 1890 1193 1835 c 0,15,16
 1264 1778 1264 1778 1316 1778 c 0,17,18
 1376 1778 1376 1778 1462 1890 c 1,19,-1
 1423 1721 l 1,20,21
 1355 1640 1355 1640 1285 1640 c 0,22,23
 1220 1640 1220 1640 1159 1696 c 152,-1,24
 1098 1752 1098 1752 1030 1752 c 0,25,26
 969 1752 969 1752 885 1640 c 1,27,-1
 924 1809 l 1,11,12
EndSplineSet
Validated: 1
EndChar

StartChar: Adieresis
Encoding: 196 196 134
Width: 1537
GlyphClass: 2
Flags: W
HStem: 0 21G<5 188.075 1327.92 1532> 696 150<728 1159> 1491 20G<1006.57 1219.2> 1638 255<942.25 1096.45 1250.25 1404.45>
VStem: 5 170<0 170> 889 259<1689.2 1840.28> 1197 259<1689.2 1840.28> 1332 200<0 200>
DStem2: 5 0 175 0 0.557613 0.830101<94.7942 926.258 1105.42 1105.42> 1215 1511 1060 1348 0.205325 -0.978694<127.702 639.333 792.502 1502.83>
LayerCount: 2
Fore
SplineSet
1452 1760 m 0,0,1
 1440 1710 1440 1710 1395 1674 c 128,-1,2
 1350 1638 1350 1638 1297 1638 c 128,-1,3
 1244 1638 1244 1638 1216 1676 c 0,4,5
 1197 1702 1197 1702 1197 1734 c 0,6,7
 1197 1750 1197 1750 1201 1765 c 0,8,9
 1216 1821 1216 1821 1257 1855 c 0,10,11
 1303 1893 1303 1893 1357 1893 c 0,12,13
 1412 1893 1412 1893 1438 1856 c 0,14,15
 1456 1830 1456 1830 1456 1798 c 0,16,17
 1456 1777 1456 1777 1452 1760 c 0,0,1
1144 1760 m 0,18,19
 1132 1710 1132 1710 1087 1674 c 128,-1,20
 1042 1638 1042 1638 989 1638 c 128,-1,21
 936 1638 936 1638 908 1676 c 0,22,23
 889 1702 889 1702 889 1734 c 0,24,25
 889 1750 889 1750 893 1765 c 0,26,27
 908 1821 908 1821 949 1855 c 0,28,29
 995 1893 995 1893 1049 1893 c 0,30,31
 1104 1893 1104 1893 1130 1856 c 0,32,33
 1148 1830 1148 1830 1148 1798 c 0,34,35
 1148 1777 1148 1777 1144 1760 c 0,18,19
5 0 m 1,36,-1
 1020 1511 l 1,37,-1
 1215 1511 l 1,38,-1
 1532 0 l 1,39,-1
 1332 0 l 1,40,-1
 1190 696 l 1,41,-1
 630 696 l 1,42,-1
 175 0 l 1,43,-1
 5 0 l 1,36,-1
728 846 m 1,44,-1
 1159 846 l 1,45,-1
 1060 1348 l 1,46,-1
 728 846 l 1,44,-1
EndSplineSet
Validated: 1
EndChar

StartChar: Aring
Encoding: 197 197 135
Width: 1537
GlyphClass: 2
Flags: W
HStem: 0 21G<5 188.075 1327.92 1532> 696 150<728 1159> 1491 20G<1006.57 1219.2> 1596 104<1110.35 1245.47> 1856 110<1120.48 1254.3>
VStem: 5 170<0 170> 1332 200<0 200>
DStem2: 5 0 175 0 0.557613 0.830101<94.7942 926.258 1105.42 1105.42> 1215 1511 1060 1348 0.205325 -0.978694<127.702 639.333 792.502 1502.83>
LayerCount: 2
Fore
SplineSet
5 0 m 1,0,-1
 1020 1511 l 1,1,-1
 1215 1511 l 1,2,-1
 1532 0 l 1,3,-1
 1332 0 l 1,4,-1
 1190 696 l 1,5,-1
 630 696 l 1,6,-1
 175 0 l 1,7,-1
 5 0 l 1,0,-1
728 846 m 1,8,-1
 1159 846 l 1,9,-1
 1060 1348 l 1,10,-1
 728 846 l 1,8,-1
1260 1775 m 0,11,12
 1268 1810 1268 1810 1250 1833 c 129,-1,13
 1232 1856 1232 1856 1200 1856 c 0,14,15
 1166 1856 1166 1856 1140 1833 c 0,16,17
 1113 1809 1113 1809 1105 1777 c 0,18,19
 1097 1747 1097 1747 1115 1723 c 0,20,21
 1132 1700 1132 1700 1164 1700 c 0,22,23
 1198 1700 1198 1700 1225.5 1723 c 128,-1,24
 1253 1746 1253 1746 1260 1775 c 0,11,12
1373 1773 m 0,25,26
 1357 1702 1357 1702 1290 1648 c 0,27,28
 1225 1596 1225 1596 1141 1596 c 0,29,30
 1060 1596 1060 1596 1018 1652 c 0,31,32
 988 1692 988 1692 988 1740 c 0,33,34
 988 1759 988 1759 993 1780 c 0,35,36
 1012 1859 1012 1859 1078 1911 c 0,37,38
 1148 1966 1148 1966 1227 1966 c 0,39,40
 1304 1966 1304 1966 1349 1912 c 1,41,42
 1379 1873 1379 1873 1379 1823 c 0,43,44
 1379 1802 1379 1802 1373 1773 c 0,25,26
EndSplineSet
Validated: 1
EndChar

StartChar: AE
Encoding: 198 198 136
Width: 2600
GlyphClass: 2
Flags: W
HStem: -20 123<1636.04 2080.71> 0 21G<5 188.075 1327.92 1532> 696 150<728 1159 1539 2299> 1408 123<2069.03 2514.94> 1491 20G<1006.57 1219.18>
VStem: 5 170<0 170>
DStem2: 5 0 175 0 0.557613 0.830101<94.7942 926.258 1105.42 1105.42> 1215 1511 1060 1348 0.205325 -0.978694<127.702 639.333>
LayerCount: 2
Fore
SplineSet
728 846 m 1,0,-1
 1159 846 l 1,1,-1
 1060 1348 l 1,2,-1
 728 846 l 1,0,-1
5 0 m 1,3,-1
 1020 1511 l 1,4,-1
 1215 1511 l 1,5,-1
 1347 879 l 1,6,7
 1468 1137 1468 1137 1728 1327 c 0,8,9
 2007 1531 2007 1531 2345 1531 c 0,10,11
 2672 1531 2672 1531 2823 1314 c 1,12,-1
 2643 1220 l 1,13,14
 2560 1408 2560 1408 2317 1408 c 0,15,16
 2064 1408 2064 1408 1826 1231 c 0,17,18
 1635 1089 1635 1089 1539 846 c 1,19,-1
 2333 846 l 1,20,-1
 2299 696 l 1,21,-1
 1492 696 l 1,22,23
 1467 586 1467 586 1467 494 c 0,24,25
 1467 366 1467 366 1517 270 c 0,26,27
 1606 103 1606 103 1833 103 c 0,28,29
 2085 103 2085 103 2324 280 c 0,30,31
 2409 343 2409 343 2474 425 c 1,32,-1
 2587 327 l 1,33,34
 2520 257 2520 257 2421 184 c 0,35,36
 2144 -20 2144 -20 1804 -20 c 0,37,38
 1643 -20 1643 -20 1525 32 c 1,39,-1
 1532 0 l 1,40,-1
 1332 0 l 1,41,-1
 1190 696 l 1,42,-1
 630 696 l 1,43,-1
 175 0 l 1,44,-1
 5 0 l 1,3,-1
EndSplineSet
Validated: 1
EndChar

StartChar: Ccedilla
Encoding: 199 199 137
Width: 1579
GlyphClass: 2
Flags: W
HStem: -410 21G<645.435 743.5> -19 122<833 1057.58> 1408 123<1048.53 1493.94>
VStem: 230 214<286.649 739.937> 706 156<-248.316 -22.3662>
LayerCount: 2
Fore
SplineSet
1566 327 m 1,0,1
 1501 258 1501 258 1400 184 c 0,2,3
 1142 -5 1142 -5 833 -19 c 1,4,5
 862 -72 862 -72 862 -136 c 0,6,7
 862 -169 862 -169 854 -207 c 0,8,9
 824 -333 824 -333 663 -410 c 1,10,-1
 562 -295 l 1,11,12
 683 -267 683 -267 702 -179 c 0,13,14
 706 -160 706 -160 706 -141 c 0,15,16
 706 -76 706 -76 652 -10 c 1,17,18
 431 25 431 25 314 185 c 0,19,20
 230 300 230 300 230 470 c 0,21,22
 230 561 230 561 254 668 c 0,23,24
 345 1063 345 1063 707 1327 c 0,25,26
 986 1531 986 1531 1324 1531 c 0,27,28
 1651 1531 1651 1531 1802 1314 c 1,29,-1
 1622 1220 l 1,30,31
 1539 1408 1539 1408 1296 1408 c 0,32,33
 1045 1408 1045 1408 805 1231 c 0,34,35
 549 1042 549 1042 465 671 c 0,36,37
 444 578 444 578 444 496 c 0,38,39
 444 370 444 370 496 270 c 0,40,41
 585 103 585 103 812 103 c 0,42,43
 1063 103 1063 103 1303 280 c 0,44,45
 1387 342 1387 342 1453 425 c 1,46,-1
 1566 327 l 1,0,1
EndSplineSet
Validated: 1
EndChar

StartChar: Egrave
Encoding: 200 200 138
Width: 1579
GlyphClass: 2
Flags: W
HStem: -20 123<615.763 1059.71> 696 150<518 1278> 1408 123<1048.03 1493.94>
VStem: 230 216<282.681 692.563>
LayerCount: 2
Fore
SplineSet
1566 327 m 1,0,1
 1498 256 1498 256 1400 184 c 0,2,3
 1123 -20 1123 -20 783 -20 c 0,4,5
 464 -20 464 -20 314 185 c 0,6,7
 230 300 230 300 230 470 c 0,8,9
 230 559 230 559 254 668 c 0,10,11
 345 1063 345 1063 707 1327 c 0,12,13
 986 1531 986 1531 1324 1531 c 0,14,15
 1651 1531 1651 1531 1802 1314 c 1,16,-1
 1622 1220 l 1,17,18
 1539 1408 1539 1408 1296 1408 c 0,19,20
 1043 1408 1043 1408 805 1231 c 0,21,22
 614 1089 614 1089 518 846 c 1,23,-1
 1312 846 l 1,24,-1
 1278 696 l 1,25,-1
 471 696 l 1,26,27
 446 586 446 586 446 494 c 0,28,29
 446 366 446 366 496 270 c 0,30,31
 585 103 585 103 812 103 c 0,32,33
 1064 103 1064 103 1303 280 c 0,34,35
 1388 343 1388 343 1453 425 c 1,36,-1
 1566 327 l 1,0,1
1338 1592 m 1,37,-1
 1109 1858 l 1,38,-1
 1241 1966 l 1,39,-1
 1439 1675 l 1,40,-1
 1338 1592 l 1,37,-1
EndSplineSet
Validated: 1
EndChar

StartChar: Eacute
Encoding: 201 201 139
Width: 1579
GlyphClass: 2
Flags: W
HStem: -20 123<615.763 1059.71> 696 150<518 1278> 1408 123<1048.03 1493.94>
VStem: 230 216<282.681 692.563>
LayerCount: 2
Fore
SplineSet
1566 327 m 1,0,1
 1498 256 1498 256 1400 184 c 0,2,3
 1123 -20 1123 -20 783 -20 c 0,4,5
 464 -20 464 -20 314 185 c 0,6,7
 230 300 230 300 230 470 c 0,8,9
 230 559 230 559 254 668 c 0,10,11
 345 1063 345 1063 707 1327 c 0,12,13
 986 1531 986 1531 1324 1531 c 0,14,15
 1651 1531 1651 1531 1802 1314 c 1,16,-1
 1622 1220 l 1,17,18
 1539 1408 1539 1408 1296 1408 c 0,19,20
 1043 1408 1043 1408 805 1231 c 0,21,22
 614 1089 614 1089 518 846 c 1,23,-1
 1312 846 l 1,24,-1
 1278 696 l 1,25,-1
 471 696 l 1,26,27
 446 586 446 586 446 494 c 0,28,29
 446 366 446 366 496 270 c 0,30,31
 585 103 585 103 812 103 c 0,32,33
 1064 103 1064 103 1303 280 c 0,34,35
 1388 343 1388 343 1453 425 c 1,36,-1
 1566 327 l 1,0,1
1337 1592 m 1,37,-1
 1274 1675 l 1,38,-1
 1606 1966 l 1,39,-1
 1688 1858 l 1,40,-1
 1337 1592 l 1,37,-1
EndSplineSet
Validated: 1
EndChar

StartChar: Ecircumflex
Encoding: 202 202 140
Width: 1579
GlyphClass: 2
Flags: W
HStem: -20 123<615.763 1059.71> 696 150<518 1278> 1408 123<1048.03 1493.94>
VStem: 230 216<282.681 692.563>
LayerCount: 2
Fore
SplineSet
1566 327 m 1,0,1
 1498 256 1498 256 1400 184 c 0,2,3
 1123 -20 1123 -20 783 -20 c 0,4,5
 464 -20 464 -20 314 185 c 0,6,7
 230 300 230 300 230 470 c 0,8,9
 230 559 230 559 254 668 c 0,10,11
 345 1063 345 1063 707 1327 c 0,12,13
 986 1531 986 1531 1324 1531 c 0,14,15
 1651 1531 1651 1531 1802 1314 c 1,16,-1
 1622 1220 l 1,17,18
 1539 1408 1539 1408 1296 1408 c 0,19,20
 1043 1408 1043 1408 805 1231 c 0,21,22
 614 1089 614 1089 518 846 c 1,23,-1
 1312 846 l 1,24,-1
 1278 696 l 1,25,-1
 471 696 l 1,26,27
 446 586 446 586 446 494 c 0,28,29
 446 366 446 366 496 270 c 0,30,31
 585 103 585 103 812 103 c 0,32,33
 1064 103 1064 103 1303 280 c 0,34,35
 1388 343 1388 343 1453 425 c 1,36,-1
 1566 327 l 1,0,1
1161 1592 m 1,37,-1
 1098 1675 l 1,38,-1
 1430 1966 l 1,39,-1
 1628 1675 l 1,40,-1
 1527 1592 l 1,41,-1
 1382 1761 l 1,42,-1
 1161 1592 l 1,37,-1
EndSplineSet
Validated: 1
EndChar

StartChar: Edieresis
Encoding: 203 203 141
Width: 1579
GlyphClass: 2
Flags: W
HStem: -20 123<615.763 1059.71> 696 150<518 1278> 1408 123<1048.03 1493.94> 1638 255<1149.25 1303.45 1457.25 1611.45>
VStem: 230 216<282.681 692.563> 1096 259<1689.2 1840.28> 1404 259<1689.2 1840.28>
LayerCount: 2
Fore
SplineSet
1659 1760 m 0,0,1
 1647 1710 1647 1710 1602 1674 c 128,-1,2
 1557 1638 1557 1638 1504 1638 c 128,-1,3
 1451 1638 1451 1638 1423 1676 c 0,4,5
 1404 1702 1404 1702 1404 1734 c 0,6,7
 1404 1750 1404 1750 1408 1765 c 0,8,9
 1423 1821 1423 1821 1464 1855 c 0,10,11
 1510 1893 1510 1893 1564 1893 c 0,12,13
 1619 1893 1619 1893 1645 1856 c 0,14,15
 1663 1830 1663 1830 1663 1798 c 0,16,17
 1663 1777 1663 1777 1659 1760 c 0,0,1
1351 1760 m 0,18,19
 1339 1710 1339 1710 1294 1674 c 128,-1,20
 1249 1638 1249 1638 1196 1638 c 128,-1,21
 1143 1638 1143 1638 1115 1676 c 0,22,23
 1096 1702 1096 1702 1096 1734 c 0,24,25
 1096 1750 1096 1750 1100 1765 c 0,26,27
 1115 1821 1115 1821 1156 1855 c 0,28,29
 1202 1893 1202 1893 1256 1893 c 0,30,31
 1311 1893 1311 1893 1337 1856 c 0,32,33
 1355 1830 1355 1830 1355 1798 c 0,34,35
 1355 1777 1355 1777 1351 1760 c 0,18,19
1566 327 m 1,36,37
 1498 256 1498 256 1400 184 c 0,38,39
 1123 -20 1123 -20 783 -20 c 0,40,41
 464 -20 464 -20 314 185 c 0,42,43
 230 300 230 300 230 470 c 0,44,45
 230 559 230 559 254 668 c 0,46,47
 345 1063 345 1063 707 1327 c 0,48,49
 986 1531 986 1531 1324 1531 c 0,50,51
 1651 1531 1651 1531 1802 1314 c 1,52,-1
 1622 1220 l 1,53,54
 1539 1408 1539 1408 1296 1408 c 0,55,56
 1043 1408 1043 1408 805 1231 c 0,57,58
 614 1089 614 1089 518 846 c 1,59,-1
 1312 846 l 1,60,-1
 1278 696 l 1,61,-1
 471 696 l 1,62,63
 446 586 446 586 446 494 c 0,64,65
 446 366 446 366 496 270 c 0,66,67
 585 103 585 103 812 103 c 0,68,69
 1064 103 1064 103 1303 280 c 0,70,71
 1388 343 1388 343 1453 425 c 1,72,-1
 1566 327 l 1,36,37
EndSplineSet
Validated: 1
EndChar

StartChar: Igrave
Encoding: 204 204 142
Width: 600
GlyphClass: 2
Flags: W
HStem: 0 21G<200 404.619> 1491 20G<544.381 749>
VStem: 200 200<0 200> 549 200<1311 1511>
DStem2: 200 0 400 0 0.224951 0.97437<44.9902 1550.78>
LayerCount: 2
Fore
SplineSet
662 1592 m 1,0,-1
 433 1858 l 1,1,-1
 565 1966 l 1,2,-1
 763 1675 l 1,3,-1
 662 1592 l 1,0,-1
200 0 m 1,4,-1
 549 1511 l 1,5,-1
 749 1511 l 1,6,-1
 400 0 l 1,7,-1
 200 0 l 1,4,-1
EndSplineSet
Validated: 1
EndChar

StartChar: Iacute
Encoding: 205 205 143
Width: 600
GlyphClass: 2
Flags: W
HStem: 0 21G<200 404.619> 1491 20G<544.381 749>
VStem: 200 200<0 200> 549 200<1311 1511>
DStem2: 200 0 400 0 0.224951 0.97437<44.9902 1550.78>
LayerCount: 2
Fore
SplineSet
674 1592 m 1,0,-1
 611 1675 l 1,1,-1
 943 1966 l 1,2,-1
 1025 1858 l 1,3,-1
 674 1592 l 1,0,-1
200 0 m 1,4,-1
 549 1511 l 1,5,-1
 749 1511 l 1,6,-1
 400 0 l 1,7,-1
 200 0 l 1,4,-1
EndSplineSet
Validated: 1
EndChar

StartChar: Icircumflex
Encoding: 206 206 144
Width: 600
GlyphClass: 2
Flags: W
HStem: 0 21G<200 404.619> 1491 20G<544.381 749>
VStem: 200 200<0 200> 549 200<1311 1511>
DStem2: 200 0 400 0 0.224951 0.97437<44.9902 1550.78>
LayerCount: 2
Fore
SplineSet
200 0 m 1,0,-1
 549 1511 l 1,1,-1
 749 1511 l 1,2,-1
 400 0 l 1,3,-1
 200 0 l 1,0,-1
485 1592 m 1,4,-1
 422 1675 l 1,5,-1
 754 1966 l 1,6,-1
 952 1675 l 1,7,-1
 851 1592 l 1,8,-1
 706 1761 l 1,9,-1
 485 1592 l 1,4,-1
EndSplineSet
Validated: 1
EndChar

StartChar: Idieresis
Encoding: 207 207 145
Width: 600
GlyphClass: 2
Flags: W
HStem: 0 21G<200 404.619> 1491 20G<544.381 749> 1638 255<475.25 629.449 783.25 937.449>
VStem: 200 200<0 200> 422 259<1689.2 1840.28> 549 200<1311 1511> 730 259<1689.2 1840.28>
DStem2: 200 0 400 0 0.224951 0.97437<44.9902 1550.78>
LayerCount: 2
Fore
SplineSet
985 1760 m 0,0,1
 973 1710 973 1710 928 1674 c 128,-1,2
 883 1638 883 1638 830 1638 c 128,-1,3
 777 1638 777 1638 749 1676 c 0,4,5
 730 1702 730 1702 730 1734 c 0,6,7
 730 1750 730 1750 734 1765 c 0,8,9
 749 1821 749 1821 790 1855 c 0,10,11
 836 1893 836 1893 890 1893 c 0,12,13
 945 1893 945 1893 971 1856 c 0,14,15
 989 1830 989 1830 989 1798 c 0,16,17
 989 1777 989 1777 985 1760 c 0,0,1
677 1760 m 0,18,19
 665 1710 665 1710 620 1674 c 128,-1,20
 575 1638 575 1638 522 1638 c 128,-1,21
 469 1638 469 1638 441 1676 c 0,22,23
 422 1702 422 1702 422 1734 c 0,24,25
 422 1750 422 1750 426 1765 c 0,26,27
 441 1821 441 1821 482 1855 c 0,28,29
 528 1893 528 1893 582 1893 c 0,30,31
 637 1893 637 1893 663 1856 c 0,32,33
 681 1830 681 1830 681 1798 c 0,34,35
 681 1777 681 1777 677 1760 c 0,18,19
200 0 m 1,36,-1
 549 1511 l 1,37,-1
 749 1511 l 1,38,-1
 400 0 l 1,39,-1
 200 0 l 1,36,-1
EndSplineSet
Validated: 1
EndChar

StartChar: Eth
Encoding: 208 208 146
Width: 1642
GlyphClass: 2
Flags: W
HStem: -20 108<543.178 915.021> 0 21G<200 404.626> 696 150<285 361 595 1023> 1407 124<946.227 1382.69> 1491 20G<544.368 749>
VStem: 200 200<0 200> 1560 201<772.006 1226.4>
DStem2: 195.383 -20 395.383 -20 0.224951 0.97437<65.5163 734.905 933.699 1309.44 1458.15 1571.31>
LayerCount: 2
Fore
SplineSet
200 0 m 1,0,-1
 361 696 l 1,1,-1
 251 696 l 1,2,-1
 285 846 l 1,3,-1
 395 846 l 1,4,-1
 549 1511 l 1,5,-1
 749 1511 l 1,6,-1
 713 1357 l 1,7,8
 793 1423 793 1423 865 1455 c 0,9,10
 1036 1531 1036 1531 1227 1531 c 0,11,12
 1537 1531 1537 1531 1678 1324 c 0,13,14
 1761 1202 1761 1202 1761 1035 c 0,15,16
 1761 945 1761 945 1737 843 c 0,17,18
 1656 501 1656 501 1333 239 c 0,19,20
 1012 -20 1012 -20 698 -20 c 0,21,22
 517 -20 517 -20 478 130 c 1,23,24
 600 88 600 88 687 88 c 0,25,26
 941 88 941 88 1186 294 c 0,27,28
 1463 527 1463 527 1537 843 c 0,29,30
 1560 941 1560 941 1560 1025 c 0,31,32
 1560 1148 1560 1148 1510 1238 c 0,33,34
 1416 1407 1416 1407 1180 1407 c 0,35,36
 993 1407 993 1407 865 1326 c 0,37,38
 679 1208 679 1208 638 1030 c 2,39,-1
 595 846 l 1,40,-1
 1057 846 l 1,41,-1
 1023 696 l 1,42,-1
 561 696 l 1,43,-1
 400 0 l 1,44,-1
 200 0 l 1,0,-1
EndSplineSet
Validated: 1
EndChar

StartChar: Ntilde
Encoding: 209 209 147
Width: 1571
GlyphClass: 2
Flags: W
HStem: 0 21G<200 404.619 1171 1375.62> 1407 124<988.447 1355.94> 1491 20G<544.381 749> 1640 138<1275.84 1452.91> 1752 138<1025.29 1210.94>
VStem: 200 200<0 200> 1171 200<0 200> 1436 203<1044.94 1327.97>
DStem2: 200 0 400 0 0.224951 0.97437<44.9902 1243.06 1413.11 1550.78> 1171 0 1371 0 0.224951 0.97437<44.9902 1218.84>
LayerCount: 2
Fore
SplineSet
200 0 m 1,0,-1
 549 1511 l 1,1,-1
 749 1511 l 1,2,-1
 708 1333 l 1,3,4
 810 1417 810 1417 958 1475 c 0,5,6
 1101 1531 1101 1531 1241 1531 c 0,7,8
 1474 1531 1474 1531 1573 1409 c 16,9,10
 1639 1328 1639 1328 1639 1213 c 0,11,12
 1639 1162 1639 1162 1626 1104 c 2,13,-1
 1371 0 l 1,14,-1
 1171 0 l 1,15,-1
 1425 1102 l 2,16,17
 1436 1150 1436 1150 1436 1191 c 0,18,19
 1436 1266 1436 1266 1398 1320 c 0,20,21
 1335 1407 1335 1407 1196 1407 c 0,22,23
 1008 1407 1008 1407 847 1292 c 0,24,25
 669 1165 669 1165 618 944 c 2,26,-1
 400 0 l 1,27,-1
 200 0 l 1,0,-1
990 1809 m 1,28,29
 1057 1890 1057 1890 1128 1890 c 0,30,31
 1190 1890 1190 1890 1259 1835 c 0,32,33
 1330 1778 1330 1778 1382 1778 c 0,34,35
 1442 1778 1442 1778 1528 1890 c 1,36,-1
 1489 1721 l 1,37,38
 1421 1640 1421 1640 1351 1640 c 0,39,40
 1286 1640 1286 1640 1225 1696 c 152,-1,41
 1164 1752 1164 1752 1096 1752 c 0,42,43
 1035 1752 1035 1752 951 1640 c 1,44,-1
 990 1809 l 1,28,29
EndSplineSet
Validated: 1
EndChar

StartChar: Ograve
Encoding: 210 210 148
Width: 1759
GlyphClass: 2
Flags: W
HStem: -20 123<615.264 1059.93> 1408 123<1048.28 1491.98>
VStem: 230 214<284.16 739.852> 1664 214<771.148 1224.35>
LayerCount: 2
Fore
SplineSet
783 -20 m 0,0,1
 464 -20 464 -20 314 185 c 0,2,3
 230 300 230 300 230 470 c 0,4,5
 230 560 230 560 254 668 c 0,6,7
 345 1063 345 1063 707 1327 c 0,8,9
 986 1531 986 1531 1324 1531 c 0,10,11
 1644 1531 1644 1531 1794 1326 c 0,12,13
 1878 1211 1878 1211 1878 1041 c 0,14,15
 1878 952 1878 952 1854 843 c 0,16,17
 1763 449 1763 449 1401 184 c 0,18,19
 1122 -20 1122 -20 783 -20 c 0,0,1
812 103 m 0,20,21
 1065 103 1065 103 1304 280 c 0,22,23
 1559 469 1559 469 1643 840 c 0,24,25
 1664 933 1664 933 1664 1015 c 0,26,27
 1664 1141 1664 1141 1612 1241 c 0,28,29
 1523 1408 1523 1408 1296 1408 c 0,30,31
 1044 1408 1044 1408 805 1231 c 0,32,33
 549 1041 549 1041 465 671 c 0,34,35
 444 578 444 578 444 497 c 0,36,37
 444 371 444 371 496 269 c 0,38,39
 583 103 583 103 812 103 c 0,20,21
1338 1592 m 1,40,-1
 1109 1858 l 1,41,-1
 1241 1966 l 1,42,-1
 1439 1675 l 1,43,-1
 1338 1592 l 1,40,-1
EndSplineSet
Validated: 1
EndChar

StartChar: Oacute
Encoding: 211 211 149
Width: 1759
GlyphClass: 2
Flags: W
HStem: -20 123<615.264 1059.93> 1408 123<1048.28 1491.98>
VStem: 230 214<284.16 739.852> 1664 214<771.148 1224.35>
DStem2: 707 1327 805 1231 0.815352 0.578965<-214.932 318.368 845.521 1102.96>
LayerCount: 2
Fore
SplineSet
783 -20 m 0,0,1
 464 -20 464 -20 314 185 c 0,2,3
 230 300 230 300 230 470 c 0,4,5
 230 560 230 560 254 668 c 0,6,7
 345 1063 345 1063 707 1327 c 0,8,9
 986 1531 986 1531 1324 1531 c 0,10,11
 1644 1531 1644 1531 1794 1326 c 0,12,13
 1878 1211 1878 1211 1878 1041 c 0,14,15
 1878 952 1878 952 1854 843 c 0,16,17
 1763 449 1763 449 1401 184 c 0,18,19
 1122 -20 1122 -20 783 -20 c 0,0,1
812 103 m 0,20,21
 1065 103 1065 103 1304 280 c 0,22,23
 1559 469 1559 469 1643 840 c 0,24,25
 1664 933 1664 933 1664 1015 c 0,26,27
 1664 1141 1664 1141 1612 1241 c 0,28,29
 1523 1408 1523 1408 1296 1408 c 0,30,31
 1044 1408 1044 1408 805 1231 c 0,32,33
 549 1041 549 1041 465 671 c 0,34,35
 444 578 444 578 444 497 c 0,36,37
 444 371 444 371 496 269 c 0,38,39
 583 103 583 103 812 103 c 0,20,21
1337 1592 m 1,40,-1
 1274 1675 l 1,41,-1
 1606 1966 l 1,42,-1
 1688 1858 l 1,43,-1
 1337 1592 l 1,40,-1
EndSplineSet
Validated: 1
EndChar

StartChar: Ocircumflex
Encoding: 212 212 150
Width: 1759
GlyphClass: 2
Flags: W
HStem: -20 123<615.264 1059.93> 1408 123<1048.28 1491.98>
VStem: 230 214<284.16 739.852> 1664 214<771.148 1224.35>
LayerCount: 2
Fore
SplineSet
783 -20 m 0,0,1
 464 -20 464 -20 314 185 c 0,2,3
 230 300 230 300 230 470 c 0,4,5
 230 560 230 560 254 668 c 0,6,7
 345 1063 345 1063 707 1327 c 0,8,9
 986 1531 986 1531 1324 1531 c 0,10,11
 1644 1531 1644 1531 1794 1326 c 0,12,13
 1878 1211 1878 1211 1878 1041 c 0,14,15
 1878 952 1878 952 1854 843 c 0,16,17
 1763 449 1763 449 1401 184 c 0,18,19
 1122 -20 1122 -20 783 -20 c 0,0,1
812 103 m 0,20,21
 1065 103 1065 103 1304 280 c 0,22,23
 1559 469 1559 469 1643 840 c 0,24,25
 1664 933 1664 933 1664 1015 c 0,26,27
 1664 1141 1664 1141 1612 1241 c 0,28,29
 1523 1408 1523 1408 1296 1408 c 0,30,31
 1044 1408 1044 1408 805 1231 c 0,32,33
 549 1041 549 1041 465 671 c 0,34,35
 444 578 444 578 444 497 c 0,36,37
 444 371 444 371 496 269 c 0,38,39
 583 103 583 103 812 103 c 0,20,21
1161 1592 m 1,40,-1
 1098 1675 l 1,41,-1
 1430 1966 l 1,42,-1
 1628 1675 l 1,43,-1
 1527 1592 l 1,44,-1
 1382 1761 l 1,45,-1
 1161 1592 l 1,40,-1
EndSplineSet
Validated: 1
EndChar

StartChar: Otilde
Encoding: 213 213 151
Width: 1759
GlyphClass: 2
Flags: W
HStem: -20 123<615.264 1059.93> 1408 123<1048.28 1491.98> 1640 138<1408.84 1585.91> 1752 138<1158.29 1343.94>
VStem: 230 214<284.16 739.852> 1664 214<771.148 1224.35>
LayerCount: 2
Fore
SplineSet
783 -20 m 0,0,1
 464 -20 464 -20 314 185 c 0,2,3
 230 300 230 300 230 470 c 0,4,5
 230 560 230 560 254 668 c 0,6,7
 345 1063 345 1063 707 1327 c 0,8,9
 986 1531 986 1531 1324 1531 c 0,10,11
 1644 1531 1644 1531 1794 1326 c 0,12,13
 1878 1211 1878 1211 1878 1041 c 0,14,15
 1878 952 1878 952 1854 843 c 0,16,17
 1763 449 1763 449 1401 184 c 0,18,19
 1122 -20 1122 -20 783 -20 c 0,0,1
812 103 m 0,20,21
 1065 103 1065 103 1304 280 c 0,22,23
 1559 469 1559 469 1643 840 c 0,24,25
 1664 933 1664 933 1664 1015 c 0,26,27
 1664 1141 1664 1141 1612 1241 c 0,28,29
 1523 1408 1523 1408 1296 1408 c 0,30,31
 1044 1408 1044 1408 805 1231 c 0,32,33
 549 1041 549 1041 465 671 c 0,34,35
 444 578 444 578 444 497 c 0,36,37
 444 371 444 371 496 269 c 0,38,39
 583 103 583 103 812 103 c 0,20,21
1123 1809 m 1,40,41
 1190 1890 1190 1890 1261 1890 c 0,42,43
 1323 1890 1323 1890 1392 1835 c 0,44,45
 1463 1778 1463 1778 1515 1778 c 0,46,47
 1575 1778 1575 1778 1661 1890 c 1,48,-1
 1622 1721 l 1,49,50
 1554 1640 1554 1640 1484 1640 c 0,51,52
 1419 1640 1419 1640 1358 1696 c 152,-1,53
 1297 1752 1297 1752 1229 1752 c 0,54,55
 1168 1752 1168 1752 1084 1640 c 1,56,-1
 1123 1809 l 1,40,41
EndSplineSet
Validated: 1
EndChar

StartChar: Odieresis
Encoding: 214 214 152
Width: 1759
GlyphClass: 2
Flags: W
HStem: -20 123<615.264 1059.93> 1408 123<1048.28 1491.98> 1638 255<1149.25 1303.45 1457.25 1611.45>
VStem: 230 214<284.16 739.852> 1096 259<1689.2 1840.28> 1404 259<1689.2 1840.28> 1664 214<771.148 1224.35>
LayerCount: 2
Fore
SplineSet
1659 1760 m 0,0,1
 1647 1710 1647 1710 1602 1674 c 128,-1,2
 1557 1638 1557 1638 1504 1638 c 128,-1,3
 1451 1638 1451 1638 1423 1676 c 0,4,5
 1404 1702 1404 1702 1404 1734 c 0,6,7
 1404 1750 1404 1750 1408 1765 c 0,8,9
 1423 1821 1423 1821 1464 1855 c 0,10,11
 1510 1893 1510 1893 1564 1893 c 0,12,13
 1619 1893 1619 1893 1645 1856 c 0,14,15
 1663 1830 1663 1830 1663 1798 c 0,16,17
 1663 1777 1663 1777 1659 1760 c 0,0,1
1351 1760 m 0,18,19
 1339 1710 1339 1710 1294 1674 c 128,-1,20
 1249 1638 1249 1638 1196 1638 c 128,-1,21
 1143 1638 1143 1638 1115 1676 c 0,22,23
 1096 1702 1096 1702 1096 1734 c 0,24,25
 1096 1750 1096 1750 1100 1765 c 0,26,27
 1115 1821 1115 1821 1156 1855 c 0,28,29
 1202 1893 1202 1893 1256 1893 c 0,30,31
 1311 1893 1311 1893 1337 1856 c 0,32,33
 1355 1830 1355 1830 1355 1798 c 0,34,35
 1355 1777 1355 1777 1351 1760 c 0,18,19
783 -20 m 0,36,37
 464 -20 464 -20 314 185 c 0,38,39
 230 300 230 300 230 470 c 0,40,41
 230 560 230 560 254 668 c 0,42,43
 345 1063 345 1063 707 1327 c 0,44,45
 986 1531 986 1531 1324 1531 c 0,46,47
 1644 1531 1644 1531 1794 1326 c 0,48,49
 1878 1211 1878 1211 1878 1041 c 0,50,51
 1878 952 1878 952 1854 843 c 0,52,53
 1763 449 1763 449 1401 184 c 0,54,55
 1122 -20 1122 -20 783 -20 c 0,36,37
812 103 m 0,56,57
 1065 103 1065 103 1304 280 c 0,58,59
 1559 469 1559 469 1643 840 c 0,60,61
 1664 933 1664 933 1664 1015 c 0,62,63
 1664 1141 1664 1141 1612 1241 c 0,64,65
 1523 1408 1523 1408 1296 1408 c 0,66,67
 1044 1408 1044 1408 805 1231 c 0,68,69
 549 1041 549 1041 465 671 c 0,70,71
 444 578 444 578 444 497 c 0,72,73
 444 371 444 371 496 269 c 0,74,75
 583 103 583 103 812 103 c 0,56,57
EndSplineSet
Validated: 1
EndChar

StartChar: multiply
Encoding: 215 215 153
Width: 1031
GlyphClass: 2
Flags: W
DStem2: 268 509 349 403 0.776515 0.630098<0 407.011 579.271 986.429> 518 1134 387 1027 0.609895 -0.792483<4.89944 326.622 465.536 788.661>
LayerCount: 2
Fore
SplineSet
349 403 m 1,0,-1
 268 509 l 1,1,-1
 586 768 l 1,2,-1
 387 1027 l 1,3,-1
 518 1134 l 1,4,-1
 717 875 l 1,5,-1
 1036 1134 l 1,6,-1
 1118 1027 l 1,7,-1
 799 768 l 1,8,-1
 999 509 l 1,9,-1
 867 403 l 1,10,-1
 668 662 l 1,11,-1
 349 403 l 1,0,-1
EndSplineSet
Validated: 1
EndChar

StartChar: Oslash
Encoding: 216 216 154
Width: 1759
GlyphClass: 2
Flags: W
HStem: -20 123<650.634 1059.71> 0 21G<368 554> 1408 123<1048.04 1455.32> 1491 20G<1551 1737>
VStem: 229 214<286.171 740.022> 1665 214<771.063 1224.98>
DStem2: 536 212 648 132 0.619678 0.784856<6.61544 1488.06>
LayerCount: 2
Fore
SplineSet
544 0 m 1,0,-1
 368 0 l 1,1,-1
 427 75 l 1,2,3
 363 119 363 119 314 185 c 0,4,5
 229 299 229 299 229 468 c 0,6,7
 229 560 229 560 254 668 c 0,8,9
 345 1061 345 1061 707 1327 c 0,10,11
 985 1531 985 1531 1324 1531 c 0,12,13
 1451 1531 1451 1531 1551 1499 c 1,14,-1
 1561 1511 l 1,15,-1
 1737 1511 l 1,16,-1
 1679 1437 l 1,17,18
 1744 1393 1744 1393 1794 1326 c 0,19,20
 1879 1212 1879 1212 1879 1043 c 0,21,22
 1879 953 1879 953 1854 843 c 0,23,24
 1760 450 1760 450 1400 184 c 0,25,26
 1123 -20 1123 -20 783 -20 c 0,27,28
 655 -20 655 -20 554 13 c 1,29,-1
 544 0 l 1,0,-1
812 103 m 0,30,31
 1064 103 1064 103 1303 280 c 0,32,33
 1556 467 1556 467 1643 840 c 0,34,35
 1665 934 1665 934 1665 1016 c 0,36,37
 1665 1144 1665 1144 1612 1241 c 0,38,39
 1594 1274 1594 1274 1570 1301 c 1,40,-1
 648 132 l 1,41,42
 718 103 718 103 812 103 c 0,30,31
536 212 m 1,43,-1
 1458 1380 l 1,44,45
 1388 1408 1388 1408 1296 1408 c 0,46,47
 1044 1408 1044 1408 805 1231 c 0,48,49
 553 1045 553 1045 465 671 c 0,50,51
 443 578 443 578 443 496 c 0,52,53
 443 369 443 369 495 270 c 0,54,55
 513 235 513 235 536 212 c 1,43,-1
EndSplineSet
Validated: 1
EndChar

StartChar: Ugrave
Encoding: 217 217 155
Width: 1571
GlyphClass: 2
Flags: W
HStem: -20 124<563.394 931.547> 0 21G<1171 1375.62> 1491 20G<544.38 749 1515.38 1720>
VStem: 281 202<185.906 466.056> 549 200<1311 1511> 1520 200<1311 1511>
DStem2: 195.419 -20 394.958 -20 0.224951 0.97437<399.146 1571.3> 1166.38 -20 1366.38 -20 0.224951 0.97437<65.5163 203.187 373.239 1571.31>
LayerCount: 2
Fore
SplineSet
1371 0 m 1,0,-1
 1171 0 l 1,1,-1
 1212 178 l 1,2,3
 1108 93 1108 93 962 36 c 0,4,5
 819 -20 819 -20 678 -20 c 0,6,7
 445 -20 445 -20 347 102 c 16,8,9
 281 184 281 184 281 298 c 0,10,11
 281 349 281 349 294 407 c 2,12,-1
 549 1511 l 1,13,-1
 749 1511 l 1,14,-1
 494 409 l 2,15,16
 483 362 483 362 483 322 c 0,17,18
 483 245 483 245 522 191 c 0,19,20
 584 104 584 104 724 104 c 0,21,22
 912 104 912 104 1073 219 c 0,23,24
 1251 346 1251 346 1302 567 c 2,25,-1
 1520 1511 l 1,26,-1
 1720 1511 l 1,27,-1
 1371 0 l 1,0,-1
1144 1592 m 1,28,-1
 915 1858 l 1,29,-1
 1047 1966 l 1,30,-1
 1245 1675 l 1,31,-1
 1144 1592 l 1,28,-1
EndSplineSet
Validated: 1
EndChar

StartChar: Uacute
Encoding: 218 218 156
Width: 1571
GlyphClass: 2
Flags: W
HStem: -20 124<563.394 931.547> 0 21G<1171 1375.62> 1491 20G<544.38 749 1515.38 1720>
VStem: 281 202<185.906 466.056> 549 200<1311 1511> 1520 200<1311 1511>
DStem2: 195.419 -20 394.958 -20 0.224951 0.97437<399.146 1571.3> 1166.38 -20 1366.38 -20 0.224951 0.97437<65.5163 203.187 373.239 1571.31>
LayerCount: 2
Fore
SplineSet
1371 0 m 1,0,-1
 1171 0 l 1,1,-1
 1212 178 l 1,2,3
 1108 93 1108 93 962 36 c 0,4,5
 819 -20 819 -20 678 -20 c 0,6,7
 445 -20 445 -20 347 102 c 16,8,9
 281 184 281 184 281 298 c 0,10,11
 281 349 281 349 294 407 c 2,12,-1
 549 1511 l 1,13,-1
 749 1511 l 1,14,-1
 494 409 l 2,15,16
 483 362 483 362 483 322 c 0,17,18
 483 245 483 245 522 191 c 0,19,20
 584 104 584 104 724 104 c 0,21,22
 912 104 912 104 1073 219 c 0,23,24
 1251 346 1251 346 1302 567 c 2,25,-1
 1520 1511 l 1,26,-1
 1720 1511 l 1,27,-1
 1371 0 l 1,0,-1
1176 1592 m 1,28,-1
 1113 1675 l 1,29,-1
 1445 1966 l 1,30,-1
 1527 1858 l 1,31,-1
 1176 1592 l 1,28,-1
EndSplineSet
Validated: 1
EndChar

StartChar: Ucircumflex
Encoding: 219 219 157
Width: 1571
GlyphClass: 2
Flags: W
HStem: -20 124<563.394 931.547> 0 21G<1171 1375.62> 1491 20G<544.38 749 1515.38 1720>
VStem: 281 202<185.906 466.056> 549 200<1311 1511> 1520 200<1311 1511>
DStem2: 195.419 -20 394.958 -20 0.224951 0.97437<399.146 1571.3> 1166.38 -20 1366.38 -20 0.224951 0.97437<65.5163 203.187 373.239 1571.31>
LayerCount: 2
Fore
SplineSet
1371 0 m 1,0,-1
 1171 0 l 1,1,-1
 1212 178 l 1,2,3
 1108 93 1108 93 962 36 c 0,4,5
 819 -20 819 -20 678 -20 c 0,6,7
 445 -20 445 -20 347 102 c 16,8,9
 281 184 281 184 281 298 c 0,10,11
 281 349 281 349 294 407 c 2,12,-1
 549 1511 l 1,13,-1
 749 1511 l 1,14,-1
 494 409 l 2,15,16
 483 362 483 362 483 322 c 0,17,18
 483 245 483 245 522 191 c 0,19,20
 584 104 584 104 724 104 c 0,21,22
 912 104 912 104 1073 219 c 0,23,24
 1251 346 1251 346 1302 567 c 2,25,-1
 1520 1511 l 1,26,-1
 1720 1511 l 1,27,-1
 1371 0 l 1,0,-1
976 1592 m 1,28,-1
 913 1675 l 1,29,-1
 1245 1966 l 1,30,-1
 1443 1675 l 1,31,-1
 1342 1592 l 1,32,-1
 1197 1761 l 1,33,-1
 976 1592 l 1,28,-1
EndSplineSet
Validated: 1
EndChar

StartChar: Udieresis
Encoding: 220 220 158
Width: 1571
GlyphClass: 2
Flags: W
HStem: -20 124<563.394 931.547> 0 21G<1171 1375.62> 1491 20G<544.38 749 1515.38 1720> 1638 255<961.25 1115.45 1269.25 1423.45>
VStem: 281 202<185.906 466.056> 549 200<1311 1511> 908 259<1689.2 1840.28> 1216 259<1689.2 1840.28> 1520 200<1311 1511>
DStem2: 195.419 -20 394.958 -20 0.224951 0.97437<399.146 1571.3> 1166.38 -20 1366.38 -20 0.224951 0.97437<65.5163 203.187 373.239 1571.31>
LayerCount: 2
Fore
SplineSet
1471 1760 m 0,0,1
 1459 1710 1459 1710 1414 1674 c 128,-1,2
 1369 1638 1369 1638 1316 1638 c 128,-1,3
 1263 1638 1263 1638 1235 1676 c 0,4,5
 1216 1702 1216 1702 1216 1734 c 0,6,7
 1216 1750 1216 1750 1220 1765 c 0,8,9
 1235 1821 1235 1821 1276 1855 c 0,10,11
 1322 1893 1322 1893 1376 1893 c 0,12,13
 1431 1893 1431 1893 1457 1856 c 0,14,15
 1475 1830 1475 1830 1475 1798 c 0,16,17
 1475 1777 1475 1777 1471 1760 c 0,0,1
1163 1760 m 0,18,19
 1151 1710 1151 1710 1106 1674 c 128,-1,20
 1061 1638 1061 1638 1008 1638 c 128,-1,21
 955 1638 955 1638 927 1676 c 0,22,23
 908 1702 908 1702 908 1734 c 0,24,25
 908 1750 908 1750 912 1765 c 0,26,27
 927 1821 927 1821 968 1855 c 0,28,29
 1014 1893 1014 1893 1068 1893 c 0,30,31
 1123 1893 1123 1893 1149 1856 c 0,32,33
 1167 1830 1167 1830 1167 1798 c 0,34,35
 1167 1777 1167 1777 1163 1760 c 0,18,19
1371 0 m 1,36,-1
 1171 0 l 1,37,-1
 1212 178 l 1,38,39
 1108 93 1108 93 962 36 c 0,40,41
 819 -20 819 -20 678 -20 c 0,42,43
 445 -20 445 -20 347 102 c 16,44,45
 281 184 281 184 281 298 c 0,46,47
 281 349 281 349 294 407 c 2,48,-1
 549 1511 l 1,49,-1
 749 1511 l 1,50,-1
 494 409 l 2,51,52
 483 362 483 362 483 322 c 0,53,54
 483 245 483 245 522 191 c 0,55,56
 584 104 584 104 724 104 c 0,57,58
 912 104 912 104 1073 219 c 0,59,60
 1251 346 1251 346 1302 567 c 2,61,-1
 1520 1511 l 1,62,-1
 1720 1511 l 1,63,-1
 1371 0 l 1,36,-1
EndSplineSet
Validated: 1
EndChar

StartChar: Yacute
Encoding: 221 221 159
Width: 1372
GlyphClass: 2
Flags: W
HStem: 0 21G<573 777.615> 1491 20G<354 563.714 1529.67 1716>
VStem: 354 204<1307 1511> 573 200<0 200> 1545 171<1340 1511>
DStem2: 558 1511 354 1511 0.276459 -0.961026<0 975.533> 573 0 773 0 0.224951 0.97437<44.9902 426.933> 826 573 869 416 0.611838 0.790983<0 1181.85>
LayerCount: 2
Fore
SplineSet
573 0 m 1,0,-1
 669 416 l 1,1,-1
 354 1511 l 1,2,-1
 558 1511 l 1,3,-1
 826 573 l 1,4,-1
 1545 1511 l 1,5,-1
 1716 1511 l 1,6,-1
 869 416 l 1,7,-1
 773 0 l 1,8,-1
 573 0 l 1,0,-1
1073 1592 m 1,9,-1
 1010 1675 l 1,10,-1
 1342 1966 l 1,11,-1
 1424 1858 l 1,12,-1
 1073 1592 l 1,9,-1
EndSplineSet
Validated: 1
EndChar

StartChar: Thorn
Encoding: 222 222 160
Width: 1450
GlyphClass: 2
Flags: W
HStem: 0 21G<200 404.619> 167 108<592.424 953.501> 1225 124<930.407 1266.49> 1491 20G<544.381 749>
VStem: 200 200<0 200> 549 200<1311 1511> 1352 211<757.309 1136.45>
DStem2: 200 0 400 0 0.224951 0.97437<44.9902 1056.52 1225.13 1550.78>
LayerCount: 2
Fore
SplineSet
200 0 m 1,0,-1
 549 1511 l 1,1,-1
 749 1511 l 1,2,-1
 665 1150 l 1,3,4
 772 1241 772 1241 897 1293 c 0,5,6
 1032 1349 1032 1349 1164 1349 c 0,7,8
 1380 1349 1380 1349 1499 1191 c 16,9,10
 1563 1106 1563 1106 1563 984 c 0,11,12
 1563 922 1563 922 1546 851 c 0,13,14
 1470 516 1470 516 1176 310 c 0,15,16
 973 167 973 167 766 167 c 0,17,18
 561 167 561 167 521 317 c 1,19,20
 646 275 646 275 754 275 c 0,21,22
 937 275 937 275 1086 406 c 0,23,24
 1269 567 1269 567 1333 837 c 0,25,26
 1352 917 1352 917 1352 980 c 0,27,28
 1352 1049 1352 1049 1327 1104 c 256,29,30
 1269 1225 1269 1225 1115 1225 c 0,31,32
 970 1225 970 1225 803 1108 c 0,33,34
 627 985 627 985 576 762 c 2,35,-1
 400 0 l 1,36,-1
 200 0 l 1,0,-1
EndSplineSet
Validated: 1
EndChar

StartChar: germandbls
Encoding: 223 223 161
Width: 1326
GlyphClass: 2
Flags: W
HStem: -20 116<517.329 819.474> 0 21G<200 404.619> 906 128<859 1039.09> 1408 123<875.571 1143.99>
VStem: 200 200<0 200> 1159 211<471.184 829.803> 1170 192<1174.97 1373.18>
DStem2: 195.383 -20 395.383 -20 0.224951 0.97437<65.5163 1263.5>
LayerCount: 2
Fore
SplineSet
200 0 m 1,0,-1
 418 944 l 2,1,2
 489 1252 489 1252 726 1418 c 0,3,4
 887 1531 887 1531 1095 1531 c 0,5,6
 1235 1531 1235 1531 1312 1449 c 0,7,8
 1362 1396 1362 1396 1362 1325 c 0,9,10
 1362 1298 1362 1298 1355 1270 c 0,11,12
 1309 1087 1309 1087 1122 1004 c 1,13,14
 1266 969 1266 969 1326 858 c 0,15,16
 1370 777 1370 777 1370 680 c 0,17,18
 1370 628 1370 628 1357 568 c 0,19,20
 1301 328 1301 328 1056 148 c 0,21,22
 828 -20 828 -20 615 -20 c 0,23,24
 493 -20 493 -20 489 130 c 1,25,26
 566 96 566 96 641 96 c 0,27,28
 808 96 808 96 966 242 c 0,29,30
 1102 368 1102 368 1142 544 c 0,31,32
 1159 619 1159 619 1159 679 c 0,33,34
 1159 770 1159 770 1119 825 c 0,35,36
 1061 905 1061 905 829 906 c 1,37,-1
 859 1034 l 1,38,39
 993 1034 993 1034 1076 1103 c 0,40,41
 1141 1157 1141 1157 1165 1262 c 0,42,43
 1170 1284 1170 1284 1170 1303 c 0,44,45
 1170 1348 1170 1348 1140 1374 c 0,46,47
 1099 1408 1099 1408 1039 1408 c 0,48,49
 918 1408 918 1408 810 1320 c 0,50,51
 680 1214 680 1214 618 944 c 2,52,-1
 400 0 l 1,53,-1
 200 0 l 1,0,-1
EndSplineSet
Validated: 1
EndChar

StartChar: agrave
Encoding: 224 224 162
Width: 1297
GlyphClass: 2
Flags: W
HStem: -20 123<490.661 751.822> 0 21G<897 1101.61> 996 124<769.555 1062.03>
VStem: 197 205<191.179 569.287> 897 200<0 200> 1091 192<653.289 949.87>
DStem2: 892.383 -20 1092.38 -20 0.224951 0.97437<65.5163 908.213>
LayerCount: 2
Fore
SplineSet
1097 0 m 1,0,-1
 897 0 l 1,1,-1
 1085 815 l 2,2,3
 1091 843 1091 843 1091 867 c 0,4,5
 1091 906 1091 906 1074 935 c 0,6,7
 1036 996 1036 996 960 996 c 0,8,9
 798 996 798 996 657 879 c 0,10,11
 481 733 481 733 423 488 c 0,12,13
 402 399 402 399 402 333 c 0,14,15
 402 264 402 264 425 222 c 0,16,17
 490 103 490 103 640 103 c 0,18,19
 768 103 768 103 905 282 c 1,20,21
 835 -20 835 -20 592 -20 c 0,22,23
 348 -20 348 -20 257 133 c 0,24,25
 197 234 197 234 197 356 c 0,26,27
 197 419 197 419 213 488 c 0,28,29
 274 752 274 752 555 966 c 0,30,31
 757 1120 757 1120 1006 1120 c 0,32,33
 1139 1120 1139 1120 1216 1038 c 0,34,35
 1283 967 1283 967 1283 857 c 0,36,37
 1283 808 1283 808 1270 751 c 2,38,-1
 1097 0 l 1,0,-1
1024 1210 m 1,39,-1
 796 1476 l 1,40,-1
 928 1584 l 1,41,-1
 1126 1293 l 1,42,-1
 1024 1210 l 1,39,-1
EndSplineSet
Validated: 1
EndChar

StartChar: aacute
Encoding: 225 225 163
Width: 1297
GlyphClass: 2
Flags: W
HStem: -20 123<490.661 751.822> 0 21G<897 1101.61> 996 124<769.555 1062.03>
VStem: 197 205<191.179 569.287> 897 200<0 200> 1091 192<653.289 949.87>
DStem2: 555 966 657 879 0.769562 0.638572<-212.241 229.094 522.794 958.252> 892.383 -20 1092.38 -20 0.224951 0.97437<65.5163 908.213>
LayerCount: 2
Fore
SplineSet
1097 0 m 1,0,-1
 897 0 l 1,1,-1
 1085 815 l 2,2,3
 1091 843 1091 843 1091 867 c 0,4,5
 1091 906 1091 906 1074 935 c 0,6,7
 1036 996 1036 996 960 996 c 0,8,9
 798 996 798 996 657 879 c 0,10,11
 481 733 481 733 423 488 c 0,12,13
 402 399 402 399 402 333 c 0,14,15
 402 264 402 264 425 222 c 0,16,17
 490 103 490 103 640 103 c 0,18,19
 768 103 768 103 905 282 c 1,20,21
 835 -20 835 -20 592 -20 c 0,22,23
 348 -20 348 -20 257 133 c 0,24,25
 197 234 197 234 197 356 c 0,26,27
 197 419 197 419 213 488 c 0,28,29
 274 752 274 752 555 966 c 0,30,31
 757 1120 757 1120 1006 1120 c 0,32,33
 1139 1120 1139 1120 1216 1038 c 0,34,35
 1283 967 1283 967 1283 857 c 0,36,37
 1283 808 1283 808 1270 751 c 2,38,-1
 1097 0 l 1,0,-1
1025 1210 m 1,39,-1
 963 1293 l 1,40,-1
 1295 1584 l 1,41,-1
 1377 1476 l 1,42,-1
 1025 1210 l 1,39,-1
EndSplineSet
Validated: 1
EndChar

StartChar: acircumflex
Encoding: 226 226 164
Width: 1297
GlyphClass: 2
Flags: W
HStem: -20 123<490.661 751.822> 0 21G<897 1101.61> 996 124<769.555 1062.03>
VStem: 197 205<191.179 569.287> 897 200<0 200> 1091 192<653.289 949.87>
DStem2: 892.383 -20 1092.38 -20 0.224951 0.97437<65.5163 908.213>
LayerCount: 2
Fore
SplineSet
1097 0 m 1,0,-1
 897 0 l 1,1,-1
 1085 815 l 2,2,3
 1091 843 1091 843 1091 867 c 0,4,5
 1091 906 1091 906 1074 935 c 0,6,7
 1036 996 1036 996 960 996 c 0,8,9
 798 996 798 996 657 879 c 0,10,11
 481 733 481 733 423 488 c 0,12,13
 402 399 402 399 402 333 c 0,14,15
 402 264 402 264 425 222 c 0,16,17
 490 103 490 103 640 103 c 0,18,19
 768 103 768 103 905 282 c 1,20,21
 835 -20 835 -20 592 -20 c 0,22,23
 348 -20 348 -20 257 133 c 0,24,25
 197 234 197 234 197 356 c 0,26,27
 197 419 197 419 213 488 c 0,28,29
 274 752 274 752 555 966 c 0,30,31
 757 1120 757 1120 1006 1120 c 0,32,33
 1139 1120 1139 1120 1216 1038 c 0,34,35
 1283 967 1283 967 1283 857 c 0,36,37
 1283 808 1283 808 1270 751 c 2,38,-1
 1097 0 l 1,0,-1
857 1210 m 1,39,-1
 795 1293 l 1,40,-1
 1127 1584 l 1,41,-1
 1325 1293 l 1,42,-1
 1223 1210 l 1,43,-1
 1078 1379 l 1,44,-1
 857 1210 l 1,39,-1
EndSplineSet
Validated: 1
EndChar

StartChar: atilde
Encoding: 227 227 165
Width: 1297
GlyphClass: 2
Flags: W
HStem: -20 123<490.661 751.822> 0 21G<897 1101.61> 996 124<769.555 1062.03> 1277 138<1117.5 1295.68> 1389 138<867.875 1053.34>
VStem: 197 205<191.179 569.287> 897 200<0 200> 1091 192<653.289 949.87>
DStem2: 892.383 -20 1092.38 -20 0.224951 0.97437<65.5163 908.213>
LayerCount: 2
Fore
SplineSet
1097 0 m 1,0,-1
 897 0 l 1,1,-1
 1085 815 l 2,2,3
 1091 843 1091 843 1091 867 c 0,4,5
 1091 906 1091 906 1074 935 c 0,6,7
 1036 996 1036 996 960 996 c 0,8,9
 798 996 798 996 657 879 c 0,10,11
 481 733 481 733 423 488 c 0,12,13
 402 399 402 399 402 333 c 0,14,15
 402 264 402 264 425 222 c 0,16,17
 490 103 490 103 640 103 c 0,18,19
 768 103 768 103 905 282 c 1,20,21
 835 -20 835 -20 592 -20 c 0,22,23
 348 -20 348 -20 257 133 c 0,24,25
 197 234 197 234 197 356 c 0,26,27
 197 419 197 419 213 488 c 0,28,29
 274 752 274 752 555 966 c 0,30,31
 757 1120 757 1120 1006 1120 c 0,32,33
 1139 1120 1139 1120 1216 1038 c 0,34,35
 1283 967 1283 967 1283 857 c 0,36,37
 1283 808 1283 808 1270 751 c 2,38,-1
 1097 0 l 1,0,-1
832 1446 m 1,39,40
 900 1527 900 1527 971 1527 c 0,41,42
 1033 1527 1033 1527 1101 1472 c 0,43,44
 1171 1415 1171 1415 1225 1415 c 0,45,46
 1285 1415 1285 1415 1371 1527 c 1,47,-1
 1332 1358 l 1,48,49
 1263 1277 1263 1277 1193 1277 c 0,50,51
 1127 1277 1127 1277 1067 1333 c 152,-1,52
 1007 1389 1007 1389 939 1389 c 0,53,54
 878 1389 878 1389 793 1277 c 1,55,-1
 832 1446 l 1,39,40
EndSplineSet
Validated: 1
EndChar

StartChar: adieresis
Encoding: 228 228 166
Width: 1297
GlyphClass: 2
Flags: W
HStem: -20 123<490.661 751.822> 0 21G<897 1101.61> 996 124<769.555 1062.03> 1276 255<848.25 1002.45 1156.25 1310.45>
VStem: 197 205<191.179 569.287> 795 259<1327.2 1478.28> 897 200<0 200> 1091 192<653.289 949.87> 1103 259<1327.2 1478.28>
DStem2: 892.383 -20 1092.38 -20 0.224951 0.97437<65.5163 908.213>
LayerCount: 2
Fore
SplineSet
1358 1398 m 0,0,1
 1346 1348 1346 1348 1301 1312 c 128,-1,2
 1256 1276 1256 1276 1203 1276 c 128,-1,3
 1150 1276 1150 1276 1122 1314 c 0,4,5
 1103 1340 1103 1340 1103 1372 c 0,6,7
 1103 1388 1103 1388 1107 1403 c 0,8,9
 1122 1459 1122 1459 1163 1493 c 0,10,11
 1209 1531 1209 1531 1263 1531 c 0,12,13
 1318 1531 1318 1531 1344 1494 c 0,14,15
 1362 1468 1362 1468 1362 1436 c 0,16,17
 1362 1415 1362 1415 1358 1398 c 0,0,1
1050 1398 m 0,18,19
 1038 1348 1038 1348 993 1312 c 128,-1,20
 948 1276 948 1276 895 1276 c 128,-1,21
 842 1276 842 1276 814 1314 c 0,22,23
 795 1340 795 1340 795 1372 c 0,24,25
 795 1388 795 1388 799 1403 c 0,26,27
 814 1459 814 1459 855 1493 c 0,28,29
 901 1531 901 1531 955 1531 c 0,30,31
 1010 1531 1010 1531 1036 1494 c 0,32,33
 1054 1468 1054 1468 1054 1436 c 0,34,35
 1054 1415 1054 1415 1050 1398 c 0,18,19
1097 0 m 1,36,-1
 897 0 l 1,37,-1
 1085 815 l 2,38,39
 1091 843 1091 843 1091 867 c 0,40,41
 1091 906 1091 906 1074 935 c 0,42,43
 1036 996 1036 996 960 996 c 0,44,45
 798 996 798 996 657 879 c 0,46,47
 481 733 481 733 423 488 c 0,48,49
 402 399 402 399 402 333 c 0,50,51
 402 264 402 264 425 222 c 0,52,53
 490 103 490 103 640 103 c 0,54,55
 768 103 768 103 905 282 c 1,56,57
 835 -20 835 -20 592 -20 c 0,58,59
 348 -20 348 -20 257 133 c 0,60,61
 197 234 197 234 197 356 c 0,62,63
 197 419 197 419 213 488 c 0,64,65
 274 752 274 752 555 966 c 0,66,67
 757 1120 757 1120 1006 1120 c 0,68,69
 1139 1120 1139 1120 1216 1038 c 0,70,71
 1283 967 1283 967 1283 857 c 0,72,73
 1283 808 1283 808 1270 751 c 2,74,-1
 1097 0 l 1,36,-1
EndSplineSet
Validated: 1
EndChar

StartChar: aring
Encoding: 229 229 167
Width: 1297
GlyphClass: 2
Flags: W
HStem: -20 123<490.661 751.822> 0 21G<897 1101.61> 996 124<769.555 1062.03> 1210 104<993.354 1128.47> 1470 110<1003.48 1137.3>
VStem: 197 205<191.179 569.287> 897 200<0 200> 1091 192<653.289 949.87>
DStem2: 892.383 -20 1092.38 -20 0.224951 0.97437<65.5163 908.213>
LayerCount: 2
Fore
SplineSet
1143 1389 m 0,0,1
 1151 1424 1151 1424 1133 1447 c 129,-1,2
 1115 1470 1115 1470 1083 1470 c 0,3,4
 1049 1470 1049 1470 1023 1447 c 0,5,6
 996 1423 996 1423 988 1391 c 0,7,8
 980 1361 980 1361 998 1337 c 0,9,10
 1015 1314 1015 1314 1047 1314 c 0,11,12
 1081 1314 1081 1314 1108.5 1337 c 128,-1,13
 1136 1360 1136 1360 1143 1389 c 0,0,1
1256 1387 m 0,14,15
 1240 1316 1240 1316 1173 1262 c 0,16,17
 1108 1210 1108 1210 1024 1210 c 0,18,19
 943 1210 943 1210 901 1266 c 0,20,21
 871 1306 871 1306 871 1354 c 0,22,23
 871 1373 871 1373 876 1394 c 0,24,25
 895 1473 895 1473 961 1525 c 0,26,27
 1031 1580 1031 1580 1110 1580 c 0,28,29
 1187 1580 1187 1580 1232 1526 c 1,30,31
 1262 1487 1262 1487 1262 1437 c 0,32,33
 1262 1416 1262 1416 1256 1387 c 0,14,15
1097 0 m 1,34,-1
 897 0 l 1,35,-1
 1085 815 l 2,36,37
 1091 843 1091 843 1091 867 c 0,38,39
 1091 906 1091 906 1074 935 c 0,40,41
 1036 996 1036 996 960 996 c 0,42,43
 798 996 798 996 657 879 c 0,44,45
 481 733 481 733 423 488 c 0,46,47
 402 399 402 399 402 333 c 0,48,49
 402 264 402 264 425 222 c 0,50,51
 490 103 490 103 640 103 c 0,52,53
 768 103 768 103 905 282 c 1,54,55
 835 -20 835 -20 592 -20 c 0,56,57
 348 -20 348 -20 257 133 c 0,58,59
 197 234 197 234 197 356 c 0,60,61
 197 419 197 419 213 488 c 0,62,63
 274 752 274 752 555 966 c 0,64,65
 757 1120 757 1120 1006 1120 c 0,66,67
 1139 1120 1139 1120 1216 1038 c 0,68,69
 1283 967 1283 967 1283 857 c 0,70,71
 1283 808 1283 808 1270 751 c 2,72,-1
 1097 0 l 1,34,-1
EndSplineSet
Validated: 1
EndChar

StartChar: ae
Encoding: 230 230 168
Width: 1980
GlyphClass: 2
Flags: W
HStem: -20 123<489.661 750.822 1290.96 1622.38> 0 21G<896 1100.57> 487 150<1270 1770> 996 124<768.555 1061.03 1563.19 1898.33>
VStem: 196 205<191.179 569.287>
LayerCount: 2
Fore
SplineSet
1096 0 m 1,0,-1
 896 0 l 1,1,-1
 1084 815 l 2,2,3
 1090 841 1090 841 1090 867 c 0,4,5
 1090 906 1090 906 1073 935 c 0,6,7
 1035 996 1035 996 959 996 c 0,8,9
 797 996 797 996 656 879 c 0,10,11
 480 733 480 733 422 488 c 0,12,13
 401 399 401 399 401 333 c 0,14,15
 401 264 401 264 424 222 c 0,16,17
 489 103 489 103 639 103 c 0,18,19
 767 103 767 103 904 282 c 1,20,21
 834 -20 834 -20 591 -20 c 0,22,23
 347 -20 347 -20 256 133 c 0,24,25
 196 234 196 234 196 356 c 0,26,27
 196 419 196 419 212 488 c 0,28,29
 273 752 273 752 554 966 c 0,30,31
 756 1120 756 1120 1005 1120 c 0,32,33
 1138 1120 1138 1120 1215 1038 c 0,34,35
 1266 984 1266 984 1278 907 c 1,36,37
 1313 937 1313 937 1351 965 c 0,38,39
 1561 1120 1561 1120 1802 1120 c 0,40,41
 2020 1120 2020 1120 2126 980 c 1,42,-1
 1964 876 l 1,43,44
 1894 997 1894 997 1754 997 c 0,45,46
 1581 997 1581 997 1440 866 c 0,47,48
 1331 765 1331 765 1270 637 c 1,49,-1
 1805 637 l 1,50,-1
 1770 487 l 1,51,-1
 1218 487 l 1,52,53
 1200 409 1200 409 1200 347 c 0,54,55
 1200 259 1200 259 1236 206 c 0,56,57
 1303 104 1303 104 1434 104 c 0,58,59
 1606 104 1606 104 1750 234 c 0,60,61
 1803 282 1803 282 1847 341 c 1,62,-1
 1949 226 l 1,63,64
 1908 186 1908 186 1839 135 c 0,65,66
 1629 -20 1629 -20 1388 -20 c 0,67,68
 1217 -20 1217 -20 1112 70 c 1,69,-1
 1096 0 l 1,0,-1
EndSplineSet
Validated: 1
EndChar

StartChar: ccedilla
Encoding: 231 231 169
Width: 1184
GlyphClass: 2
Flags: W
HStem: -410 21G<477.435 575> 997 123<770.951 1102.33>
VStem: 196 207<196.816 566.589> 538 157<-248.316 -21.0845>
LayerCount: 2
Fore
SplineSet
1153 226 m 1,0,1
 1111 185 1111 185 1043 135 c 0,2,3
 865 4 865 4 665 -16 c 1,4,5
 695 -70 695 -70 695 -134 c 0,6,7
 695 -170 695 -170 686 -207 c 0,8,9
 655 -333 655 -333 495 -410 c 1,10,-1
 394 -295 l 1,11,12
 515 -267 515 -267 534 -179 c 0,13,14
 538 -160 538 -160 538 -141 c 0,15,16
 538 -76 538 -76 485 -10 c 1,17,18
 340 19 340 19 258 133 c 0,19,20
 196 219 196 219 196 346 c 0,21,22
 196 416 196 416 215 497 c 0,23,24
 276 759 276 759 555 965 c 0,25,26
 765 1120 765 1120 1006 1120 c 0,27,28
 1224 1120 1224 1120 1330 980 c 1,29,-1
 1168 876 l 1,30,31
 1098 997 1098 997 958 997 c 0,32,33
 786 997 786 997 644 866 c 0,34,35
 477 712 477 712 421 479 c 0,36,37
 403 404 403 404 403 345 c 0,38,39
 403 259 403 259 440 206 c 0,40,41
 509 104 509 104 638 104 c 0,42,43
 811 104 811 104 954 234 c 0,44,45
 1008 283 1008 283 1051 341 c 1,46,-1
 1153 226 l 1,0,1
EndSplineSet
Validated: 1
EndChar

StartChar: egrave
Encoding: 232 232 170
Width: 1184
GlyphClass: 2
Flags: W
HStem: -20 124<493.444 826.383> 487 150<474 974> 997 123<770.707 1102.33>
VStem: 196 208<193.75 485.742>
LayerCount: 2
Fore
SplineSet
1153 226 m 1,0,1
 1112 186 1112 186 1043 135 c 0,2,3
 833 -20 833 -20 592 -20 c 0,4,5
 368 -20 368 -20 258 133 c 0,6,7
 196 219 196 219 196 346 c 0,8,9
 196 416 196 416 215 497 c 0,10,11
 276 759 276 759 555 965 c 0,12,13
 765 1120 765 1120 1006 1120 c 0,14,15
 1224 1120 1224 1120 1330 980 c 1,16,-1
 1168 876 l 1,17,18
 1098 997 1098 997 958 997 c 0,19,20
 785 997 785 997 644 866 c 0,21,22
 535 765 535 765 474 637 c 1,23,-1
 1009 637 l 1,24,-1
 974 487 l 1,25,-1
 422 487 l 1,26,27
 404 409 404 409 404 347 c 0,28,29
 404 259 404 259 440 206 c 0,30,31
 507 104 507 104 638 104 c 0,32,33
 810 104 810 104 954 234 c 0,34,35
 1007 282 1007 282 1051 341 c 1,36,-1
 1153 226 l 1,0,1
1024 1210 m 1,37,-1
 796 1476 l 1,38,-1
 928 1584 l 1,39,-1
 1126 1293 l 1,40,-1
 1024 1210 l 1,37,-1
EndSplineSet
Validated: 1
EndChar

StartChar: eacute
Encoding: 233 233 171
Width: 1184
GlyphClass: 2
Flags: W
HStem: -20 124<493.444 826.383> 487 150<474 974> 997 123<770.707 1102.33>
VStem: 196 208<193.75 485.742>
LayerCount: 2
Fore
SplineSet
1153 226 m 1,0,1
 1112 186 1112 186 1043 135 c 0,2,3
 833 -20 833 -20 592 -20 c 0,4,5
 368 -20 368 -20 258 133 c 0,6,7
 196 219 196 219 196 346 c 0,8,9
 196 416 196 416 215 497 c 0,10,11
 276 759 276 759 555 965 c 0,12,13
 765 1120 765 1120 1006 1120 c 0,14,15
 1224 1120 1224 1120 1330 980 c 1,16,-1
 1168 876 l 1,17,18
 1098 997 1098 997 958 997 c 0,19,20
 785 997 785 997 644 866 c 0,21,22
 535 765 535 765 474 637 c 1,23,-1
 1009 637 l 1,24,-1
 974 487 l 1,25,-1
 422 487 l 1,26,27
 404 409 404 409 404 347 c 0,28,29
 404 259 404 259 440 206 c 0,30,31
 507 104 507 104 638 104 c 0,32,33
 810 104 810 104 954 234 c 0,34,35
 1007 282 1007 282 1051 341 c 1,36,-1
 1153 226 l 1,0,1
1025 1210 m 1,37,-1
 963 1293 l 1,38,-1
 1295 1584 l 1,39,-1
 1377 1476 l 1,40,-1
 1025 1210 l 1,37,-1
EndSplineSet
Validated: 1
EndChar

StartChar: ecircumflex
Encoding: 234 234 172
Width: 1184
GlyphClass: 2
Flags: W
HStem: -20 124<493.444 826.383> 487 150<474 974> 997 123<770.707 1102.33>
VStem: 196 208<193.75 485.742>
LayerCount: 2
Fore
SplineSet
1153 226 m 1,0,1
 1112 186 1112 186 1043 135 c 0,2,3
 833 -20 833 -20 592 -20 c 0,4,5
 368 -20 368 -20 258 133 c 0,6,7
 196 219 196 219 196 346 c 0,8,9
 196 416 196 416 215 497 c 0,10,11
 276 759 276 759 555 965 c 0,12,13
 765 1120 765 1120 1006 1120 c 0,14,15
 1224 1120 1224 1120 1330 980 c 1,16,-1
 1168 876 l 1,17,18
 1098 997 1098 997 958 997 c 0,19,20
 785 997 785 997 644 866 c 0,21,22
 535 765 535 765 474 637 c 1,23,-1
 1009 637 l 1,24,-1
 974 487 l 1,25,-1
 422 487 l 1,26,27
 404 409 404 409 404 347 c 0,28,29
 404 259 404 259 440 206 c 0,30,31
 507 104 507 104 638 104 c 0,32,33
 810 104 810 104 954 234 c 0,34,35
 1007 282 1007 282 1051 341 c 1,36,-1
 1153 226 l 1,0,1
857 1210 m 1,37,-1
 795 1293 l 1,38,-1
 1127 1584 l 1,39,-1
 1325 1293 l 1,40,-1
 1223 1210 l 1,41,-1
 1078 1379 l 1,42,-1
 857 1210 l 1,37,-1
EndSplineSet
Validated: 1
EndChar

StartChar: edieresis
Encoding: 235 235 173
Width: 1184
GlyphClass: 2
Flags: W
HStem: -20 124<493.444 826.383> 487 150<474 974> 997 123<770.707 1102.33> 1276 255<848.25 1002.45 1156.25 1310.45>
VStem: 196 208<193.75 485.742> 795 259<1327.2 1478.28> 1103 259<1327.2 1478.28>
LayerCount: 2
Fore
SplineSet
1358 1398 m 0,0,1
 1346 1348 1346 1348 1301 1312 c 128,-1,2
 1256 1276 1256 1276 1203 1276 c 128,-1,3
 1150 1276 1150 1276 1122 1314 c 0,4,5
 1103 1340 1103 1340 1103 1372 c 0,6,7
 1103 1388 1103 1388 1107 1403 c 0,8,9
 1122 1459 1122 1459 1163 1493 c 0,10,11
 1209 1531 1209 1531 1263 1531 c 0,12,13
 1318 1531 1318 1531 1344 1494 c 0,14,15
 1362 1468 1362 1468 1362 1436 c 0,16,17
 1362 1415 1362 1415 1358 1398 c 0,0,1
1050 1398 m 0,18,19
 1038 1348 1038 1348 993 1312 c 128,-1,20
 948 1276 948 1276 895 1276 c 128,-1,21
 842 1276 842 1276 814 1314 c 0,22,23
 795 1340 795 1340 795 1372 c 0,24,25
 795 1388 795 1388 799 1403 c 0,26,27
 814 1459 814 1459 855 1493 c 0,28,29
 901 1531 901 1531 955 1531 c 0,30,31
 1010 1531 1010 1531 1036 1494 c 0,32,33
 1054 1468 1054 1468 1054 1436 c 0,34,35
 1054 1415 1054 1415 1050 1398 c 0,18,19
1153 226 m 1,36,37
 1112 186 1112 186 1043 135 c 0,38,39
 833 -20 833 -20 592 -20 c 0,40,41
 368 -20 368 -20 258 133 c 0,42,43
 196 219 196 219 196 346 c 0,44,45
 196 416 196 416 215 497 c 0,46,47
 276 759 276 759 555 965 c 0,48,49
 765 1120 765 1120 1006 1120 c 0,50,51
 1224 1120 1224 1120 1330 980 c 1,52,-1
 1168 876 l 1,53,54
 1098 997 1098 997 958 997 c 0,55,56
 785 997 785 997 644 866 c 0,57,58
 535 765 535 765 474 637 c 1,59,-1
 1009 637 l 1,60,-1
 974 487 l 1,61,-1
 422 487 l 1,62,63
 404 409 404 409 404 347 c 0,64,65
 404 259 404 259 440 206 c 0,66,67
 507 104 507 104 638 104 c 0,68,69
 810 104 810 104 954 234 c 0,70,71
 1007 282 1007 282 1051 341 c 1,72,-1
 1153 226 l 1,36,37
EndSplineSet
Validated: 1
EndChar

StartChar: igrave
Encoding: 236 236 174
Width: 600
GlyphClass: 2
Flags: W
HStem: 0 130<453.559 566> 1080 20G<449.385 654>
VStem: 245 203<141.909 288.745> 454 200<900 1100>
DStem2: 200.131 0 400.131 0 0.224951 0.97437<246.218 1128.92>
LayerCount: 2
Fore
SplineSet
566 0 m 1,0,1
 365 0 365 0 299 50 c 0,2,3
 245 91 245 91 245 167 c 0,4,5
 245 196 245 196 253 229 c 2,6,-1
 454 1100 l 1,7,-1
 654 1100 l 1,8,-1
 453 229 l 2,9,10
 448 210 448 210 448 195 c 0,11,12
 448 174 448 174 457 163 c 0,13,14
 481 130 481 130 596 130 c 1,15,-1
 566 0 l 1,0,1
573 1210 m 1,16,-1
 345 1476 l 1,17,-1
 477 1584 l 1,18,-1
 675 1293 l 1,19,-1
 573 1210 l 1,16,-1
EndSplineSet
Validated: 1
EndChar

StartChar: iacute
Encoding: 237 237 175
Width: 600
GlyphClass: 2
Flags: W
HStem: 0 130<453.559 566> 1080 20G<449.385 654>
VStem: 245 203<141.909 288.745> 454 200<900 1100>
DStem2: 200.131 0 400.131 0 0.224951 0.97437<246.218 1128.92>
LayerCount: 2
Fore
SplineSet
566 0 m 1,0,1
 365 0 365 0 299 50 c 0,2,3
 245 91 245 91 245 167 c 0,4,5
 245 196 245 196 253 229 c 2,6,-1
 454 1100 l 1,7,-1
 654 1100 l 1,8,-1
 453 229 l 2,9,10
 448 210 448 210 448 195 c 0,11,12
 448 174 448 174 457 163 c 0,13,14
 481 130 481 130 596 130 c 1,15,-1
 566 0 l 1,0,1
585 1210 m 1,16,-1
 523 1293 l 1,17,-1
 855 1584 l 1,18,-1
 937 1476 l 1,19,-1
 585 1210 l 1,16,-1
EndSplineSet
Validated: 1
EndChar

StartChar: icircumflex
Encoding: 238 238 176
Width: 600
GlyphClass: 2
Flags: W
HStem: 0 130<453.559 566> 1080 20G<449.385 654>
VStem: 245 203<141.909 288.745> 454 200<900 1100>
DStem2: 200.131 0 400.131 0 0.224951 0.97437<246.218 1128.92>
LayerCount: 2
Fore
SplineSet
566 0 m 1,0,1
 365 0 365 0 299 50 c 0,2,3
 245 91 245 91 245 167 c 0,4,5
 245 196 245 196 253 229 c 2,6,-1
 454 1100 l 1,7,-1
 654 1100 l 1,8,-1
 453 229 l 2,9,10
 448 210 448 210 448 195 c 0,11,12
 448 174 448 174 457 163 c 0,13,14
 481 130 481 130 596 130 c 1,15,-1
 566 0 l 1,0,1
396 1210 m 1,16,-1
 334 1293 l 1,17,-1
 666 1584 l 1,18,-1
 864 1293 l 1,19,-1
 762 1210 l 1,20,-1
 617 1379 l 1,21,-1
 396 1210 l 1,16,-1
EndSplineSet
Validated: 1
EndChar

StartChar: idieresis
Encoding: 239 239 177
Width: 600
GlyphClass: 2
Flags: W
HStem: 0 130<453.559 566> 1080 20G<449.385 654> 1276 255<392.25 546.449 700.25 854.449>
VStem: 245 203<141.909 288.745> 339 259<1327.2 1478.28> 454 200<900 1100> 647 259<1327.2 1478.28>
DStem2: 200.131 0 400.131 0 0.224951 0.97437<246.218 1128.92>
LayerCount: 2
Fore
SplineSet
902 1398 m 0,0,1
 890 1348 890 1348 845 1312 c 128,-1,2
 800 1276 800 1276 747 1276 c 128,-1,3
 694 1276 694 1276 666 1314 c 0,4,5
 647 1340 647 1340 647 1372 c 0,6,7
 647 1388 647 1388 651 1403 c 0,8,9
 666 1459 666 1459 707 1493 c 0,10,11
 753 1531 753 1531 807 1531 c 0,12,13
 862 1531 862 1531 888 1494 c 0,14,15
 906 1468 906 1468 906 1436 c 0,16,17
 906 1415 906 1415 902 1398 c 0,0,1
594 1398 m 0,18,19
 582 1348 582 1348 537 1312 c 128,-1,20
 492 1276 492 1276 439 1276 c 128,-1,21
 386 1276 386 1276 358 1314 c 0,22,23
 339 1340 339 1340 339 1372 c 0,24,25
 339 1388 339 1388 343 1403 c 0,26,27
 358 1459 358 1459 399 1493 c 0,28,29
 445 1531 445 1531 499 1531 c 0,30,31
 554 1531 554 1531 580 1494 c 0,32,33
 598 1468 598 1468 598 1436 c 0,34,35
 598 1415 598 1415 594 1398 c 0,18,19
566 0 m 1,36,37
 365 0 365 0 299 50 c 0,38,39
 245 91 245 91 245 167 c 0,40,41
 245 196 245 196 253 229 c 2,42,-1
 454 1100 l 1,43,-1
 654 1100 l 1,44,-1
 453 229 l 2,45,46
 448 210 448 210 448 195 c 0,47,48
 448 174 448 174 457 163 c 0,49,50
 481 130 481 130 596 130 c 1,51,-1
 566 0 l 1,36,37
EndSplineSet
Validated: 1
EndChar

StartChar: eth
Encoding: 240 240 178
Width: 1324
GlyphClass: 2
Flags: W
HStem: -20 123<453.55 759.976> 846 124<690.778 986.836> 1118 21G<867.441 919.4> 1405 126<931.7 974.688> 1490 20G<1393.83 1444.56>
VStem: 186 209<160.453 526.532> 1167 205<697.417 1192.15>
DStem2: 841 1254 872 1118 0.919542 0.392993<0 192.233 426.755 626.47>
LayerCount: 2
Fore
SplineSet
935 1531 m 1,0,1
 1098 1506 1098 1506 1193 1403 c 1,2,-1
 1440 1510 l 1,3,-1
 1471 1374 l 1,4,-1
 1288 1294 l 1,5,6
 1372 1145 1372 1145 1372 961 c 0,7,8
 1372 859 1372 859 1346 746 c 0,9,10
 1256 356 1256 356 973 135 c 0,11,12
 774 -20 774 -20 542 -20 c 0,13,14
 324 -20 324 -20 242 109 c 0,15,16
 186 197 186 197 186 311 c 0,17,18
 186 370 186 370 201 437 c 0,19,20
 251 649 251 649 470 816 c 0,21,22
 672 970 672 970 871 970 c 0,23,24
 1003 970 1003 970 1003 866 c 0,25,26
 1003 843 1003 843 996 814 c 1,27,28
 945 846 945 846 875 846 c 0,29,30
 727 846 727 846 604 746 c 0,31,32
 454 624 454 624 415 453 c 0,33,34
 395 365 395 365 395 302 c 0,35,36
 395 254 395 254 407 219 c 0,37,38
 447 103 447 103 590 103 c 0,39,40
 739 103 739 103 884 234 c 0,41,42
 1053 387 1053 387 1141 766 c 0,43,44
 1167 878 1167 878 1167 973 c 0,45,46
 1167 1116 1167 1116 1109 1218 c 1,47,-1
 872 1118 l 1,48,-1
 841 1254 l 1,49,-1
 1018 1329 l 1,50,51
 967 1374 967 1374 906 1405 c 1,52,-1
 935 1531 l 1,0,1
EndSplineSet
Validated: 1
EndChar

StartChar: ntilde
Encoding: 241 241 179
Width: 1382
GlyphClass: 2
Flags: W
HStem: 0 21G<200 404.602 982 1186.61> 982 138<851.336 1135.79> 1080 20G<449.382 654> 1277 138<1117.5 1295.68> 1389 138<867.875 1053.34>
VStem: 200 200<0 200> 982 200<0 200> 1167 201<693.116 929.932>
DStem2: 200 0 400 0 0.224951 0.97437<44.9902 854.483 1011.66 1128.94> 982 0 1182 0 0.224951 0.97437<44.9902 858.896>
LayerCount: 2
Fore
SplineSet
200 0 m 1,0,-1
 454 1100 l 1,1,-1
 654 1100 l 1,2,-1
 617 942 l 1,3,4
 711 1013 711 1013 821 1063 c 0,5,6
 948 1120 948 1120 1091 1120 c 0,7,8
 1214 1120 1214 1120 1297 1037 c 0,9,10
 1368 966 1368 966 1368 854 c 0,11,12
 1368 806 1368 806 1355 751 c 2,13,-1
 1182 0 l 1,14,-1
 982 0 l 1,15,-1
 1155 751 l 2,16,17
 1167 801 1167 801 1167 840 c 0,18,19
 1167 897 1167 897 1141 931 c 0,20,21
 1101 982 1101 982 1026 982 c 0,22,23
 884 982 884 982 745 890 c 0,24,25
 580 781 580 781 536 591 c 2,26,-1
 400 0 l 1,27,-1
 200 0 l 1,0,-1
832 1446 m 1,28,29
 900 1527 900 1527 971 1527 c 0,30,31
 1033 1527 1033 1527 1101 1472 c 0,32,33
 1171 1415 1171 1415 1225 1415 c 0,34,35
 1285 1415 1285 1415 1371 1527 c 1,36,-1
 1332 1358 l 1,37,38
 1263 1277 1263 1277 1193 1277 c 0,39,40
 1127 1277 1127 1277 1067 1333 c 152,-1,41
 1007 1389 1007 1389 939 1389 c 0,42,43
 878 1389 878 1389 793 1277 c 1,44,-1
 832 1446 l 1,28,29
EndSplineSet
Validated: 1
EndChar

StartChar: ograve
Encoding: 242 242 180
Width: 1344
GlyphClass: 2
Flags: W
HStem: -20 124<493.218 826.752> 997 123<771.439 1104.89>
VStem: 196 207<194.802 567.046> 1194 208<529.891 906.31>
LayerCount: 2
Fore
SplineSet
592 -20 m 0,0,1
 368 -20 368 -20 258 133 c 16,2,3
 196 219 196 219 196 346 c 0,4,5
 196 416 196 416 215 497 c 0,6,7
 276 759 276 759 555 965 c 0,8,9
 765 1120 765 1120 1006 1120 c 0,10,11
 1230 1120 1230 1120 1340 967 c 16,12,13
 1402 881 1402 881 1402 754 c 0,14,15
 1402 684 1402 684 1383 603 c 0,16,17
 1321 340 1321 340 1044 135 c 0,18,19
 833 -20 833 -20 592 -20 c 0,0,1
638 104 m 0,20,21
 811 104 811 104 954 234 c 0,22,23
 1123 388 1123 388 1177 621 c 0,24,25
 1194 694 1194 694 1194 752 c 0,26,27
 1194 837 1194 837 1158 894 c 0,28,29
 1093 997 1093 997 958 997 c 0,30,31
 788 997 788 997 644 866 c 0,32,33
 478 715 478 715 421 479 c 0,34,35
 403 405 403 405 403 346 c 0,36,37
 403 260 403 260 440 205 c 0,38,39
 506 104 506 104 638 104 c 0,20,21
1024 1210 m 1,40,-1
 796 1476 l 1,41,-1
 928 1584 l 1,42,-1
 1126 1293 l 1,43,-1
 1024 1210 l 1,40,-1
EndSplineSet
Validated: 1
EndChar

StartChar: oacute
Encoding: 243 243 181
Width: 1344
GlyphClass: 2
Flags: W
HStem: -20 124<493.218 826.752> 997 123<771.439 1104.89>
VStem: 196 207<194.802 567.046> 1194 208<529.891 906.31>
LayerCount: 2
Fore
SplineSet
592 -20 m 0,0,1
 368 -20 368 -20 258 133 c 16,2,3
 196 219 196 219 196 346 c 0,4,5
 196 416 196 416 215 497 c 0,6,7
 276 759 276 759 555 965 c 0,8,9
 765 1120 765 1120 1006 1120 c 0,10,11
 1230 1120 1230 1120 1340 967 c 16,12,13
 1402 881 1402 881 1402 754 c 0,14,15
 1402 684 1402 684 1383 603 c 0,16,17
 1321 340 1321 340 1044 135 c 0,18,19
 833 -20 833 -20 592 -20 c 0,0,1
638 104 m 0,20,21
 811 104 811 104 954 234 c 0,22,23
 1123 388 1123 388 1177 621 c 0,24,25
 1194 694 1194 694 1194 752 c 0,26,27
 1194 837 1194 837 1158 894 c 0,28,29
 1093 997 1093 997 958 997 c 0,30,31
 788 997 788 997 644 866 c 0,32,33
 478 715 478 715 421 479 c 0,34,35
 403 405 403 405 403 346 c 0,36,37
 403 260 403 260 440 205 c 0,38,39
 506 104 506 104 638 104 c 0,20,21
1025 1210 m 1,40,-1
 963 1293 l 1,41,-1
 1295 1584 l 1,42,-1
 1377 1476 l 1,43,-1
 1025 1210 l 1,40,-1
EndSplineSet
Validated: 1
EndChar

StartChar: ocircumflex
Encoding: 244 244 182
Width: 1344
GlyphClass: 2
Flags: W
HStem: -20 124<493.218 826.752> 997 123<771.439 1104.89>
VStem: 196 207<194.802 567.046> 1194 208<529.891 906.31>
LayerCount: 2
Fore
SplineSet
592 -20 m 0,0,1
 368 -20 368 -20 258 133 c 16,2,3
 196 219 196 219 196 346 c 0,4,5
 196 416 196 416 215 497 c 0,6,7
 276 759 276 759 555 965 c 0,8,9
 765 1120 765 1120 1006 1120 c 0,10,11
 1230 1120 1230 1120 1340 967 c 16,12,13
 1402 881 1402 881 1402 754 c 0,14,15
 1402 684 1402 684 1383 603 c 0,16,17
 1321 340 1321 340 1044 135 c 0,18,19
 833 -20 833 -20 592 -20 c 0,0,1
638 104 m 0,20,21
 811 104 811 104 954 234 c 0,22,23
 1123 388 1123 388 1177 621 c 0,24,25
 1194 694 1194 694 1194 752 c 0,26,27
 1194 837 1194 837 1158 894 c 0,28,29
 1093 997 1093 997 958 997 c 0,30,31
 788 997 788 997 644 866 c 0,32,33
 478 715 478 715 421 479 c 0,34,35
 403 405 403 405 403 346 c 0,36,37
 403 260 403 260 440 205 c 0,38,39
 506 104 506 104 638 104 c 0,20,21
857 1210 m 1,40,-1
 795 1293 l 1,41,-1
 1127 1584 l 1,42,-1
 1325 1293 l 1,43,-1
 1223 1210 l 1,44,-1
 1078 1379 l 1,45,-1
 857 1210 l 1,40,-1
EndSplineSet
Validated: 1
EndChar

StartChar: otilde
Encoding: 245 245 183
Width: 1344
GlyphClass: 2
Flags: W
HStem: -20 124<493.218 826.752> 997 123<771.439 1104.89> 1277 138<1117.5 1295.68> 1389 138<867.875 1053.34>
VStem: 196 207<194.802 567.046> 1194 208<529.891 906.31>
LayerCount: 2
Fore
SplineSet
592 -20 m 0,0,1
 368 -20 368 -20 258 133 c 16,2,3
 196 219 196 219 196 346 c 0,4,5
 196 416 196 416 215 497 c 0,6,7
 276 759 276 759 555 965 c 0,8,9
 765 1120 765 1120 1006 1120 c 0,10,11
 1230 1120 1230 1120 1340 967 c 16,12,13
 1402 881 1402 881 1402 754 c 0,14,15
 1402 684 1402 684 1383 603 c 0,16,17
 1321 340 1321 340 1044 135 c 0,18,19
 833 -20 833 -20 592 -20 c 0,0,1
638 104 m 0,20,21
 811 104 811 104 954 234 c 0,22,23
 1123 388 1123 388 1177 621 c 0,24,25
 1194 694 1194 694 1194 752 c 0,26,27
 1194 837 1194 837 1158 894 c 0,28,29
 1093 997 1093 997 958 997 c 0,30,31
 788 997 788 997 644 866 c 0,32,33
 478 715 478 715 421 479 c 0,34,35
 403 405 403 405 403 346 c 0,36,37
 403 260 403 260 440 205 c 0,38,39
 506 104 506 104 638 104 c 0,20,21
832 1446 m 1,40,41
 900 1527 900 1527 971 1527 c 0,42,43
 1033 1527 1033 1527 1101 1472 c 0,44,45
 1171 1415 1171 1415 1225 1415 c 0,46,47
 1285 1415 1285 1415 1371 1527 c 1,48,-1
 1332 1358 l 1,49,50
 1263 1277 1263 1277 1193 1277 c 0,51,52
 1127 1277 1127 1277 1067 1333 c 152,-1,53
 1007 1389 1007 1389 939 1389 c 0,54,55
 878 1389 878 1389 793 1277 c 1,56,-1
 832 1446 l 1,40,41
EndSplineSet
Validated: 1
EndChar

StartChar: odieresis
Encoding: 246 246 184
Width: 1344
GlyphClass: 2
Flags: W
HStem: -20 124<493.218 826.752> 997 123<771.439 1104.89> 1276 255<848.25 1002.45 1156.25 1310.45>
VStem: 196 207<194.802 567.046> 795 259<1327.2 1478.28> 1103 259<1327.2 1478.28> 1194 208<529.891 906.31>
LayerCount: 2
Fore
SplineSet
1358 1398 m 0,0,1
 1346 1348 1346 1348 1301 1312 c 128,-1,2
 1256 1276 1256 1276 1203 1276 c 128,-1,3
 1150 1276 1150 1276 1122 1314 c 0,4,5
 1103 1340 1103 1340 1103 1372 c 0,6,7
 1103 1388 1103 1388 1107 1403 c 0,8,9
 1122 1459 1122 1459 1163 1493 c 0,10,11
 1209 1531 1209 1531 1263 1531 c 0,12,13
 1318 1531 1318 1531 1344 1494 c 0,14,15
 1362 1468 1362 1468 1362 1436 c 0,16,17
 1362 1415 1362 1415 1358 1398 c 0,0,1
1050 1398 m 0,18,19
 1038 1348 1038 1348 993 1312 c 128,-1,20
 948 1276 948 1276 895 1276 c 128,-1,21
 842 1276 842 1276 814 1314 c 0,22,23
 795 1340 795 1340 795 1372 c 0,24,25
 795 1388 795 1388 799 1403 c 0,26,27
 814 1459 814 1459 855 1493 c 0,28,29
 901 1531 901 1531 955 1531 c 0,30,31
 1010 1531 1010 1531 1036 1494 c 0,32,33
 1054 1468 1054 1468 1054 1436 c 0,34,35
 1054 1415 1054 1415 1050 1398 c 0,18,19
592 -20 m 0,36,37
 368 -20 368 -20 258 133 c 16,38,39
 196 219 196 219 196 346 c 0,40,41
 196 416 196 416 215 497 c 0,42,43
 276 759 276 759 555 965 c 0,44,45
 765 1120 765 1120 1006 1120 c 0,46,47
 1230 1120 1230 1120 1340 967 c 16,48,49
 1402 881 1402 881 1402 754 c 0,50,51
 1402 684 1402 684 1383 603 c 0,52,53
 1321 340 1321 340 1044 135 c 0,54,55
 833 -20 833 -20 592 -20 c 0,36,37
638 104 m 0,56,57
 811 104 811 104 954 234 c 0,58,59
 1123 388 1123 388 1177 621 c 0,60,61
 1194 694 1194 694 1194 752 c 0,62,63
 1194 837 1194 837 1158 894 c 0,64,65
 1093 997 1093 997 958 997 c 0,66,67
 788 997 788 997 644 866 c 0,68,69
 478 715 478 715 421 479 c 0,70,71
 403 405 403 405 403 346 c 0,72,73
 403 260 403 260 440 205 c 0,74,75
 506 104 506 104 638 104 c 0,56,57
EndSplineSet
Validated: 1
EndChar

StartChar: divide
Encoding: 247 247 185
Width: 1183
GlyphClass: 2
Flags: W
HStem: 292 255<610.25 764.449> 693 150<345 1193> 948 255<761.25 915.449>
VStem: 557 259<343.203 494.28> 708 259<999.203 1150.28>
LayerCount: 2
Fore
SplineSet
963 1070 m 0,0,1
 951 1020 951 1020 906 984 c 128,-1,2
 861 948 861 948 808 948 c 128,-1,3
 755 948 755 948 727 986 c 0,4,5
 708 1012 708 1012 708 1044 c 0,6,7
 708 1060 708 1060 712 1075 c 0,8,9
 727 1131 727 1131 768 1165 c 0,10,11
 814 1203 814 1203 868 1203 c 0,12,13
 923 1203 923 1203 949 1166 c 0,14,15
 967 1140 967 1140 967 1108 c 0,16,17
 967 1087 967 1087 963 1070 c 0,0,1
812 414 m 0,18,19
 800 364 800 364 755 328 c 128,-1,20
 710 292 710 292 657 292 c 128,-1,21
 604 292 604 292 576 330 c 0,22,23
 557 356 557 356 557 388 c 0,24,25
 557 404 557 404 561 419 c 0,26,27
 576 475 576 475 617 509 c 0,28,29
 663 547 663 547 717 547 c 0,30,31
 772 547 772 547 798 510 c 0,32,33
 816 484 816 484 816 452 c 0,34,35
 816 431 816 431 812 414 c 0,18,19
310 693 m 1,36,-1
 345 843 l 1,37,-1
 1228 843 l 1,38,-1
 1193 693 l 1,39,-1
 310 693 l 1,36,-1
EndSplineSet
Validated: 1
EndChar

StartChar: oslash
Encoding: 248 248 186
Width: 1344
GlyphClass: 2
Flags: W
HStem: -20 124<547.469 827.121> 997 123<771.677 1051.18>
VStem: 196 207<207.101 570.664> 1194 208<530.294 890.816>
DStem2: 440 206 546 119 0.620498 0.784208<0 984.889>
LayerCount: 2
Fore
SplineSet
638 104 m 0,0,1
 812 104 812 104 954 234 c 0,2,3
 1123 389 1123 389 1177 621 c 0,4,5
 1194 694 1194 694 1194 753 c 0,6,7
 1194 838 1194 838 1159 893 c 1,8,-1
 546 119 l 1,9,10
 588 104 588 104 638 104 c 0,0,1
276 0 m 1,11,-1
 325 62 l 1,12,13
 289 90 289 90 258 133 c 0,14,15
 196 219 196 219 196 346 c 0,16,17
 196 416 196 416 215 497 c 0,18,19
 276 758 276 758 555 965 c 0,20,21
 764 1120 764 1120 1006 1120 c 0,22,23
 1085 1120 1085 1120 1150 1101 c 1,24,-1
 1323 1101 l 1,25,-1
 1274 1038 l 1,26,27
 1309 1010 1309 1010 1340 967 c 0,28,29
 1402 881 1402 881 1402 754 c 0,30,31
 1402 684 1402 684 1383 603 c 0,32,33
 1322 342 1322 342 1043 135 c 0,34,35
 834 -20 834 -20 592 -20 c 0,36,37
 511 -20 511 -20 445 0 c 1,38,-1
 276 0 l 1,11,-1
440 206 m 1,39,-1
 1052 981 l 1,40,41
 1010 997 1010 997 958 997 c 0,42,43
 790 997 790 997 644 866 c 0,44,45
 473 713 473 713 420 481 c 0,46,47
 403 408 403 408 403 353 c 0,48,49
 403 262 403 262 440 206 c 1,39,-1
EndSplineSet
Validated: 1
EndChar

StartChar: ugrave
Encoding: 249 249 187
Width: 1382
GlyphClass: 2
Flags: W
HStem: -20 138<500.209 783.891> 0 21G<982 1186.62> 1080 20G<449.393 654 1231.4 1436>
VStem: 268 201<170.007 406.884> 454 200<900 1100> 1236 200<900 1100>
DStem2: 195.81 -20 395.81 -20 0.224951 0.97437<335.469 1149.37> 977.383 -20 1177.38 -20 0.224951 0.97437<65.5163 182.575 339.907 1149.47>
LayerCount: 2
Fore
SplineSet
1182 0 m 1,0,-1
 982 0 l 1,1,-1
 1018 158 l 1,2,3
 924 86 924 86 815 37 c 0,4,5
 687 -20 687 -20 545 -20 c 0,6,7
 422 -20 422 -20 339 63 c 0,8,9
 268 134 268 134 268 246 c 0,10,11
 268 294 268 294 281 349 c 2,12,-1
 454 1100 l 1,13,-1
 654 1100 l 1,14,-1
 481 349 l 2,15,16
 469 299 469 299 469 260 c 0,17,18
 469 201 469 201 495 169 c 0,19,20
 535 118 535 118 610 118 c 0,21,22
 750 118 750 118 890 210 c 0,23,24
 1056 319 1056 319 1100 509 c 2,25,-1
 1236 1100 l 1,26,-1
 1436 1100 l 1,27,-1
 1182 0 l 1,0,-1
952 1210 m 1,28,-1
 724 1476 l 1,29,-1
 856 1584 l 1,30,-1
 1054 1293 l 1,31,-1
 952 1210 l 1,28,-1
EndSplineSet
Validated: 1
EndChar

StartChar: uacute
Encoding: 250 250 188
Width: 1382
GlyphClass: 2
Flags: W
HStem: -20 138<500.209 783.891> 0 21G<982 1186.62> 1080 20G<449.393 654 1231.4 1436>
VStem: 268 201<170.007 406.884> 454 200<900 1100> 1236 200<900 1100>
DStem2: 195.81 -20 395.81 -20 0.224951 0.97437<335.469 1149.37> 977.383 -20 1177.38 -20 0.224951 0.97437<65.5163 182.575 339.907 1149.47>
LayerCount: 2
Fore
SplineSet
1182 0 m 1,0,-1
 982 0 l 1,1,-1
 1018 158 l 1,2,3
 924 86 924 86 815 37 c 0,4,5
 687 -20 687 -20 545 -20 c 0,6,7
 422 -20 422 -20 339 63 c 0,8,9
 268 134 268 134 268 246 c 0,10,11
 268 294 268 294 281 349 c 2,12,-1
 454 1100 l 1,13,-1
 654 1100 l 1,14,-1
 481 349 l 2,15,16
 469 299 469 299 469 260 c 0,17,18
 469 201 469 201 495 169 c 0,19,20
 535 118 535 118 610 118 c 0,21,22
 750 118 750 118 890 210 c 0,23,24
 1056 319 1056 319 1100 509 c 2,25,-1
 1236 1100 l 1,26,-1
 1436 1100 l 1,27,-1
 1182 0 l 1,0,-1
975 1210 m 1,28,-1
 913 1293 l 1,29,-1
 1245 1584 l 1,30,-1
 1327 1476 l 1,31,-1
 975 1210 l 1,28,-1
EndSplineSet
Validated: 1
EndChar

StartChar: ucircumflex
Encoding: 251 251 189
Width: 1382
GlyphClass: 2
Flags: W
HStem: -20 138<500.209 783.891> 0 21G<982 1186.62> 1080 20G<449.393 654 1231.4 1436>
VStem: 268 201<170.007 406.884> 454 200<900 1100> 1236 200<900 1100>
DStem2: 195.81 -20 395.81 -20 0.224951 0.97437<335.469 1149.37> 977.383 -20 1177.38 -20 0.224951 0.97437<65.5163 182.575 339.907 1149.47>
LayerCount: 2
Fore
SplineSet
1182 0 m 1,0,-1
 982 0 l 1,1,-1
 1018 158 l 1,2,3
 924 86 924 86 815 37 c 0,4,5
 687 -20 687 -20 545 -20 c 0,6,7
 422 -20 422 -20 339 63 c 0,8,9
 268 134 268 134 268 246 c 0,10,11
 268 294 268 294 281 349 c 2,12,-1
 454 1100 l 1,13,-1
 654 1100 l 1,14,-1
 481 349 l 2,15,16
 469 299 469 299 469 260 c 0,17,18
 469 201 469 201 495 169 c 0,19,20
 535 118 535 118 610 118 c 0,21,22
 750 118 750 118 890 210 c 0,23,24
 1056 319 1056 319 1100 509 c 2,25,-1
 1236 1100 l 1,26,-1
 1436 1100 l 1,27,-1
 1182 0 l 1,0,-1
773 1210 m 1,28,-1
 711 1293 l 1,29,-1
 1043 1584 l 1,30,-1
 1241 1293 l 1,31,-1
 1139 1210 l 1,32,-1
 994 1379 l 1,33,-1
 773 1210 l 1,28,-1
EndSplineSet
Validated: 1
EndChar

StartChar: udieresis
Encoding: 252 252 190
Width: 1382
GlyphClass: 2
Flags: W
HStem: -20 138<500.209 783.891> 0 21G<982 1186.62> 1080 20G<449.393 654 1231.4 1436> 1276 255<786.25 940.449 1094.25 1248.45>
VStem: 268 201<170.007 406.884> 454 200<900 1100> 733 259<1327.2 1478.28> 1041 259<1327.2 1478.28> 1236 200<900 1100>
DStem2: 195.81 -20 395.81 -20 0.224951 0.97437<335.469 1149.37> 977.383 -20 1177.38 -20 0.224951 0.97437<65.5163 182.575 339.907 1149.47>
LayerCount: 2
Fore
SplineSet
1296 1398 m 0,0,1
 1284 1348 1284 1348 1239 1312 c 128,-1,2
 1194 1276 1194 1276 1141 1276 c 128,-1,3
 1088 1276 1088 1276 1060 1314 c 0,4,5
 1041 1340 1041 1340 1041 1372 c 0,6,7
 1041 1388 1041 1388 1045 1403 c 0,8,9
 1060 1459 1060 1459 1101 1493 c 0,10,11
 1147 1531 1147 1531 1201 1531 c 0,12,13
 1256 1531 1256 1531 1282 1494 c 0,14,15
 1300 1468 1300 1468 1300 1436 c 0,16,17
 1300 1415 1300 1415 1296 1398 c 0,0,1
988 1398 m 0,18,19
 976 1348 976 1348 931 1312 c 128,-1,20
 886 1276 886 1276 833 1276 c 128,-1,21
 780 1276 780 1276 752 1314 c 0,22,23
 733 1340 733 1340 733 1372 c 0,24,25
 733 1388 733 1388 737 1403 c 0,26,27
 752 1459 752 1459 793 1493 c 0,28,29
 839 1531 839 1531 893 1531 c 0,30,31
 948 1531 948 1531 974 1494 c 0,32,33
 992 1468 992 1468 992 1436 c 0,34,35
 992 1415 992 1415 988 1398 c 0,18,19
1182 0 m 1,36,-1
 982 0 l 1,37,-1
 1018 158 l 1,38,39
 924 86 924 86 815 37 c 0,40,41
 687 -20 687 -20 545 -20 c 0,42,43
 422 -20 422 -20 339 63 c 0,44,45
 268 134 268 134 268 246 c 0,46,47
 268 294 268 294 281 349 c 2,48,-1
 454 1100 l 1,49,-1
 654 1100 l 1,50,-1
 481 349 l 2,51,52
 469 299 469 299 469 260 c 0,53,54
 469 201 469 201 495 169 c 0,55,56
 535 118 535 118 610 118 c 0,57,58
 750 118 750 118 890 210 c 0,59,60
 1056 319 1056 319 1100 509 c 2,61,-1
 1236 1100 l 1,62,-1
 1436 1100 l 1,63,-1
 1182 0 l 1,36,-1
EndSplineSet
Validated: 1
EndChar

StartChar: yacute
Encoding: 253 253 191
Width: 1382
GlyphClass: 2
Flags: W
HStem: -410 123<343.651 671.681> -20 138<500.268 780.828> 1080 20G<449.393 654 1231.4 1436>
VStem: 268 201<160.008 478.078> 454 200<900 1100> 1236 200<900 1100>
DStem2: 105.771 -410 305.771 -410 0.224951 0.97437<734.753 1549.63> 887.832 -410 1087.24 -410 0.224951 0.97437<745.173 1549.62>
LayerCount: 2
Fore
SplineSet
454 1100 m 1,0,-1
 654 1100 l 1,1,-1
 481 349 l 2,2,3
 469 298 469 298 469 259 c 0,4,5
 469 201 469 201 495 169 c 0,6,7
 536 118 536 118 610 118 c 0,8,9
 750 118 750 118 890 210 c 0,10,11
 1056 319 1056 319 1100 509 c 2,12,-1
 1236 1100 l 1,13,-1
 1436 1100 l 1,14,-1
 1247 282 l 2,15,16
 1176 -27 1176 -27 945 -207 c 0,17,18
 685 -410 685 -410 441 -410 c 0,19,20
 251 -410 251 -410 119 -271 c 1,21,-1
 271 -163 l 1,22,23
 347 -287 347 -287 486 -287 c 0,24,25
 651 -287 651 -287 796 -160 c 0,26,27
 952 -23 952 -23 1013 160 c 1,28,29
 929 85 929 85 815 37 c 0,30,31
 679 -20 679 -20 545 -20 c 0,32,33
 422 -20 422 -20 339 63 c 0,34,35
 268 134 268 134 268 246 c 0,36,37
 268 294 268 294 281 349 c 2,38,-1
 454 1100 l 1,0,-1
964 1210 m 1,39,-1
 902 1293 l 1,40,-1
 1234 1584 l 1,41,-1
 1316 1476 l 1,42,-1
 964 1210 l 1,39,-1
EndSplineSet
Validated: 1
EndChar

StartChar: thorn
Encoding: 254 254 192
Width: 1297
GlyphClass: 2
Flags: W
HStem: -410 21G<105 309.615> -20 124<489.333 783.843> 996 124<785.407 1072.3> 1491 20G<544.377 749>
VStem: 105 200<-410 -210> 549 200<1311 1511> 1147 209<530.323 920.909>
DStem2: 105 -410 305 -410 0.224951 0.97437<44.9902 1292.79 1432.52 1971.64>
LayerCount: 2
Fore
SplineSet
549 1511 m 1,0,-1
 749 1511 l 1,1,-1
 617 942 l 1,2,3
 673 1010 673 1010 740 1054 c 0,4,5
 841 1120 841 1120 959 1120 c 0,6,7
 1186 1120 1186 1120 1294 967 c 0,8,9
 1356 879 1356 879 1356 755 c 0,10,11
 1356 688 1356 688 1338 612 c 0,12,13
 1275 347 1275 347 996 134 c 0,14,15
 794 -20 794 -20 605 -20 c 16,16,17
 473 -20 473 -20 473 84 c 0,18,19
 473 108 473 108 480 136 c 1,20,21
 533 104 533 104 601 104 c 0,22,23
 754 104 754 104 894 221 c 24,24,25
 1072 370 1072 370 1128 610 c 0,26,27
 1147 691 1147 691 1147 757 c 0,28,29
 1147 828 1147 828 1126 878 c 0,30,31
 1079 996 1079 996 928 996 c 0,32,33
 813 996 813 996 702 884 c 0,34,35
 575 756 575 756 536 591 c 2,36,-1
 305 -410 l 1,37,-1
 105 -410 l 1,38,-1
 549 1511 l 1,0,-1
EndSplineSet
Validated: 1
EndChar

StartChar: ydieresis
Encoding: 255 255 193
Width: 1382
GlyphClass: 2
Flags: W
HStem: -410 123<343.651 671.681> -20 138<500.268 780.828> 1080 20G<449.393 654 1231.4 1436> 1276 255<786.25 940.449 1094.25 1248.45>
VStem: 268 201<160.008 478.078> 454 200<900 1100> 733 259<1327.2 1478.28> 1041 259<1327.2 1478.28> 1236 200<900 1100>
DStem2: 105.771 -410 305.771 -410 0.224951 0.97437<734.753 1549.63> 887.832 -410 1087.24 -410 0.224951 0.97437<745.173 1549.62>
LayerCount: 2
Fore
SplineSet
1296 1398 m 0,0,1
 1284 1348 1284 1348 1239 1312 c 128,-1,2
 1194 1276 1194 1276 1141 1276 c 128,-1,3
 1088 1276 1088 1276 1060 1314 c 0,4,5
 1041 1340 1041 1340 1041 1372 c 0,6,7
 1041 1388 1041 1388 1045 1403 c 0,8,9
 1060 1459 1060 1459 1101 1493 c 0,10,11
 1147 1531 1147 1531 1201 1531 c 0,12,13
 1256 1531 1256 1531 1282 1494 c 0,14,15
 1300 1468 1300 1468 1300 1436 c 0,16,17
 1300 1415 1300 1415 1296 1398 c 0,0,1
988 1398 m 0,18,19
 976 1348 976 1348 931 1312 c 128,-1,20
 886 1276 886 1276 833 1276 c 128,-1,21
 780 1276 780 1276 752 1314 c 0,22,23
 733 1340 733 1340 733 1372 c 0,24,25
 733 1388 733 1388 737 1403 c 0,26,27
 752 1459 752 1459 793 1493 c 0,28,29
 839 1531 839 1531 893 1531 c 0,30,31
 948 1531 948 1531 974 1494 c 0,32,33
 992 1468 992 1468 992 1436 c 0,34,35
 992 1415 992 1415 988 1398 c 0,18,19
454 1100 m 1,36,-1
 654 1100 l 1,37,-1
 481 349 l 2,38,39
 469 298 469 298 469 259 c 0,40,41
 469 201 469 201 495 169 c 0,42,43
 536 118 536 118 610 118 c 0,44,45
 750 118 750 118 890 210 c 0,46,47
 1056 319 1056 319 1100 509 c 2,48,-1
 1236 1100 l 1,49,-1
 1436 1100 l 1,50,-1
 1247 282 l 2,51,52
 1176 -27 1176 -27 945 -207 c 0,53,54
 685 -410 685 -410 441 -410 c 0,55,56
 251 -410 251 -410 119 -271 c 1,57,-1
 271 -163 l 1,58,59
 347 -287 347 -287 486 -287 c 0,60,61
 651 -287 651 -287 796 -160 c 0,62,63
 952 -23 952 -23 1013 160 c 1,64,65
 929 85 929 85 815 37 c 0,66,67
 679 -20 679 -20 545 -20 c 0,68,69
 422 -20 422 -20 339 63 c 0,70,71
 268 134 268 134 268 246 c 0,72,73
 268 294 268 294 281 349 c 2,74,-1
 454 1100 l 1,36,-1
EndSplineSet
Validated: 1
EndChar

StartChar: Amacron
Encoding: 256 256 194
Width: 1537
GlyphClass: 2
Flags: W
HStem: 0 21G<5 188.075 1327.92 1532> 696 150<728 1159> 1491 20G<1006.57 1219.2> 1689 152<923 1408>
VStem: 5 170<0 170> 1332 200<0 200>
DStem2: 5 0 175 0 0.557613 0.830101<94.7942 926.258 1105.42 1105.42> 1215 1511 1060 1348 0.205325 -0.978694<127.702 639.333 792.502 1502.83>
LayerCount: 2
Fore
SplineSet
5 0 m 1,0,-1
 1020 1511 l 1,1,-1
 1215 1511 l 1,2,-1
 1532 0 l 1,3,-1
 1332 0 l 1,4,-1
 1190 696 l 1,5,-1
 630 696 l 1,6,-1
 175 0 l 1,7,-1
 5 0 l 1,0,-1
728 846 m 1,8,-1
 1159 846 l 1,9,-1
 1060 1348 l 1,10,-1
 728 846 l 1,8,-1
888 1689 m 1,11,-1
 923 1841 l 1,12,-1
 1443 1841 l 1,13,-1
 1408 1689 l 1,14,-1
 888 1689 l 1,11,-1
EndSplineSet
Validated: 1
EndChar

StartChar: amacron
Encoding: 257 257 195
Width: 1297
GlyphClass: 2
Flags: W
HStem: -20 123<490.661 751.822> 0 21G<897 1101.61> 996 124<769.555 1062.03> 1328 152<824 1309>
VStem: 197 205<191.179 569.287> 897 200<0 200> 1091 192<653.289 949.87>
DStem2: 892.383 -20 1092.38 -20 0.224951 0.97437<65.5163 908.213>
LayerCount: 2
Fore
SplineSet
1097 0 m 1,0,-1
 897 0 l 1,1,-1
 1085 815 l 2,2,3
 1091 843 1091 843 1091 867 c 0,4,5
 1091 906 1091 906 1074 935 c 0,6,7
 1036 996 1036 996 960 996 c 0,8,9
 798 996 798 996 657 879 c 0,10,11
 481 733 481 733 423 488 c 0,12,13
 402 399 402 399 402 333 c 0,14,15
 402 264 402 264 425 222 c 0,16,17
 490 103 490 103 640 103 c 0,18,19
 768 103 768 103 905 282 c 1,20,21
 835 -20 835 -20 592 -20 c 0,22,23
 348 -20 348 -20 257 133 c 0,24,25
 197 234 197 234 197 356 c 0,26,27
 197 419 197 419 213 488 c 0,28,29
 274 752 274 752 555 966 c 0,30,31
 757 1120 757 1120 1006 1120 c 0,32,33
 1139 1120 1139 1120 1216 1038 c 0,34,35
 1283 967 1283 967 1283 857 c 0,36,37
 1283 808 1283 808 1270 751 c 2,38,-1
 1097 0 l 1,0,-1
789 1328 m 1,39,-1
 824 1480 l 1,40,-1
 1344 1480 l 1,41,-1
 1309 1328 l 1,42,-1
 789 1328 l 1,39,-1
EndSplineSet
Validated: 1
EndChar

StartChar: Abreve
Encoding: 258 258 196
Width: 1537
GlyphClass: 2
Flags: W
HStem: 0 21G<5 188.075 1327.92 1532> 696 150<728 1159> 1491 20G<1006.57 1219.2> 1678 130<1018.88 1364.32>
VStem: 5 170<0 170> 1332 200<0 200>
DStem2: 5 0 175 0 0.557613 0.830101<94.7942 926.258 1105.42 1105.42> 1215 1511 1060 1348 0.205325 -0.978694<127.702 639.333 792.502 1502.83>
LayerCount: 2
Fore
SplineSet
5 0 m 1,0,-1
 1020 1511 l 1,1,-1
 1215 1511 l 1,2,-1
 1532 0 l 1,3,-1
 1332 0 l 1,4,-1
 1190 696 l 1,5,-1
 630 696 l 1,6,-1
 175 0 l 1,7,-1
 5 0 l 1,0,-1
728 846 m 1,8,-1
 1159 846 l 1,9,-1
 1060 1348 l 1,10,-1
 728 846 l 1,8,-1
943 1905 m 1,11,12
 1055 1808 1055 1808 1183 1808 c 0,13,14
 1309 1808 1309 1808 1463 1905 c 17,15,-1
 1428 1753 l 9,16,17
 1302 1678 1302 1678 1155 1678 c 0,18,19
 984 1678 984 1678 908 1753 c 1,20,-1
 943 1905 l 1,11,12
EndSplineSet
Validated: 1
EndChar

StartChar: abreve
Encoding: 259 259 197
Width: 1297
GlyphClass: 2
Flags: W
HStem: -20 123<490.661 751.822> 0 21G<897 1101.61> 996 124<769.555 1062.03> 1308 130<913.551 1260.85>
VStem: 197 205<191.179 569.287> 897 200<0 200> 1091 192<653.289 949.87>
DStem2: 892.383 -20 1092.38 -20 0.224951 0.97437<65.5163 908.213>
LayerCount: 2
Fore
SplineSet
1097 0 m 1,0,-1
 897 0 l 1,1,-1
 1085 815 l 2,2,3
 1091 843 1091 843 1091 867 c 0,4,5
 1091 906 1091 906 1074 935 c 0,6,7
 1036 996 1036 996 960 996 c 0,8,9
 798 996 798 996 657 879 c 0,10,11
 481 733 481 733 423 488 c 0,12,13
 402 399 402 399 402 333 c 0,14,15
 402 264 402 264 425 222 c 0,16,17
 490 103 490 103 640 103 c 0,18,19
 768 103 768 103 905 282 c 1,20,21
 835 -20 835 -20 592 -20 c 0,22,23
 348 -20 348 -20 257 133 c 0,24,25
 197 234 197 234 197 356 c 0,26,27
 197 419 197 419 213 488 c 0,28,29
 274 752 274 752 555 966 c 0,30,31
 757 1120 757 1120 1006 1120 c 0,32,33
 1139 1120 1139 1120 1216 1038 c 0,34,35
 1283 967 1283 967 1283 857 c 0,36,37
 1283 808 1283 808 1270 751 c 2,38,-1
 1097 0 l 1,0,-1
837 1535 m 1,39,40
 950 1438 950 1438 1078 1438 c 0,41,42
 1204 1438 1204 1438 1357 1535 c 17,43,-1
 1322 1383 l 9,44,45
 1197 1308 1197 1308 1050 1308 c 0,46,47
 879 1308 879 1308 802 1383 c 1,48,-1
 837 1535 l 1,39,40
EndSplineSet
Validated: 1
EndChar

StartChar: Aogonek
Encoding: 260 260 198
Width: 1537
GlyphClass: 2
Flags: W
HStem: -410 21G<1074.5 1152.96> 0 21G<5 188.075> 696 150<728 1159> 1491 20G<1006.57 1219.2>
VStem: 5 170<0 170> 1023 169<-278.06 -114.442>
DStem2: 5 0 175 0 0.557613 0.830101<94.7942 926.258 1105.42 1105.42> 1215 1511 1060 1348 0.205325 -0.978694<127.702 639.333 792.502 1407.61>
LayerCount: 2
Fore
SplineSet
728 846 m 1,0,-1
 1159 846 l 1,1,-1
 1060 1348 l 1,2,-1
 728 846 l 1,0,-1
5 0 m 1,3,-1
 1020 1511 l 1,4,-1
 1215 1511 l 1,5,-1
 1532 0 l 1,6,-1
 1337 0 l 1,7,8
 1213 -89 1213 -89 1195 -179 c 0,9,10
 1192 -194 1192 -194 1192 -207 c 0,11,12
 1192 -273 1192 -273 1281 -295 c 1,13,-1
 1126 -410 l 1,14,15
 1023 -346 1023 -346 1023 -253 c 0,16,17
 1023 -230 1023 -230 1029 -207 c 0,18,19
 1077 -24 1077 -24 1311 103 c 1,20,-1
 1190 696 l 1,21,-1
 630 696 l 1,22,-1
 175 0 l 1,23,-1
 5 0 l 1,3,-1
EndSplineSet
Validated: 1
EndChar

StartChar: aogonek
Encoding: 261 261 199
Width: 1297
GlyphClass: 2
Flags: W
HStem: -410 21G<814 891.957> -20 123<490.661 751.822> 996 124<769.555 1062.03>
VStem: 197 205<191.179 569.287> 763 168<-320.483 -109.317> 1091 192<653.289 949.87>
DStem2: 802.344 -410 1002.34 -410 0.224951 0.97437<465.775 1308.47>
LayerCount: 2
Fore
SplineSet
1097 0 m 1,0,-1
 1076 0 l 1,1,2
 952 -89 952 -89 934 -179 c 0,3,4
 931 -194 931 -194 931 -207 c 0,5,6
 931 -273 931 -273 1020 -295 c 1,7,-1
 865 -410 l 1,8,9
 763 -347 763 -347 763 -252 c 0,10,11
 763 -232 763 -232 768 -207 c 0,12,13
 797 -90 797 -90 897 0 c 1,14,-1
 1085 815 l 2,15,16
 1091 843 1091 843 1091 867 c 0,17,18
 1091 906 1091 906 1074 935 c 0,19,20
 1036 996 1036 996 960 996 c 0,21,22
 798 996 798 996 657 879 c 0,23,24
 481 733 481 733 423 488 c 0,25,26
 402 399 402 399 402 333 c 0,27,28
 402 264 402 264 425 222 c 0,29,30
 490 103 490 103 640 103 c 0,31,32
 768 103 768 103 905 282 c 1,33,34
 835 -20 835 -20 592 -20 c 0,35,36
 348 -20 348 -20 257 133 c 0,37,38
 197 234 197 234 197 356 c 0,39,40
 197 419 197 419 213 488 c 0,41,42
 274 752 274 752 555 966 c 0,43,44
 757 1120 757 1120 1006 1120 c 0,45,46
 1139 1120 1139 1120 1216 1038 c 0,47,48
 1283 967 1283 967 1283 857 c 0,49,50
 1283 808 1283 808 1270 751 c 2,51,-1
 1097 0 l 1,0,-1
EndSplineSet
Validated: 1
EndChar

StartChar: Cacute
Encoding: 262 262 200
Width: 1579
GlyphClass: 2
Flags: W
HStem: -20 123<615.763 1058.97> 1408 123<1048.53 1493.94>
VStem: 230 214<286.649 739.937>
DStem2: 707 1327 805 1231 0.815352 0.578965<-214.932 318.368 845.521 1102.96>
LayerCount: 2
Fore
SplineSet
1566 327 m 1,0,1
 1500 257 1500 257 1400 184 c 0,2,3
 1121 -20 1121 -20 783 -20 c 0,4,5
 464 -20 464 -20 314 185 c 0,6,7
 230 300 230 300 230 470 c 0,8,9
 230 561 230 561 254 668 c 0,10,11
 345 1063 345 1063 707 1327 c 0,12,13
 986 1531 986 1531 1324 1531 c 0,14,15
 1651 1531 1651 1531 1802 1314 c 9,16,-1
 1622 1220 l 17,17,18
 1539 1408 1539 1408 1296 1408 c 0,19,20
 1045 1408 1045 1408 805 1231 c 0,21,22
 549 1042 549 1042 465 671 c 0,23,24
 444 578 444 578 444 496 c 0,25,26
 444 370 444 370 496 270 c 0,27,28
 585 103 585 103 812 103 c 0,29,30
 1063 103 1063 103 1303 280 c 0,31,32
 1387 342 1387 342 1453 425 c 1,33,-1
 1566 327 l 1,0,1
1337 1592 m 1,34,-1
 1274 1675 l 1,35,-1
 1606 1966 l 1,36,-1
 1688 1858 l 1,37,-1
 1337 1592 l 1,34,-1
EndSplineSet
Validated: 1
EndChar

